<ttFont>
          <CharString index="0">
            24 -17 19 -16 8 vhcurveto
            -44 -40 -101 -57 -25 -12 rrcurveto
            -16 -8 -7 -11 -13 vvcurveto
            -18 14 -15 10 -10 vhcurveto
            29 22 89 33 53 31 rrcurveto
            return
          </CharString>
          <CharString index="1">
            -104 callgsubr
            42 callgsubr
            return
          </CharString>
          <CharString index="2">
            rmoveto
            -99 callsubr
            -173 hmoveto
            -99 callsubr
            endchar
          </CharString>
          <CharString index="3">
            16 112 15 75 8 vvcurveto
            34 -26 8 -36 -15 -18 -1 -2 -18 vhcurveto
            -9 -184 -46 -259 -63 vvcurveto
            -88 45 -79 91 69 81 48 94 57 vhcurveto
            -8 -56 -3 -19 -8 vvcurveto
            -40 21 -12 35 18 21 3 5 24 vhcurveto
            44 callsubr
            19 19 vvcurveto
            47 7 49 5 46 vhcurveto
            34 297 25 110 13 vvcurveto
            35 -24 8 -36 -37 callsubr
            -19 vhcurveto
            return
          </CharString>
          <CharString index="4">
            -68 -20 rrcurveto
            -43 14 26 -20 27 hhcurveto
            76 20 114 74 10 hvcurveto
            14 98 13 134 11 113 rrcurveto
            return
          </CharString>
          <CharString index="5">
            rmoveto
            43 -15 -26 6 -27 hhcurveto
            -26 -23 -14 -31 -26 hvcurveto
            52 -44 70 -234 6 -171 rrcurveto
            -120 -79 -61 -34 -55 hhcurveto
            -32 -32 19 35 -19 hvcurveto
            -20 -12 -27 -18 -31 vvcurveto
            -37 55 -22 63 139 79 85 138 96 vhcurveto
            93 134 83 182 108 vvcurveto
            48 -26 19 -38 -21 -15 -5 -14 -26 vhcurveto
            6 -17 6 -19 -26 vvcurveto
            -85 -43 -111 -45 -86 vhcurveto
            -11 100 -26 132 -29 82 rrcurveto
            return
          </CharString>
          <CharString index="6">
            -26 11 -204 -128 hhcurveto
            -17 -35 8 22 -9 hvcurveto
            -36 -20 -5 -21 -15 vvcurveto
            -28 26 -29 70 151 47 127 125 20 vhcurveto
            15 97 12 133 return
          </CharString>
          <CharString index="7">
            -38 -35 -34 -44 -37 23 -24 33 return
          </CharString>
          <CharString index="8">
            -68 callsubr
            -100 callsubr
            hvcurveto
            return
          </CharString>
          <CharString index="9">
            rmoveto
            150 111 132 165 122 -71 75 -120 -151 -105 -134 -165 -122 69 -73 117 hvcurveto
            56 428 rmoveto
            -63 callgsubr
            return
          </CharString>
          <CharString index="10">
            vvcurveto
            -39 23 -13 36 17 21 -8 callsubr
            46 6 47 6 44 vhcurveto
            return
          </CharString>
          <CharString index="11">
            46 -32 16 -30 -50 -26 -39 -28 -2 vhcurveto
            15 -10 12 -9 -24 -45 -38 -176 -37 vvcurveto
            -72 35 -54 67 return
          </CharString>
          <CharString index="12">
            -42 30 -20 32 35 37 23 44 6 vhcurveto
            -17 7 -11 24 23 vvcurveto
            51 26 142 5 34 vhcurveto
            9 58 8 37 13 vvcurveto
            return
          </CharString>
          <CharString index="13">
            463 564 -57 callsubr
            -58 -34 callgsubr
            104 -1 44 hhcurveto
            110 51 1 42 21 -8 24 -5 14 hvcurveto
            -14 -22 -82 -10 -64 hhcurveto
            -17 -35 1 1 -13 hvcurveto
            47 13 85 13 106 vhcurveto
            92 16 0 1 22 hvcurveto
            33 2 9 21 31 vvcurveto
            9 -1 12 -1 7 vhcurveto
            -4 -30 -20 0 -109 hhcurveto
            14 98 7 66 1 24 rrcurveto
            2 32 20 -69 callgsubr
            return
          </CharString>
          <CharString index="14">
            44 34 40 48 37 -25 28 -33 -42 -38 -42 -47 -39 27 -25 33 hvcurveto
            return
          </CharString>
          <CharString index="15">
            -13 -101 -22 -127 -49 vvcurveto
            -107 71 -28 65 62 55 14 39 18 -13 19 -13 9 vhcurveto
            -20 -19 -24 -10 -17 hhcurveto
            -39 -23 11 63 return
          </CharString>
          <CharString index="16">
            -23 callsubr
            -264 -103 callsubr
            return
          </CharString>
          <CharString index="17">
            rmoveto
            38 -40 14 -57 vhcurveto
            -8 -44 -79 -135 -62 -98 -29 95 -37 86 -28 57 rrcurveto
            24 -12 -24 10 -17 hhcurveto
            -31 -22 -19 -29 -28 hvcurveto
            43 -36 58 -129 51 -141 rrcurveto
            -24 -182 -11 -68 40 callsubr
            return
          </CharString>
          <CharString index="18">
            -2 -12 -1 -12 -12 vvcurveto
            -95 callsubr
            return
          </CharString>
          <CharString index="19">
            -36 -22 -14 -40 -11 callgsubr
            1 -9 hvcurveto
            return
          </CharString>
          <CharString index="20">
            -73 -36 -79 callsubr
            -24 callsubr
            44 -30 19 -32 return
          </CharString>
          <CharString index="21">
            -87 callgsubr
            21 2 24 1 return
          </CharString>
          <CharString index="22">
            rmoveto
            55 6 20 30 29 vvcurveto
            56 -91 27 -67 -131 -106 -77 -141 -125 88 -24 74 -22 vhcurveto
            51 -15 43 -18 -54 vvcurveto
            -85 -66 -42 -64 -50 -57 34 45 -15 vhcurveto
            -38 -14 -26 -20 -37 vvcurveto
            -48 85 -38 92 145 99 85 152 114 -91 18 -74 28 vhcurveto
            -49 18 -41 20 51 vvcurveto
            78 56 37 58 44 44 -31 -37 12 vhcurveto
            endchar
          </CharString>
          <CharString index="23">
            -105 -38 108 116 165 74 141 129 return
          </CharString>
          <CharString index="24">
            -5 callsubr
            7 82 82 421 67 -38 callsubr
            -34 -27 -19 -25 -11 vhcurveto
            10 -24 -31 5 -27 hhcurveto
            -146 -90 -112 -129 -16 hvcurveto
            return
          </CharString>
          <CharString index="25">
            -9 6 -12 26 -15 vhcurveto
            69 51 90 98 45 51 -29 50 -64 97 -58 54 rrcurveto
            -29 -17 -11 -13 -13 vvcurveto
            -22 50 -86 32 -49 vhcurveto
            -50 -52 -77 -91 -22 vvcurveto
            return
          </CharString>
          <CharString index="26">
            16 hlineto
            5 10 2 11 4 vvcurveto
            16 -10 14 -27 -75 -73 -112 -87 -52 30 -20 33 42 35 28 36 7 -3 10 -4 12 vhcurveto
            -25 6 -11 16 21 vvcurveto
            return
          </CharString>
          <CharString index="27">
            434 401 rmoveto
            -91 callsubr
            37 return
          </CharString>
          <CharString index="28">
            -75 callsubr
            -27 12 -10 21 23 return
          </CharString>
          <CharString index="29">
            46 41 0 1 31 hvcurveto
            31 2 15 16 32 vvcurveto
            7 -1 9 -2 8 vhcurveto
            return
          </CharString>
          <CharString index="30">
            37 -25 27 -31 return
          </CharString>
          <CharString index="31">
            -88 callgsubr
            51 return
          </CharString>
          <CharString index="32">
            -123 -89 vvcurveto
            -42 18 -49 54 40 25 29 33 5 vhcurveto
            return
          </CharString>
          <CharString index="33">
            28 hlineto
            -7 -37 -9 -49 -19 vvcurveto
            -21 13 -10 35 15 13 5 9 18 vhcurveto
            -3 16 -1 16 20 vvcurveto
            19 2 25 3 27 vhcurveto
            43 1 33 6 44 vvcurveto
            7 -1 12 -5 16 vhcurveto
            -24 -8 -15 -5 -21 -1 17 140 14 55 9 61 rrcurveto
            endchar
          </CharString>
          <CharString index="34">
            35 -25 8 -35 -37 callsubr
            -19 vhcurveto
            return
          </CharString>
          <CharString index="35">
            259 rmoveto
            85 31 48 63 40 hhcurveto
            24 16 -20 -45 hvcurveto
            -46 -36 -139 -77 vvcurveto
            return
          </CharString>
          <CharString index="36">
            13 110 22 101 17 vvcurveto
            27 -27 7 -30 -15 -14 -1 -2 -14 vhcurveto
            -4 -65 -9 -81 -10 -86 -26 -220 rcurveline
            -59 168 -83 189 -47 70 rrcurveto
            19 -13 -15 10 -34 hhcurveto
            -20 -18 -1 -7 -22 hvcurveto
            3 -17 1 -18 -20 vvcurveto
            return
          </CharString>
          <CharString index="37">
            50 -39 84 -46 26 -24 rrcurveto
            return
          </CharString>
          <CharString index="38">
            17 2 41 -67 callgsubr
            return
          </CharString>
          <CharString index="39">
            -76 callgsubr
            -77 callsubr
            return
          </CharString>
          <CharString index="40">
            rmoveto
            -8 -33 -29 -2 -27 hhcurveto
            -17 hlineto
            -34 -36 4 -19 hhcurveto
            -39 -15 -18 -31 -5 0 -6 1 -6 hvcurveto
            9 44 30 2 23 hhcurveto
            9 hlineto
            32 34 -5 25 hhcurveto
            34 21 17 27 7 -1 7 -3 8 hvcurveto
            return
          </CharString>
          <CharString index="41">
            -34 16 -3 23 17 vvcurveto
            3 55 34 158 37 vvcurveto
            72 -35 54 -67 return
          </CharString>
          <CharString index="42">
            rmoveto
            93 61 80 97 73 -41 43 -72 -92 -63 -78 -98 return
          </CharString>
          <CharString index="43">
            -20 -35 callsubr
            return
          </CharString>
          <CharString index="44">
            vvcurveto
            -42 12 -48 47 19 26 9 46 30 vhcurveto
            -17 16 -7 17 28 vvcurveto
            34 10 51 15 86 vhcurveto
            -30 33 38 -14 38 hhcurveto
            109 112 123 185 141 -61 45 -73 -51 return
          </CharString>
          <CharString index="45">
            14 -17 18 -33 10 vhcurveto
            -30 -23 -29 -36 -43 -69 -51 76 -111 hhcurveto
            -73 -75 -56 -44 -14 18 -18 32 -9 hvcurveto
            29 23 30 36 43 55 68 -76 107 hhcurveto
            75 73 58 42 hvcurveto
            return
          </CharString>
          <CharString index="46">
            -65 callsubr
            -72 41 -45 73 hvcurveto
            30 234 rmoveto
            return
          </CharString>
          <CharString index="47">
            -159 -68 -153 -136 return
          </CharString>
          <CharString index="48">
            -52 -29 -40 -18 -30 hhcurveto
            -46 -37 40 99 113 44 105 72 return
          </CharString>
          <CharString index="49">
            vvcurveto
            -30 22 -8 24 8 22 0 3 16 vhcurveto
            -4 36 -4 37 119 vvcurveto
            40 vlineto
            56 7 95 20 vvcurveto
            30 -22 8 -24 -8 -22 0 -3 -16 vhcurveto
            7 -46 1 return
          </CharString>
          <CharString index="50">
            -70 callgsubr
            -67 return
          </CharString>
          <CharString index="51">
            37 -69 59 -49 38 vhcurveto
            return
          </CharString>
          <CharString index="52">
            -2 -7 -80 hvcurveto
            1 -7 0 -9 -9 return
          </CharString>
          <CharString index="53">
            14 -6 16 -9 13 vhcurveto
            -22 -47 -68 -2 -62 hhcurveto
            -51 hlineto
            167 87 81 110 82 vvcurveto
            63 -51 43 -80 -82 -86 -59 -40 -16 15 -11 26 -2 vhcurveto
            return
          </CharString>
          <CharString index="54">
            161 423 rmoveto
            2 27 8 0 7 hhcurveto
            57 20 -28 -35 -58 -37 -36 -52 -28 -29 14 30 -22 hvcurveto
            -32 -11 -23 -16 -19 vvcurveto
            -41 61 -21 63 return
          </CharString>
          <CharString index="55">
            -69 callgsubr
            endchar
          </CharString>
          <CharString index="56">
            68 2 14 42 23 vvcurveto
            -49 callsubr
            return
          </CharString>
          <CharString index="57">
            hvcurveto
            178 28 109 176 204 vvcurveto
            169 -92 103 -156 -200 -133 -182 -229 -151 73 -101 127 -18 vhcurveto
            return
          </CharString>
          <CharString index="58">
            54 -68 16 -55 -42 callsubr
            vhcurveto
            return
          </CharString>
          <CharString index="59">
            rmoveto
            90 39 35 39 29 hhcurveto
            37 27 -33 -87 -151 -61 -81 -62 -24 -27 15 30 -23 hvcurveto
            2 11 22 122 6 45 rrcurveto
            return
          </CharString>
          <CharString index="60">
            -20 hstemhm
            50 32 callsubr
            98 112 -63 -23 callgsubr
            return
          </CharString>
          <CharString index="61">
            129 44 129 return
          </CharString>
          <CharString index="62">
            -27 12 -10 21 23 32 55 214 67 vvcurveto
            44 -30 19 -32 return
          </CharString>
          <CharString index="63">
            42 callgsubr
            -72 callgsubr
            hvcurveto
            return
          </CharString>
          <CharString index="64">
            27 123 200 124 return
          </CharString>
          <CharString index="65">
            -146 -56 -107 -134 -13 return
          </CharString>
          <CharString index="66">
            84 -47 51 -80 -103 -68 -90 -113 -83 47 -53 81 vhcurveto
            return
          </CharString>
          <CharString index="67">
            -63 36 -27 36 33 34 23 39 6 vhcurveto
            return
          </CharString>
          <CharString index="68">
            -3 78 240 79 191 80 return
          </CharString>
          <CharString index="69">
            vvcurveto
            33 -17 31 -45 return
          </CharString>
          <CharString index="70">
            -16 -18 -1 -2 return
          </CharString>
          <CharString index="71">
            2 16 21 2 13 hhcurveto
            113 66 -71 -146 -125 -48 -187 -154 -35 -34 8 28 -28 hvcurveto
            return
          </CharString>
          <CharString index="72">
            hstemhm
            hintmask 00000000
            return
          </CharString>
          <CharString index="73">
            rmoveto
            37 23 40 27 29 hhcurveto
            45 29 -22 -35 -70 -90 -102 -167 -87 hvcurveto
            -3 -11 -2 -13 -10 vvcurveto
            return
          </CharString>
          <CharString index="74">
            -33 23 -4 15 vhcurveto
            -2 54 12 0 69 hhcurveto
            57 65 3 9 27 hvcurveto
            20 6 7 15 16 vvcurveto
            return
          </CharString>
          <CharString index="75">
            -23 10 -10 28 -2 vhcurveto
            -2 callsubr
            return
          </CharString>
          <CharString index="76">
            vvcurveto
            -17 14 -5 22 vhcurveto
            0 10 0 return
          </CharString>
          <CharString index="77">
            -10 66 362 66 return
          </CharString>
          <CharString index="78">
            -3 -39 -29 -2 -82 hhcurveto
            4 23 8 39 12 vvcurveto
            return
          </CharString>
          <CharString index="79">
            -61 -17 callgsubr
            return
          </CharString>
          <CharString index="80">
            hlineto
            24 18 12 28 4 0 6 -2 10 hvcurveto
            -5 return
          </CharString>
          <CharString index="81">
            70 -85 6 -76 -111 -129 -56 -185 -11 return
          </CharString>
          <CharString index="82">
            -27 -68 -44 -30 -12 44 45 return
          </CharString>
          <CharString index="83">
            32 44 214 67 vvcurveto
            return
          </CharString>
          <CharString index="84">
            -11 -185 -24 return
          </CharString>
          <CharString index="85">
            531 rmoveto
            -99 callsubr
            return
          </CharString>
          <CharString index="86">
            -3 -8 -1 -10 -8 vvcurveto
            -15 6 -12 17 88 63 124 75 55 -30 20 -30 vhcurveto
            return
          </CharString>
          <CharString index="87">
            vhcurveto
            -21 25 36 -11 37 hhcurveto
            101 112 89 169 142 -112 38 -119 return
          </CharString>
          <CharString index="88">
            rmoveto
            -93 callsubr
            endchar
          </CharString>
          <CharString index="89">
            -16 callgsubr
            -7 0 -8 5 -24 hvcurveto
            return
          </CharString>
          <CharString index="90">
            rmoveto
            -73 -47 -123 -89 vvcurveto
            -42 18 -49 54 return
          </CharString>
          <CharString index="91">
            18 -21 669 -20 return
          </CharString>
          <CharString index="92">
            -100 -21 vvcurveto
            -28 15 -14 41 17 32 3 5 15 vhcurveto
            44 callsubr
            19 19 vvcurveto
            return
          </CharString>
          <CharString index="93">
            -11 callsubr
            vvcurveto
            return
          </CharString>
          <CharString index="94">
            -63 callgsubr
            -68 callgsubr
            return
          </CharString>
          <CharString index="95">
            21 -7 21 -16 16 vhcurveto
            -10 -19 -20 -3 -32 -95 -129 27 -67 hhcurveto
            endchar
          </CharString>
          <CharString index="96">
            422 2 callsubr
            return
          </CharString>
          <CharString index="97">
            109 521 rmoveto
            -158 -33 -38 -134 vvcurveto
            -74 18 -69 44 -47 vhcurveto
            return
          </CharString>
          <CharString index="98">
            -48 callgsubr
            -68 16 -55 return
          </CharString>
          <CharString index="99">
            20 callsubr
            0 callsubr
            return
          </CharString>
          <CharString index="100">
            hintmask 00000000
            hintmask 11011000
            return
          </CharString>
          <CharString index="101">
            124 145 124 return
          </CharString>
          <CharString index="102">
            -25 10 -12 21 26 vvcurveto
            return
          </CharString>
          <CharString index="103">
            73 -29 42 callsubr
            return
          </CharString>
          <CharString index="104">
            206 472 rmoveto
            84 5 18 86 41 hhcurveto
            16 24 -10 -55 12 hvcurveto
            return
          </CharString>
          <CharString index="105">
            -1 14 89 -1 44 hhcurveto
            110 51 1 42 21 -8 24 -5 14 hvcurveto
            return
          </CharString>
          <CharString index="106">
            -39 callgsubr
            endchar
          </CharString>
          <CharString index="107">
            vhcurveto
            -3 20 -1 20 21 vvcurveto
            return
          </CharString>
          <CharString index="108">
            -20 hstemhm
            69 32 callsubr
            140 -23 callgsubr
            hintmask 11110100
            return
          </CharString>
          <CharString index="109">
            rmoveto
            46 -32 16 -30 -50 -26 -39 -28 -2 vhcurveto
            15 -10 12 -9 -24 return
          </CharString>
          <CharString index="110">
            68 374 rmoveto
            -114 -20 -28 -97 vvcurveto
            -53 9 -50 33 -34 vhcurveto
            return
          </CharString>
          <CharString index="111">
            hhcurveto
            -44 callsubr
            return
          </CharString>
          <CharString index="112">
            hintmask 00000000
            hintmask 11010000
            return
          </CharString>
          <CharString index="113">
            -1 18 19 vvcurveto
            return
          </CharString>
          <CharString index="114">
            80 104 131 143 42 47 rrcurveto
            12 14 5 19 17 vvcurveto
            return
          </CharString>
          <CharString index="115">
            9 -2 12 -7 15 hvcurveto
            -61 -18 -38 -8 -40 -2 12 61 12 return
          </CharString>
          <CharString index="116">
            69 75 -18 50 hhcurveto
            52 28 15 35 14 -2 12 -6 12 hvcurveto
            return
          </CharString>
          <CharString index="117">
            -14 13 -13 33 66 83 46 68 vhcurveto
            60 -69 15 15 vvcurveto
            return
          </CharString>
          <CharString index="118">
            500 1 rmoveto
            6 116 20 125 19 162 rrcurveto
            return
          </CharString>
          <CharString index="119">
            -28 callgsubr
            endchar
          </CharString>
          <CharString index="120">
            34 18 -21 670 -20 25 -20 return
          </CharString>
          <CharString index="121">
            hstemhm
            5 140 -97 97 102 96 return
          </CharString>
          <CharString index="122">
            0 18 callgsubr
            return
          </CharString>
          <CharString index="123">
            -43 -33 -31 -36 -2 return
          </CharString>
          <CharString index="124">
            -110 -21 121 return
          </CharString>
          <CharString index="125">
            rcurveline
            13 11 6 12 12 vvcurveto
            18 -11 16 -16 10 vhcurveto
            return
          </CharString>
          <CharString index="126">
            28 -6 10 -19 -23 vvcurveto
            -37 -36 -41 -40 vhcurveto
            -4 hlineto
            return
          </CharString>
          <CharString index="127">
            3 5 22 return
          </CharString>
          <CharString index="128">
            -14 -22 -82 -10 -64 hhcurveto
            -17 -20 1 1 -13 hvcurveto
            return
          </CharString>
          <CharString index="129">
            hhcurveto
            -22 -16 -12 -23 -5 0 -7 1 -8 hvcurveto
            2 return
          </CharString>
          <CharString index="130">
            -12 -11 -7 -10 -13 vvcurveto
            -17 12 -17 15 -11 vhcurveto
            return
          </CharString>
          <CharString index="131">
            -41 -3 -32 -26 -40 vvcurveto
            -9 2 -8 3 -9 vhcurveto
            return
          </CharString>
          <CharString index="132">
            108 -72 109 hintmask 00000000
            return
          </CharString>
          <CharString index="133">
            64 -230 66 154 77 return
          </CharString>
          <CharString index="134">
            vhcurveto
            hintmask 11101000
            return
          </CharString>
          <CharString index="135">
            11 -21 494 -20 hstemhm
            48 112 -92 92 return
          </CharString>
          <CharString index="136">
            44 -30 19 -32 -13 -13 -3 -6 -11 vhcurveto
            -2 return
          </CharString>
          <CharString index="137">
            339 337 rmoveto
            65 2 17 39 25 vvcurveto
            return
          </CharString>
          <CharString index="138">
            -397 -299 rmoveto
            37 56 51 75 52 71 return
          </CharString>
          <CharString index="139">
            109 -71 113 return
          </CharString>
          <CharString index="140">
            -232 -21 243 return
          </CharString>
          <CharString index="141">
            195 -142 142 -86 86 hintmask 00000000
            return
          </CharString>
          <CharString index="142">
            78 -54 callgsubr
            return
          </CharString>
          <CharString index="143">
            11 -21 684 -20 hstemhm
            76 104 -71 71 return
          </CharString>
          <CharString index="144">
            823 rmoveto
            -70 callsubr
            return
          </CharString>
          <CharString index="145">
            66 vvcurveto
            12 -2 13 -3 13 vhcurveto
            -17 -8 return
          </CharString>
          <CharString index="146">
            hintmask 00000000
            hintmask 11110000
            return
          </CharString>
          <CharString index="147">
            -14 vvcurveto
            -39 23 -13 36 return
          </CharString>
          <CharString index="148">
            hhcurveto
            hintmask 10000000
            return
          </CharString>
          <CharString index="149">
            73 1 -20 hstemhm
            return
          </CharString>
          <CharString index="150">
            hstemhm
            27 123 return
          </CharString>
          <CharString index="151">
            -3 18 -1 return
          </CharString>
        <CharString name=".notdef">
          -204 endchar
        </CharString>
        <CharString name="A">
          -38 callgsubr
          389 -20 hstem
          -92 callgsubr
          endchar
        </CharString>
        <CharString name="AE">
          304 -10 85 134 72 34 79 191 80 hstem
          311 281 rmoveto
          -30 -30 1 1 -28 hvcurveto
          64 103 53 95 43 70 -7 -78 -13 -100 -13 -92 rrcurveto
          381 283 -70 callgsubr
          -89 -77 -3 -8 -76 hvcurveto
          -40 -74 -88 -144 -94 -138 -62 -91 -50 -71 -52 -72 rrcurveto
          -7 -10 -3 -10 -8 vvcurveto
          -28 37 -16 41 -2 vhcurveto
          26 56 55 85 48 78 rrcurveto
          -1 44 30 -1 32 hhcurveto
          68 hlineto
          -11 -81 -8 -66 -26 vvcurveto
          -23 10 -10 28 -2 vhcurveto
          -106 callgsubr
        </CharString>
        <CharString name="Aacute">
          -38 callgsubr
          625 -20 hstem
          426 801 -74 callgsubr
          -107 callsubr
          -73 -526 -107 callgsubr
          endchar
        </CharString>
        <CharString name="Acircumflex">
          -38 callgsubr
          618 -20 hstem
          467 758 rmoveto
          -56 callsubr
          -105 callgsubr
          -114 -483 -107 callgsubr
          endchar
        </CharString>
        <CharString name="Adieresis">
          -38 callgsubr
          447 139 hstem
          172 -46 callsubr
          vstem
          -92 callgsubr
          132 522 -105 callsubr
        </CharString>
        <CharString name="Agrave">
          -38 callgsubr
          646 -20 hstem
          201 37 callsubr
          -103 callgsubr
          152 -548 -107 callgsubr
          endchar
        </CharString>
        <CharString name="Aring">
          -38 callgsubr
          436 48 94 48 hstem
          242 57 75 58 vstem
          344 852 -83 callgsubr
          29 -435 -107 callgsubr
          endchar
        </CharString>
        <CharString name="Atilde">
          -38 callgsubr
          446 117 hstem
          -92 callgsubr
          223 611 -98 callgsubr
          endchar
        </CharString>
        <CharString name="B">
          91 -10 69 264 66 207 77 hstemhm
          368 115 -98 98 -98 115 39 callsubr
          279 596 rmoveto
          hintmask 11100100
          51 55 -15 -72 -94 -66 -26 -74 -12 -12 1 1 -11 hvcurveto
          19 153 -1 10 4 38 rrcurveto
          2 15 16 2 16 hhcurveto
          -34 -537 rmoveto
          -31 -38 17 19 -16 hvcurveto
          12 57 16 78 12 88 rrcurveto
          4 16 27 1 22 hhcurveto
          55 48 -36 -77 -94 -58 -57 -65 hvcurveto
          -197 -3 rmoveto
          -51 49 81 -15 73 hhcurveto
          122 110 89 148 67 -24 36 -66 32 hvcurveto
          hintmask 11110000
          76 32 31 62 74 vvcurveto
          110 -103 33 -113 -31 -57 -1 -12 -68 27 callsubr
          -61 -10 -104 -14 -108 vhcurveto
          -16 -128 -22 -133 -18 -70 rrcurveto
          endchar
        </CharString>
        <CharString name="C">
          101 40 callgsubr
          46 116 vstem
          -53 callgsubr
          -27 callgsubr
          -166 92 -108 153 108 89 47 50 31 -32 20 -33 12 vhcurveto
          endchar
        </CharString>
        <CharString name="Ccedilla">
          101 -244 60 175 76 529 77 hstemhm
          46 116 9 34 callsubr
          hintmask 11110100
          -53 callgsubr
          hintmask 11110010
          -27 callgsubr
          -148 73 -103 125 -19 vhcurveto
          hintmask 11111000
          -12 -21 -8 -21 -29 callgsubr
          10 callsubr
          8 5 12 5 11 vhcurveto
          101 4 80 44 48 vvcurveto
          31 -32 20 -33 12 vhcurveto
          endchar
        </CharString>
        <CharString name="D">
          164 40 callgsubr
          463 117 vstem
          48 53 -45 callgsubr
          -4 -183 -40 -263 -36 -162 rrcurveto
          186 539 rmoveto
          -36 callsubr
          31 149 26 183 13 157 rrcurveto
          endchar
        </CharString>
        <CharString name="Delta">
          245 0 80 564 -20 hstem
          348 527 rmoveto
          115 -440 rlineto
          -5 -41 -53 -2 -87 hhcurveto
          -97 -41 2 5 -37 hvcurveto
          432 -87 rmoveto
          34 10 22 26 4 hvcurveto
          -14 48 -127 459 -23 85 rrcurveto
          3 -9 -16 1 -11 hhcurveto
          -21 -26 -6 -20 -10 hvcurveto
          -98 -191 -106 -188 -106 -192 rrcurveto
          -1 -5 0 -4 -4 vvcurveto
          -21 10 -13 25 vhcurveto
          endchar
        </CharString>
        <CharString name="E">
          36 -39 callsubr
          hstem
          -94 callsubr
          endchar
        </CharString>
        <CharString name="Eacute">
          41 -39 callsubr
          234 -20 hstem
          435 801 -74 callgsubr
          -107 callsubr
          33 -237 -57 callsubr
          -63 -2 -7 -80 hvcurveto
          1 -7 0 -9 -9 -145 -67 -378 -74 vvcurveto
          -23 10 -10 28 -2 vhcurveto
          -106 callgsubr
        </CharString>
        <CharString name="Ecircumflex">
          41 -39 callsubr
          0 56 171 -20 hstemhm
          -6 callgsubr
          457 758 rmoveto
          -56 callsubr
          -105 callgsubr
          11 -194 -78 callgsubr
          hintmask 11011000
          -46 callgsubr
          -67 -63 -2 -7 -80 hvcurveto
          1 -7 0 -9 -9 -145 -67 -378 -74 vvcurveto
          -23 10 -10 28 -2 vhcurveto
          -106 callgsubr
        </CharString>
        <CharString name="Edieresis">
          36 -39 callsubr
          56 139 hstem
          180 -46 callsubr
          vstem
          -94 callsubr
          -54 157 -105 callsubr
        </CharString>
        <CharString name="Egrave">
          41 -39 callsubr
          255 -20 hstem
          197 37 callsubr
          -103 callgsubr
          271 -259 -57 callsubr
          -63 -2 -7 -80 hvcurveto
          1 -7 0 -9 -9 -145 -67 -378 -74 vvcurveto
          -23 10 -10 28 -2 vhcurveto
          -106 callgsubr
        </CharString>
        <CharString name="Eth">
          188 -10 77 248 79 202 77 hstem
          487 117 vstem
          239 315 rmoveto
          68 14 0 1 21 hvcurveto
          32 2 13 20 33 vvcurveto
          9 -1 9 -1 9 vhcurveto
          -4 -31 -20 0 -98 hhcurveto
          9 67 8 68 5 63 rrcurveto
          -36 callsubr
          13 65 13 73 11 74 rrcurveto
          -153 -262 -45 callgsubr
          -2 -79 -8 -94 -12 -94 rrcurveto
          -12 -25 0 -1 -10 hvcurveto
          -33 -3 -12 -19 -33 vvcurveto
          -9 1 -9 1 -9 vhcurveto
          3 20 19 1 40 hhcurveto
          -14 -97 -17 -93 -16 -72 rrcurveto
          endchar
        </CharString>
        <CharString name="Euro">
          -9 72 184 54 54 54 194 71 hstem
          232 409 rmoveto
          135 38 86 59 61 hhcurveto
          42 24 -16 -24 25 hvcurveto
          23 14 23 22 26 vvcurveto
          38 -66 11 -59 -118 -135 -72 -193 -49 vhcurveto
          -24 hlineto
          -28 -15 -11 -32 -5 0 -7 3 -6 hvcurveto
          18 4 18 2 16 1 -5 -18 -2 -19 -1 -17 rrcurveto
          -19 hlineto
          -25 -17 -12 -28 -6 0 -9 3 -5 hvcurveto
          20 2 18 3 19 1 rrcurveto
          -189 4 117 -67 116 hhcurveto
          38 100 4 57 17 -9 20 -19 14 hvcurveto
          -24 -30 -29 -16 -43 hhcurveto
          -58 -70 62 122 -12 hvcurveto
          205 hlineto
          31 12 18 25 5 -1 6 -1 6 hvcurveto
          -5 -48 -50 -1 -52 hhcurveto
          -96 hlineto
          2 17 1 16 4 21 rrcurveto
          213 -27 callsubr
          -47 -50 -1 -52 hhcurveto
          endchar
        </CharString>
        <CharString name="Eurooldstyle">
          -10 72 150 54 44 54 148 71 hstem
          113 266 rmoveto
          -25 hlineto
          -25 -18 -10 -30 -6 1 -7 1 -8 hvcurveto
          22 3 19 3 22 1 rrcurveto
          -161 7 110 -61 115 hhcurveto
          37 105 4 56 17 -10 20 -21 15 hvcurveto
          -24 -31 -29 -16 -43 hhcurveto
          -58 -65 47 103 -11 hvcurveto
          196 -27 callsubr
          -47 -50 -1 -105 hhcurveto
          -35 hlineto
          6 44 rlineto
          204 -27 callsubr
          -46 -51 -1 -51 hhcurveto
          -79 hlineto
          102 37 73 46 59 hhcurveto
          44 24 -16 -25 24 hvcurveto
          21 14 21 21 27 vvcurveto
          39 -65 11 -59 -114 -123 -64 -155 -48 vhcurveto
          -32 hlineto
          -28 -16 -15 -27 -6 1 -6 2 -7 hvcurveto
          27 4 11 2 21 1 rrcurveto
          endchar
        </CharString>
        <CharString name="F">
          14 18 -21 318 79 191 80 hstem
          57 115 vstem
          231 582 rmoveto
          2 32 25 -69 callgsubr
          13 16 9 20 22 vvcurveto
          9 -2 10 -3 9 vhcurveto
          -46 callgsubr
          -67 -63 -55 callsubr
          -133 -67 -409 -40 vvcurveto
          -39 23 -13 36 18 20 -8 callsubr
          64 13 79 13 106 vhcurveto
          92 16 0 1 22 hvcurveto
          33 2 9 21 31 vvcurveto
          9 -1 12 -1 7 vhcurveto
          -4 -30 -20 0 -109 hhcurveto
          14 98 7 66 1 24 rrcurveto
          endchar
        </CharString>
        <CharString name="G">
          132 40 callgsubr
          46 116 254 111 vstem
          416 317 rmoveto
          -4 -55 -8 -83 -8 -72 rrcurveto
          -26 -26 -36 -14 -34 hhcurveto
          -94 -44 98 125 154 77 152 119 45 48 -29 -68 13 hvcurveto
          49 6 37 27 42 vvcurveto
          -27 callgsubr
          -166 92 -108 153 108 88 41 54 10 vhcurveto
          11 95 19 78 15 vvcurveto
          36 -29 11 -31 -13 -13 0 -3 -25 vhcurveto
          endchar
        </CharString>
        <CharString name="H">
          179 18 -21 324 75 270 -20 hstem
          57 115 239 115 vstem
          484 663 rmoveto
          -3 -72 -13 -107 -11 -86 rrcurveto
          -1 -34 -42 -1 -36 hhcurveto
          -43 -43 1 1 -50 hvcurveto
          18 140 16 72 -28 callgsubr
          -102 callgsubr
          15 120 rlineto
          -1 36 56 -1 47 hhcurveto
          34 37 0 2 38 hvcurveto
          -24 -189 -12 -71 -14 -97 callsubr
          26 201 rlineto
          17 134 16 72 12 callsubr
        </CharString>
        <CharString name="I">
          -175 -16 callsubr
          hstem
          57 115 vstem
          130 663 rmoveto
          -102 callgsubr
          26 201 rlineto
          17 134 16 72 12 callsubr
        </CharString>
        <CharString name="Iacute">
          -175 -16 callsubr
          253 -20 hstem
          57 115 vstem
          302 801 -74 callgsubr
          -107 callsubr
          -172 -138 rmoveto
          -102 callgsubr
          26 201 rlineto
          17 134 16 72 12 callsubr
        </CharString>
        <CharString name="Icircumflex">
          -175 -16 callsubr
          246 -20 hstem
          57 115 vstem
          334 758 rmoveto
          -56 callsubr
          -105 callgsubr
          -204 -95 rmoveto
          -102 callgsubr
          26 201 rlineto
          17 134 16 72 12 callsubr
        </CharString>
        <CharString name="Idieresis">
          -175 -16 callsubr
          75 21 callgsubr
          56 116 -116 -46 callsubr
          hintmask 00000000
          hintmask 11101100
          130 663 rmoveto
          -102 callgsubr
          26 201 rlineto
          17 134 16 72 -28 callgsubr
          hintmask 11110100
          155 58 -105 callsubr
        </CharString>
        <CharString name="Igrave">
          -168 -16 callsubr
          274 -20 hstemhm
          57 115 -42 113 -6 callgsubr
          67 37 callsubr
          11 10 8 16 16 vvcurveto
          13 -6 12 -13 9 vhcurveto
          hintmask 11110000
          -25 18 -85 66 -36 46 rrcurveto
          -89 callgsubr
          63 -160 rmoveto
          -102 callgsubr
          26 201 rlineto
          17 134 16 72 13 vvcurveto
          hintmask 11101000
          -73 callsubr
          endchar
        </CharString>
        <CharString name="J">
          -107 -98 -21 785 -20 hstem
          198 113 vstem
          39 -119 rmoveto
          35 132 40 193 27 hvcurveto
          43 307 rlineto
          15 105 20 74 25 vvcurveto
          33 -25 8 -36 -37 callsubr
          -18 vhcurveto
          -4 -64 -9 -79 -12 -84 -40 -288 rcurveline
          -17 -122 -11 -56 -102 -10 rrcurveto
          -3 -12 0 -10 -10 vvcurveto
          -25 10 -22 29 vhcurveto
          endchar
        </CharString>
        <CharString name="J_alt">
          -47 -112 76 703 -20 hstem
          184 95 rmoveto
          -98 -14 -41 -33 -40 hhcurveto
          -39 -31 17 32 -21 hvcurveto
          -33 -21 -22 -21 -26 vvcurveto
          -33 56 -24 65 121 88 85 131 19 vhcurveto
          2 14 23 171 19 132 rrcurveto
          16 114 19 74 17 vvcurveto
          32 -26 9 -35 -16 -18 -2 -2 -18 vhcurveto
          -5 -64 -8 -79 -12 -84 rrcurveto
          endchar
        </CharString>
        <CharString name="K">
          93 11 -21 676 -20 22 -20 hstemhm
          57 6 callgsubr
          hintmask 10110000
          130 663 rmoveto
          hintmask 11010000
          -102 callgsubr
          10 75 24 20 37 -78 68 -123 37 -50 rlinecurve
          -44 33 32 -13 31 hhcurveto
          30 41 12 40 9 0 7 -4 16 hvcurveto
          -2 -4 -20 -1 -3 hhcurveto
          -17 -14 2 11 -13 hvcurveto
          -42 41 -81 169 -31 69 rrcurveto
          106 92 114 116 45 vvcurveto
          28 -20 23 -62 1 vhcurveto
          -20 -62 -40 -71 -166 -133 rrcurveto
          18 137 15 71 12 callsubr
        </CharString>
        <CharString name="L">
          -31 -3 78 591 -20 hstemhm
          57 115 -42 115 5 callgsubr
          390 10 callgsubr
          10 191 63 328 37 vvcurveto
          hintmask 11010000
          -8 callgsubr
          -125 -73 -424 -80 vvcurveto
          hintmask 11100000
          -35 callgsubr
        </CharString>
        <CharString name="Lslash">
          -30 -3 78 591 -20 hstem
          58 115 vstem
          391 10 callgsubr
          4 73 11 93 13 89 120 83 18 callsubr
          -28 -22 -33 -27 -38 -28 rrcurveto
          16 108 16 90 18 vvcurveto
          -8 callgsubr
          -62 -18 -136 -18 -131 vhcurveto
          -112 -79 rlineto
          23 callsubr
          33 28 26 18 32 24 rrcurveto
          -13 -97 -11 -84 -31 vvcurveto
          -35 callgsubr
        </CharString>
        <CharString name="M">
          342 18 -21 22 -21 669 -20 hstemhm
          57 101 391 117 hintmask 00000000
          hintmask 10111000
          713 436 rmoveto
          12 85 11 78 24 60 rrcurveto
          5 -14 -41 3 -7 hhcurveto
          hintmask 01111000
          -36 -35 -12 -36 -24 hvcurveto
          -98 -150 -75 -156 -53 -136 -28 154 -22 145 -55 143 rrcurveto
          32 -12 -27 16 -34 hhcurveto
          hintmask 10111000
          -20 -28 -3 -5 -23 hvcurveto
          2 -15 1 -16 -18 vvcurveto
          -39 -4 -45 -6 -43 vhcurveto
          -36 -252 rlineto
          -11 -75 -17 -104 -20 vvcurveto
          -23 9 -12 33 20 28 -40 callgsubr
          59 24 171 27 188 vhcurveto
          39 -162 20 -173 34 -118 rrcurveto
          -21 6 29 -5 23 hhcurveto
          14 21 2 2 7 hvcurveto
          47 117 81 191 81 159 rrcurveto
          -29 -224 -33 -198 -12 vvcurveto
          -26 15 -12 40 17 34 -40 callgsubr
          48 7 50 7 46 vhcurveto
          endchar
        </CharString>
        <CharString name="N">
          162 -16 callsubr
          21 -20 hstemhm
          57 102 321 100 -7 callsubr
          11 callsubr
          -71 callsubr
          hintmask 10111000
          -1 -87 -17 -95 -23 -191 rrcurveto
          -9 -74 -17 -101 -21 vvcurveto
          -26 12 -12 44 21 14 -40 callgsubr
          -47 callgsubr
          endchar
        </CharString>
        <CharString name="Ntilde">
          162 -16 callsubr
          21 -20 73 -4 callsubr
          57 102 321 100 hintmask 00000000
          hintmask 11010111
          11 callsubr
          hintmask 11001011
          -71 callsubr
          -1 -87 -17 -95 -23 -191 rrcurveto
          hintmask 11010111
          -9 -74 -17 -101 -21 vvcurveto
          -26 12 -12 44 21 14 -40 callgsubr
          hintmask 10110111
          -47 callgsubr
          22 809 -98 callgsubr
          endchar
        </CharString>
        <CharString name="O">
          211 -10 76 530 35 callsubr
          290 -10 rmoveto
          -101 callgsubr
          -57 callgsubr
          hvcurveto
          endchar
        </CharString>
        <CharString name="OE">
          421 -10 85 240 79 271 -20 hstemhm
          46 116 39 callsubr
          162 291 rmoveto
          189 84 115 136 33 47 -5 -17 39 vhcurveto
          -8 -132 -40 -242 -12 -112 rrcurveto
          -13 -44 -46 -7 -34 hhcurveto
          -102 -53 68 156 hvcurveto
          686 273 -57 callsubr
          -62 -5 -7 -80 hvcurveto
          9 -31 -49 11 -32 hhcurveto
          -201 -145 -157 -252 -202 118 -72 144 37 50 9 14 46 hvcurveto
          6 -8 10 -5 18 -1 rrcurveto
          -106 callgsubr
        </CharString>
        <CharString name="Oacute">
          -42 callgsubr
          225 -20 -54 callgsubr
          502 801 -74 callgsubr
          -107 callsubr
          -212 -811 rmoveto
          -101 callgsubr
          -57 callgsubr
          hvcurveto
          endchar
        </CharString>
        <CharString name="Ocircumflex">
          -42 callgsubr
          15 callsubr
          46 116 347 118 hintmask 00000000
          hintmask 11011100
          523 758 rmoveto
          -56 callsubr
          -105 callgsubr
          -233 -768 rmoveto
          -101 callgsubr
          -60 callsubr
          hvcurveto
          hintmask 10111100
          -84 callsubr
          hvcurveto
          endchar
        </CharString>
        <CharString name="Odieresis">
          -42 callgsubr
          47 21 callgsubr
          46 116 85 -46 callsubr
          -40 118 hintmask 00000000
          hintmask 11111100
          290 -10 rmoveto
          -101 callgsubr
          -57 callgsubr
          hvcurveto
          111 125 -62 callgsubr
        </CharString>
        <CharString name="Ograve">
          -42 callgsubr
          246 -20 -54 callgsubr
          250 37 callsubr
          -103 callgsubr
          40 -833 rmoveto
          -101 callgsubr
          -57 callgsubr
          hvcurveto
          endchar
        </CharString>
        <CharString name="Omega">
          433 0 73 -73 174 435 68 hstemhm
          131 111 413 115 -115 146 hintmask 00000000
          hintmask 10110100
          479 609 rmoveto
          117 59 -78 -120 -130 -61 -110 -128 -72 hvcurveto
          -6 -16 -4 -17 -14 vvcurveto
          -28 14 -24 52 vhcurveto
          231 hlineto
          10 33 38 101 19 vvcurveto
          hintmask 01111000
          15 -13 6 -18 -5 -4 0 -4 -12 vhcurveto
          -21 -35 -25 -41 -19 -21 rrcurveto
          -139 hlineto
          123 71 102 120 155 vvcurveto
          159 -120 99 -164 -190 -165 -156 -200 -112 58 -79 82 -57 vhcurveto
          hintmask 10111000
          -138 hlineto
          -14 25 -14 36 -11 36 rrcurveto
          hintmask 01111000
          4 -11 -4 0 -5 hhcurveto
          -36 0 -18 -25 -30 4 -66 3 -35 hvcurveto
          232 hlineto
          58 16 31 33 6 hvcurveto
          2 10 0 15 9 vvcurveto
          -80 53 -37 73 86 vvcurveto
          152 91 147 146 vhcurveto
          endchar
        </CharString>
        <CharString name="Oslash">
          211 -62 -21 73 76 530 78 70 -20 -54 callgsubr
          509 378 rmoveto
          -60 callsubr
          -28 -24 8 13 -19 vhcurveto
          81 126 108 166 71 109 rrcurveto
          10 -33 5 -38 -39 vvcurveto
          -144 218 rmoveto
          36 29 -13 -21 21 hvcurveto
          -77 -121 -96 -146 -93 -143 rrcurveto
          -16 39 -7 49 50 vvcurveto
          165 74 141 129 vhcurveto
          139 49 rmoveto
          19 -35 -42 10 -48 hhcurveto
          -200 -133 -182 -229 -91 27 -73 49 -47 hvcurveto
          -37 -57 -19 -25 -15 vvcurveto
          -21 25 -15 38 -2 vhcurveto
          20 37 18 28 17 28 rrcurveto
          -13 31 35 -7 40 hhcurveto
          207 130 190 222 82 -22 67 -41 47 hvcurveto
          59 92 4 6 10 vvcurveto
          22 -28 14 -35 2 vhcurveto
          endchar
        </CharString>
        <CharString name="Otilde">
          -42 callgsubr
          46 -4 callsubr
          46 116 347 118 hintmask 00000000
          hintmask 11101110
          290 -10 rmoveto
          hintmask 11010110
          -101 callgsubr
          hvcurveto
          hintmask 11101110
          -57 callgsubr
          vhcurveto
          176 214 -98 callgsubr
          endchar
        </CharString>
        <CharString name="P">
          80 18 -21 238 77 284 38 callgsubr
          267 312 rmoveto
          -24 -22 9 16 -19 hvcurveto
          22 155 6 73 2 27 rrcurveto
          3 17 18 29 callgsubr
          hvcurveto
          -184 -81 rmoveto
          -9 -71 -17 -15 callsubr
          46 6 56 14 104 -20 callsubr
          -38 -68 -5 -7 -41 hvcurveto
          -64 -8 -80 -10 -86 vhcurveto
          endchar
        </CharString>
        <CharString name="Q">
          206 -206 80 722 -59 callgsubr
          295 -639 rmoveto
          -59 -24 -53 -24 -57 hhcurveto
          -82 -78 46 74 -26 -50 callsubr
          -142 38 146 -57 128 hhcurveto
          68 96 27 70 25 -16 28 -46 13 hvcurveto
          endchar
        </CharString>
        <CharString name="Q_alt">
          209 -226 91 731 -59 callgsubr
          205 -691 rmoveto
          -28 -28 -28 -12 -25 hhcurveto
          -73 -57 43 86 -19 -50 callsubr
          -149 30 102 -70 114 hhcurveto
          48 59 18 53 18 -7 20 -22 22 hvcurveto
          endchar
        </CharString>
        <CharString name="R">
          97 11 -21 606 38 callgsubr
          419 97 rmoveto
          -25 35 -39 84 -19 56 rrcurveto
          96 22 72 88 118 vvcurveto
          135 -115 38 -115 -38 -69 -5 -7 -41 vhcurveto
          -64 -8 -85 -10 -81 vhcurveto
          -25 -200 rlineto
          -9 -71 -17 -97 -24 vvcurveto
          -26 13 -16 43 19 30 3 5 15 vhcurveto
          -3 18 6 callsubr
          46 6 48 6 44 vhcurveto
          30 220 10 75 3 35 4 64 rlinecurve
          3 16 23 1 15 hhcurveto
          66 37 -16 -91 -68 -23 -50 -42 -24 hvcurveto
          -10 -18 -27 -7 -21 hhcurveto
          -9 -7 1 3 -6 hvcurveto
          -10 -12 -7 -15 -13 vvcurveto
          -10 5 -9 12 -4 vhcurveto
          33 -93 32 -75 32 -56 rrcurveto
          -46 26 41 -11 33 hhcurveto
          30 49 6 46 10 0 4 -4 18 hvcurveto
          -2 -5 -18 -1 -5 hhcurveto
          -17 -30 6 20 -14 hvcurveto
          endchar
        </CharString>
        <CharString name="S">
          45 -10 78 523 80 hstem
          84 106 150 105 vstem
          404 523 -85 callsubr
        </CharString>
        <CharString name="Scaron">
          45 -10 78 523 80 221 -20 hstem
          84 106 150 105 vstem
          305 805 rmoveto
          0 -57 40 -32 47 vhcurveto
          -91 callgsubr
          99 -282 -85 callsubr
        </CharString>
        <CharString name="T">
          -11 18 -21 588 76 3 -20 hstemhm
          135 116 hintmask 00000000
          hintmask 10110000
          438 590 rmoveto
          34 2 14 14 34 vvcurveto
          7 -1 11 -1 6 vhcurveto
          -3 -34 -72 0 -77 hhcurveto
          -106 hlineto
          -43 -36 0 -1 -25 hvcurveto
          -34 -1 -14 -15 -41 vvcurveto
          -6 0 -5 1 -7 vhcurveto
          3 42 59 1 58 hhcurveto
          -4 -49 -6 -53 -7 -56 rrcurveto
          -34 -271 -17 -104 -17 vvcurveto
          -28 15 -14 43 18 29 3 5 15 0 callsubr
          hintmask 11010000
          46 6 47 6 44 vhcurveto
          26 201 10 83 11 63 7 39 rlinecurve
          37 58 0 1 26 hvcurveto
          endchar
        </CharString>
        <CharString name="Thorn">
          57 17 -21 126 77 284 77 106 -20 hstem
          366 115 vstem
          224 559 rmoveto
          9 59 1 3 12 vvcurveto
          -8 callgsubr
          -43 -10 -78 -10 -88 vhcurveto
          -25 -224 rlineto
          -8 -71 -18 -15 callsubr
          29 4 47 2 18 -20 callsubr
          -5 -13 0 -1 -8 hvcurveto
          -12 -80 rmoveto
          3 17 15 29 callgsubr
          -24 -22 9 16 -19 hvcurveto
          endchar
        </CharString>
        <CharString name="U">
          175 -10 88 588 -52 callgsubr
          hintmask 11101000
          438 290 rmoveto
          -77 callgsubr
          16 112 15 75 8 vvcurveto
          34 -26 8 -36 -15 -18 -1 -2 -18 vhcurveto
          -9 -184 -46 -259 -63 vvcurveto
          -88 45 -79 91 69 81 48 94 57 vhcurveto
          -8 -56 -3 -19 -8 vvcurveto
          hintmask 11011000
          -40 21 -12 35 18 21 3 5 24 vhcurveto
          44 callsubr
          19 19 vvcurveto
          hintmask 11101000
          47 7 49 5 46 vhcurveto
          34 297 25 110 13 vvcurveto
          35 -24 8 -36 -37 callsubr
          -19 vhcurveto
          -1 callsubr
        </CharString>
        <CharString name="Uacute">
          27 callgsubr
          253 -52 callgsubr
          hintmask 11110100
          500 801 -74 callgsubr
          hintmask 11101100
          -107 callsubr
          -62 -511 rmoveto
          -77 callgsubr
          -104 callsubr
          hintmask 11110100
          -1 callsubr
        </CharString>
        <CharString name="Ucircumflex">
          -5 callgsubr
          55 171 -52 callgsubr
          hintmask 11110100
          518 758 rmoveto
          -56 callsubr
          hintmask 11101100
          -105 callgsubr
          -80 -468 rmoveto
          -77 callgsubr
          -104 callsubr
          hintmask 11110100
          -1 callsubr
        </CharString>
        <CharString name="Udieresis">
          27 callgsubr
          75 21 callgsubr
          75 107 -52 113 -3 129 44 109 -109 129 hintmask 00000000
          hintmask 11110101
          438 290 rmoveto
          hintmask 11101010
          -77 callgsubr
          hintmask 11110110
          -104 callsubr
          -39 callgsubr
          31 431 -105 callsubr
        </CharString>
        <CharString name="Ugrave">
          27 callgsubr
          274 -52 callgsubr
          hintmask 11110100
          248 37 callsubr
          hintmask 11101100
          -103 callgsubr
          190 -533 rmoveto
          -77 callgsubr
          -104 callsubr
          hintmask 11110100
          -1 callsubr
        </CharString>
        <CharString name="V">
          132 36 callsubr
          271 125 -7 callsubr
          -10 callsubr
          hintmask 11101000
          -7 20 23 -4 23 hhcurveto
          224 148 425 179 56 -27 24 -39 -21 -27 -7 -14 -28 hvcurveto
          14 callgsubr
          -109 -270 -131 -12 callgsubr
          hintmask 11011000
          12 callgsubr
        </CharString>
        <CharString name="W">
          447 36 callsubr
          261 58 -58 125 200 125 hintmask 00000000
          hintmask 11011010
          -10 callsubr
          hintmask 11101010
          -7 20 22 -4 22 hhcurveto
          79 69 55 79 56 hvcurveto
          8 -48 18 -43 31 -32 rrcurveto
          -7 20 22 -4 22 hhcurveto
          219 145 425 179 56 -27 24 -39 hvcurveto
          hintmask 11010110
          -21 -27 -7 -14 -28 hvcurveto
          14 callgsubr
          -105 -270 -125 -45 vhcurveto
          -27 33 -10 66 77 vvcurveto
          25 1 26 2 26 vhcurveto
          41 106 23 110 71 vvcurveto
          56 -27 24 -39 -21 -27 -7 -14 -28 vhcurveto
          14 callgsubr
          -105 -270 -125 -12 callgsubr
          hintmask 11011010
          12 callgsubr
        </CharString>
        <CharString name="X">
          99 11 -21 684 -20 hstem
          240 348 rmoveto
          -73 -78 -161 -157 -59 vvcurveto
          -42 55 -14 38 -8 vhcurveto
          22 66 85 122 65 90 rrcurveto
          -117 46 55 -161 59 hhcurveto
          10 9 1 5 10 hvcurveto
          22 11 22 23 21 32 -89 62 -41 125 -41 99 rrcurveto
          91 98 103 117 43 vvcurveto
          45 -59 15 -36 8 vhcurveto
          -14 -49 -56 -93 -61 -100 rrcurveto
          107 -41 -55 135 -51 hhcurveto
          -10 -9 -1 -5 -10 hvcurveto
          -22 -11 -22 -23 -21 -32 71 -53 18 -41 70 -160 rrcurveto
          endchar
        </CharString>
        <CharString name="Y">
          13 callsubr
          hstemhm
          -7 callgsubr
          hintmask 10110000
          521 620 -90 callsubr
          vhcurveto
          hintmask 11010000
          17 21 20 callsubr
          hvcurveto
          -65 callgsubr
          endchar
        </CharString>
        <CharString name="Yacute">
          13 callsubr
          247 -20 hstemhm
          -7 callgsubr
          hintmask 10111000
          426 801 -74 callgsubr
          hintmask 11011000
          -107 callsubr
          95 -181 -90 callsubr
          17 21 3 5 22 vhcurveto
          -65 callgsubr
          endchar
        </CharString>
        <CharString name="Ydieresis">
          13 callsubr
          69 21 callgsubr
          168 111 62 129 hintmask 00000000
          hintmask 10111100
          521 620 -90 callsubr
          17 21 3 5 22 vhcurveto
          -65 callgsubr
          -124 101 rmoveto
          -68 callsubr
          -38 -35 -34 -44 hvcurveto
          hintmask 11011100
          -37 23 -24 33 vhcurveto
          -173 hmoveto
          -99 callsubr
          endchar
        </CharString>
        <CharString name="Z">
          22 callgsubr
          -35 callsubr
          hintmask 10001000
          142 667 -51 callgsubr
          hintmask 01010000
          -12 -23 -6 -18 -17 vvcurveto
          4 callgsubr
          hintmask 10010000
          2 callgsubr
          24 callgsubr
          rrcurveto
          hintmask 00110000
          272 325 rlineto
          15 18 4 25 21 vvcurveto
          -12 callsubr
        </CharString>
        <CharString name="Zcaron">
          22 callgsubr
          -56 83 225 -64 callsubr
          hintmask 10001010
          337 805 rmoveto
          0 -57 40 -32 47 vhcurveto
          hintmask 01010010
          -91 callgsubr
          -195 -138 -51 callgsubr
          -12 -23 -6 -18 -17 vvcurveto
          hintmask 10010010
          4 callgsubr
          2 callgsubr
          hintmask 00110010
          24 callgsubr
          272 325 rcurveline
          15 18 4 25 21 vvcurveto
          hintmask 10000110
          -12 callsubr
        </CharString>
        <CharString name="a">
          72 -10 76 352 66 hstem
          27 123 vstem
          308 94 -106 callsubr
          -72 callgsubr
          hvcurveto
          endchar
        </CharString>
        <CharString name="aacute">
          -24 callgsubr
          225 -20 hstem
          37 123 vstem
          416 611 -74 callgsubr
          -107 callsubr
          -98 -517 -106 callsubr
          -72 callgsubr
          hvcurveto
          endchar
        </CharString>
        <CharString name="acircumflex">
          -24 callgsubr
          15 callsubr
          37 123 -7 callsubr
          432 568 rmoveto
          -56 callsubr
          -105 callgsubr
          -114 -474 -106 callsubr
          hvcurveto
          hintmask 10111000
          -72 callgsubr
          vhcurveto
          endchar
        </CharString>
        <CharString name="acute">
          -208 546 -21 184 -20 hstem
          195 611 -74 callgsubr
          -107 callsubr
          endchar
        </CharString>
        <CharString name="adieresis">
          -24 callgsubr
          47 21 callgsubr
          37 123 -4 -46 callsubr
          hintmask 00000000
          hintmask 11101100
          318 94 -104 callgsubr
          hintmask 11110100
          -44 callsubr
          29 155 -105 callsubr
        </CharString>
        <CharString name="ae">
          287 -30 callsubr
          hstem
          37 123 140 -6 callsubr
          vstem
          569 358 -90 callgsubr
          -269 -175 rmoveto
          -13 1 -12 1 -11 vhcurveto
          -50 -27 -32 -31 -23 4 callsubr
          -34 -50 -22 -64 -79 vvcurveto
          124 -4 rmoveto
          -1 9 13 -1 11 hhcurveto
          30 52 3 20 47 hvcurveto
          67 28 40 71 64 vvcurveto
          64 -40 57 -95 -40 -47 -13 -33 -36 vhcurveto
          37 -48 -62 9 -48 hhcurveto
          -136 -104 -144 -170 -121 55 -59 73 56 51 36 67 45 hvcurveto
          -76 33 76 -27 72 hhcurveto
          -61 callgsubr
          endchar
        </CharString>
        <CharString name="agrave">
          -24 callgsubr
          246 -20 hstem
          37 123 vstem
          162 633 rmoveto
          -70 callsubr
          -103 callgsubr
          156 -539 -106 callsubr
          -72 callgsubr
          hvcurveto
          endchar
        </CharString>
        <CharString name="ampersand">
          283 -11 75 132 192 -105 75 -75 192 -161 74 212 75 hstemhm
          37 115 -46 110 128 81 240 83 28 callgsubr
          hintmask 1100011011000000
          472 388 rmoveto
          hintmask 1000111011000000
          -76 -52 -95 -57 -18 10 -22 30 26 20 13 18 9 hvcurveto
          -9 10 -5 18 15 vvcurveto
          25 13 19 25 8 9 -1 -2 9 vhcurveto
          -188 -95 -59 -105 -90 -47 66 69 vhcurveto
          hintmask 1100010111000000
          66 49 70 82 21 vhcurveto
          22 6 21 0 42 vvcurveto
          6 -1 8 -1 9 vhcurveto
          -1 -7 -6 0 -6 hhcurveto
          -57 -32 44 34 59 42 37 53 32 33 -21 -48 15 hvcurveto
          hintmask 1001011011000000
          50 5 29 22 32 vvcurveto
          41 -63 44 -83 -125 -93 -87 -96 -49 29 -41 61 -27 vhcurveto
          -109 -43 -50 -78 -75 vvcurveto
          -98 82 -92 144 150 146 78 221 22 vhcurveto
          -3 14 13 -2 13 hhcurveto
          hintmask 1010011011000000
          74 53 97 55 18 -10 22 -29 -27 -22 -13 -17 -8 hvcurveto
          8 -12 5 -16 -15 vvcurveto
          -28 -15 -16 -26 vhcurveto
          -40 -60 30 -52 hhcurveto
          endchar
        </CharString>
        <CharString name="ampersand_alt">
          185 -10 72 545 66 hstemhm
          57 108 -22 98 113 100 -33 95 hintmask 00000000
          hintmask 11100100
          309 607 rmoveto
          32 13 -31 -34 -63 -37 -46 -40 -36 hvcurveto
          -23 48 -13 42 29 vvcurveto
          43 21 48 47 vhcurveto
          hintmask 11011000
          -82 -322 rmoveto
          36 -73 40 -73 39 -54 rrcurveto
          -16 -23 -26 -7 -24 hhcurveto
          -61 -43 37 62 hvcurveto
          hintmask 11100100
          51 28 42 34 31 vhcurveto
          246 13 rmoveto
          -21 -22 -6 -6 -12 hvcurveto
          2 -9 1 -10 -11 vvcurveto
          hintmask 11011000
          -29 -7 -33 -9 -26 vhcurveto
          -38 50 -35 62 -26 61 rrcurveto
          81 62 67 68 92 vvcurveto
          58 -41 52 -84 -112 -74 -86 -101 -52 26 -46 24 -41 vhcurveto
          -78 -49 -58 -66 -90 vvcurveto
          -101 90 -51 96 48 51 14 29 46 vhcurveto
          -24 25 43 -19 38 hhcurveto
          52 26 29 52 hvcurveto
          -44 -27 15 25 -35 hvcurveto
          28 43 22 56 39 vvcurveto
          29 -12 20 -31 vhcurveto
          endchar
        </CharString>
        <CharString name="apple">
          382 20 -21 575 -20 119 -20 35 -20 hstemhm
          hintmask 11010000
          713 162 rmoveto
          -7 28 -27 32 -45 5 -42 5 -28 8 -34 10 -1 9 -1 20 -2 16 13 1 11 3 6 7 9 10 4 17 3 25 2 22 3 29 13 31 rrcurveto
          3 16 2 37 34 vvcurveto
          20 -1 20 -2 12 vhcurveto
          72 -16 -47 37 -82 hhcurveto
          -122 -69 -66 -110 -91 32 -66 58 -19 hvcurveto
          -1 -30 -3 -42 -1 -14 -20 -1 -30 -10 -25 -9 -27 -10 -26 -11 -28 -4 -45 -6 -29 -31 -5 -30 -8 -30 rcurveline
          -12 -49 -3 -15 -3 -38 rrcurveto
          -5 4 -2 3 vhcurveto
          149 hlineto
          3 4 3 4 3 -4 3 -3 hvcurveto
          -142 hlineto
          3 32 3 15 11 48 7 29 rcurveline
          6 23 21 25 41 6 21 3 26 10 28 11 rrcurveto
          12 32 31 11 24 hhcurveto
          1 1 0 2 2 hvcurveto
          2 3 5 94 4 vvcurveto
          5 -1 1 -5 2 vhcurveto
          -52 14 -32 64 86 vvcurveto
          hintmask 11100000
          102 66 59 112 75 43 -31 -66 12 vhcurveto
          3 -15 1 -26 -25 vvcurveto
          -28 -1 -27 -3 -10 vhcurveto
          -14 -28 -5 -90 -9 -11 rrcurveto
          -6 -6 -12 -1 -9 -40 -8 13 -10 hhcurveto
          -3 -4 -1 -5 -2 1 -4 2 -1 hvcurveto
          -7 14 21 -6 18 hhcurveto
          2 -16 1 -25 2 -12 1 -4 11 -2 3 -1 34 -11 23 -7 41 -4 41 -4 23 -27 5 -24 5 -22 rcurveline
          14 -61 4 -17 -47 vvcurveto
          -19 hlineto
          -5 -2 -2 -5 -5 3 -1 3 hvcurveto
          26 hlineto
          5 2 3 4 54 -3 16 -9 41 hvcurveto
          -3 15 -4 15 -4 15 rrcurveto
          -206 401 rmoveto
          -26 -22 13 -11 18 28 rlineto
          3 hmoveto
          18 -28 13 11 -26 22 rlineto
          -3 11 rmoveto
          5 31 rlineto
          -17 hlineto
          5 -31 rlineto
          -1 -2 rmoveto
          -28 15 -6 -15 31 -7 rlineto
          14 hmoveto
          32 7 -6 15 -28 -15 rlineto
          endchar
        </CharString>
        <CharString name="approxequal">
          73 76 0 76 43 76 0 76 -35 callsubr
          hintmask 10010000
          549 173 rmoveto
          hintmask 01100000
          -62 callsubr
          195 vmoveto
          hintmask 10100000
          -62 callsubr
          endchar
        </CharString>
        <CharString name="aring">
          -24 callgsubr
          36 48 94 48 hstem
          37 123 63 57 75 68 vstem
          325 662 -83 callgsubr
          13 -426 -106 callsubr
          -72 callgsubr
          hvcurveto
          endchar
        </CharString>
        <CharString name="asciicircum">
          52 429 -21 277 -20 hstem
          423 408 rmoveto
          15 12 8 15 16 hvcurveto
          -36 58 -138 148 -49 48 -49 -48 -139 -148 -35 -58 rrcurveto
          -17 17 10 -6 17 hhcurveto
          31 99 98 52 49 hvcurveto
          -38 36 107 -112 37 hhcurveto
          endchar
        </CharString>
        <CharString name="asciitilde">
          119 208 90 -76 -21 46 51 -51 90 7 -64 callsubr
          hintmask 01101000
          32 269 rmoveto
          hintmask 10001000
          -21 17 -26 16 -21 vhcurveto
          34 34 39 12 33 79 72 -39 74 hhcurveto
          63 62 18 51 hvcurveto
          hintmask 01010000
          20 -16 27 -16 20 vhcurveto
          -33 -34 -25 -13 -34 -83 -51 39 -107 hhcurveto
          -65 -58 -17 -51 hvcurveto
          endchar
        </CharString>
        <CharString name="asterisk">
          34 413 -21 350 -20 hstem
          241 102 vstem
          322 623 rmoveto
          8 24 13 39 18 vvcurveto
          28 -26 10 -30 -14 -14 -2 -10 -20 vhcurveto
          1 -20 1 -17 -14 vvcurveto
          -22 -1 -15 -1 -15 vhcurveto
          24 -32 -22 12 -20 hhcurveto
          -35 -27 -39 -30 -9 hvcurveto
          40 -14 42 -14 33 -16 rrcurveto
          -49 -40 -47 -38 -21 vvcurveto
          -24 35 -23 31 -12 vhcurveto
          21 31 29 40 29 36 rrcurveto
          -58 26 14 -32 40 hhcurveto
          29 29 24 23 16 hvcurveto
          -30 29 -29 29 -29 34 rrcurveto
          81 26 44 15 36 vvcurveto
          18 -15 24 -20 19 vhcurveto
          -28 -21 -31 -20 -33 -22 rrcurveto
          endchar
        </CharString>
        <CharString name="at">
          428 -109 77 86 79 -64 64 242 68 75 72 hstemhm
          85 99 72 106 327 107 hintmask 00000000
          hintmask 11011111
          349 54 rmoveto
          47 55 33 59 35 hvcurveto
          -53 5 28 -24 37 hhcurveto
          94 146 147 160 124 -90 90 -158 -269 -194 -250 -208 -132 81 -109 190 111 107 38 61 25 -26 17 -28 9 hvcurveto
          -54 -25 -57 -19 -62 hhcurveto
          hintmask 10111111
          -135 -57 79 99 164 143 208 187 122 53 -62 -100 -125 -60 -98 -46 -14 -9 12 25 47 39 110 28 70 hvcurveto
          35 -43 -57 11 -48 hhcurveto
          -117 -106 -143 -136 -74 38 -36 55 hvcurveto
          hintmask 11011111
          115 140 rmoveto
          -53 -24 -27 -11 -21 hhcurveto
          -20 -10 26 37 93 45 89 53 18 15 -8 -17 15 hvcurveto
          -9 -31 -21 -81 -14 -44 rrcurveto
          endchar
        </CharString>
        <CharString name="atilde">
          -24 callgsubr
          46 -4 callsubr
          37 123 hintmask 00000000
          hintmask 11101100
          318 94 rmoveto
          -1 -6 0 -7 -6 vvcurveto
          hintmask 11010100
          -47 26 -38 45 47 22 36 26 4 vhcurveto
          -35 16 -3 24 24 vvcurveto
          50 26 156 23 105 vhcurveto
          hintmask 11101100
          -97 callgsubr
          42 callgsubr
          -72 callgsubr
          hvcurveto
          95 244 -98 callgsubr
          endchar
        </CharString>
        <CharString name="b">
          62 -10 65 353 76 269 -20 hstemhm
          96 -4 callgsubr
          110 123 hintmask 00000000
          hintmask 11110100
          41 47 rmoveto
          -41 61 54 -16 79 hhcurveto
          119 115 122 185 123 -56 64 -76 -46 -55 -31 -56 -35 hvcurveto
          20 130 15 128 34 -38 callsubr
          -41 -34 -28 -39 -3 vhcurveto
          8 -4 19 -11 -36 vvcurveto
          -42 -45 -386 -37 -160 vhcurveto
          144 231 rmoveto
          hintmask 11101100
          80 30 42 50 31 hhcurveto
          41 17 -74 -68 -137 -54 -74 -60 -24 -26 15 30 -24 hvcurveto
          9 61 11 64 7 53 rrcurveto
          endchar
        </CharString>
        <CharString name="backslash">
          -153 -99 -21 861 -20 hstem
          125 117 rmoveto
          13 -85 10 -82 6 -64 rrcurveto
          -4 17 14 -2 8 hhcurveto
          39 9 16 19 7 -8 49 -36 227 hvcurveto
          -16 99 -17 109 -15 99 -13 84 -10 82 -6 63 rrcurveto
          -21 7 -15 0 0 vvcurveto
          -32 -19 -8 -25 -16 92 -575 0 hvcurveto
          endchar
        </CharString>
        <CharString name="bar">
          75 -228 -21 986 -20 hstem
          216 77 vstem
          216 -9 rmoveto
          -57 -7 -125 -20 vvcurveto
          -30 22 -8 24 8 22 0 3 16 vhcurveto
          -4 36 -4 37 119 vvcurveto
          582 vlineto
          56 7 95 20 vvcurveto
          30 -22 8 -24 -8 -22 0 -3 -16 vhcurveto
          7 -46 1 -84 -40 vvcurveto
          endchar
        </CharString>
        <CharString name="braceleft">
          4 -139 71 324 63 324 72 hstemhm
          135 96 -66 96 -6 callgsubr
          318 586 rmoveto
          44 5 9 13 59 hhcurveto
          hintmask 11110000
          44 18 18 31 6 0 7 -2 8 hvcurveto
          1 -12 -26 1 -11 hhcurveto
          -131 -37 -40 -75 -10 hvcurveto
          -5 -38 -21 -146 -4 -21 rrcurveto
          -29 -5 -37 -47 -80 hhcurveto
          hintmask 11101000
          -9 -63 rlineto
          76 26 -38 -29 hvcurveto
          -22 -30 -171 -47 vvcurveto
          -58 34 -30 115 10 24 1 1 13 vhcurveto
          7 12 5 15 9 vvcurveto
          26 -21 7 -38 -44 -9 8 20 vhcurveto
          35 30 171 30 vvcurveto
          35 -22 39 -28 17 vhcurveto
          34 20 40 45 5 39 rrcurveto
          endchar
        </CharString>
        <CharString name="braceright">
          4 -139 72 324 63 324 71 hstemhm
          177 96 -66 96 39 callsubr
          120 -10 rmoveto
          -44 -5 -9 -13 -59 hhcurveto
          hintmask 11101000
          -44 -18 -18 -31 -6 0 -7 2 -8 hvcurveto
          -1 12 26 -1 11 hhcurveto
          131 37 40 75 10 hvcurveto
          5 38 21 146 4 21 rrcurveto
          29 5 37 47 80 hhcurveto
          hintmask 11110000
          9 63 rlineto
          -76 -26 38 29 hvcurveto
          22 30 171 47 vvcurveto
          58 -34 30 -115 -10 -24 -1 -1 -13 vhcurveto
          -7 -12 -5 -15 -9 vvcurveto
          -26 21 -7 38 44 9 -8 -20 vhcurveto
          -35 -30 -171 -30 vvcurveto
          -35 22 -39 28 -17 vhcurveto
          -34 -20 -40 -45 -5 -39 rrcurveto
          endchar
        </CharString>
        <CharString name="bracketleft">
          -32 -190 70 770 70 hstem
          295 650 rmoveto
          -1 26 15 0 24 hhcurveto
          50 13 26 22 8 -1 7 -2 8 hvcurveto
          -212 hlineto
          -127 -910 rlineto
          211 hlineto
          7 14 4 13 10 vvcurveto
          20 -14 13 -41 -9 -23 0 -1 -30 vhcurveto
          endchar
        </CharString>
        <CharString name="bracketright">
          -50 -190 70 1 -20 789 70 -35 callsubr
          hintmask 10100000
          107 -120 rmoveto
          1 -26 -15 0 -24 hhcurveto
          -50 -13 -26 -22 -8 1 -7 2 -8 hvcurveto
          212 hlineto
          127 910 rlineto
          hintmask 01100000
          -211 hlineto
          -7 -14 -4 -13 -10 vvcurveto
          hintmask 10100000
          -20 14 -13 41 9 23 0 1 30 vhcurveto
          endchar
        </CharString>
        <CharString name="breve">
          -90 534 65 88 -20 hstem
          118 48 vstem
          235 599 rmoveto
          -56 -13 32 56 hvcurveto
          -38 -3 -10 -21 -30 vvcurveto
          -44 30 -55 70 83 81 85 47 12 -8 7 -22 2 vhcurveto
          -56 -31 -29 -32 -57 hhcurveto
          endchar
        </CharString>
        <CharString name="brokenbar">
          -228 -21 986 -20 hstem
          248 77 vstem
          248 565 rmoveto
          -57 -7 -157 -20 -58 callsubr
          -82 -41 vvcurveto
          -583 vmoveto
          -61 -7 -114 -18 -58 callsubr
          -77 -48 vvcurveto
          endchar
        </CharString>
        <CharString name="bullet">
          -115 153 -21 274 -20 hstem
          145 132 rmoveto
          75 66 70 87 68 -44 49 -60 -80 -64 -78 -82 -68 45 -46 62 hvcurveto
          endchar
        </CharString>
        <CharString name="c">
          -3 -10 66 357 71 43 callsubr
          5 callgsubr
          30 callsubr
          59 -84 22 -54 -60 callgsubr
          vhcurveto
          -59 callsubr
          19 35 -7 -69 19 hvcurveto
          endchar
        </CharString>
        <CharString name="caron">
          -55 540 -21 183 -20 hstem
          245 615 rmoveto
          0 -57 40 -32 47 vhcurveto
          -91 callgsubr
          endchar
        </CharString>
        <CharString name="ccedilla">
          -3 -244 60 174 66 281 147 -71 71 43 callsubr
          -51 34 callsubr
          hintmask 11011010
          30 callsubr
          hintmask 11101001
          59 -84 22 -54 -118 -138 -98 -206 -100 56 -67 90 -18 vhcurveto
          -12 -21 -9 -22 -29 callgsubr
          hintmask 11100100
          10 callsubr
          hintmask 11011010
          8 4 11 6 11 vhcurveto
          72 3 73 33 41 vvcurveto
          23 -13 22 -35 14 vhcurveto
          -59 callsubr
          19 35 -7 -69 19 hvcurveto
          endchar
        </CharString>
        <CharString name="cedilla">
          -62 -244 60 216 -20 hstemhm
          48 195 -142 73 -17 86 5 callsubr
          147 32 rmoveto
          hintmask 11001000
          -21 -27 -25 -41 -31 -37 56 -9 -35 vvcurveto
          -26 -24 -10 -17 vhcurveto
          hintmask 11100000
          -14 -15 5 9 -8 hvcurveto
          -15 -13 -16 -15 -19 vvcurveto
          -14 13 -13 33 vhcurveto
          hintmask 11010000
          66 83 46 68 hvcurveto
          60 -69 15 15 vvcurveto
          17 20 29 8 18 vhcurveto
          endchar
        </CharString>
        <CharString name="cent">
          5 -21 597 -20 123 -20 hstem
          63 118 vstem
          181 291 rmoveto
          98 50 82 70 28 vhcurveto
          -48 -346 rlineto
          -48 22 -24 53 63 vvcurveto
          141 390 rmoveto
          -1 -18 -2 -37 -6 -46 rrcurveto
          -1 -1 -2 -1 vvcurveto
          -129 -23 -120 -104 -173 vvcurveto
          -113 72 -73 107 -17 vhcurveto
          -9 -60 0 -6 -1 -31 callsubr
          11 2 vhcurveto
          16 2 16 3 39 vhcurveto
          1 13 rlineto
          133 1 56 48 44 vvcurveto
          29 -24 26 -42 9 vhcurveto
          -54 -37 -44 -31 -31 hhcurveto
          51 367 41 -2 31 -39 20 -41 rlinecurve
          54 11 27 29 30 vvcurveto
          41 -51 43 -105 vhcurveto
          -7 hlineto
          10 72 1 8 1 vvcurveto
          12 -7 10 -26 -5 -8 -1 -2 -11 vhcurveto
          endchar
        </CharString>
        <CharString name="centoldstyle">
          -75 -21 592 -21 93 -20 hstem
          63 118 vstem
          181 200 rmoveto
          91 45 76 62 26 vhcurveto
          -22 -152 -13 -99 -10 -69 rrcurveto
          -41 21 -21 49 57 vvcurveto
          126 365 rmoveto
          -1 -17 -2 -35 -5 -43 rrcurveto
          -121 -21 -115 -99 -164 vvcurveto
          -108 68 -69 101 -15 vhcurveto
          -8 -59 -1 -8 -1 -31 callsubr
          11 2 vhcurveto
          16 2 42 4 26 vhcurveto
          122 2 51 48 43 vvcurveto
          29 -24 26 -43 9 vhcurveto
          -32 -53 -37 -31 -27 -1 48 340 rcurveline
          35 -5 25 -37 17 -39 rrcurveto
          55 11 27 29 30 vvcurveto
          41 -48 43 -100 vhcurveto
          8 62 1 5 4 vvcurveto
          16 -12 6 -21 -5 -8 -1 -2 -11 vhcurveto
          endchar
        </CharString>
        <CharString name="ch">
          478 -10 66 357 71 193 66 43 callsubr
          159 55 98 118 -29 113 59 108 -72 109 28 callgsubr
          hintmask 1111110010000000
          600 -72 callsubr
          hintmask 1111110100000000
          -40 callsubr
          -66 callsubr
          -46 -57 -30 -59 -41 vhcurveto
          12 67 30 183 34 vvcurveto
          56 -35 8 -60 -184 -76 -58 -95 -33 9 -38 18 -42 vhcurveto
          5 -18 -19 2 -16 hhcurveto
          -60 callgsubr
          hvcurveto
          -59 callsubr
          19 35 -7 -69 19 hvcurveto
          65 2 17 39 25 vvcurveto
          hintmask 1111110010000000
          46 -57 20 89 vvcurveto
          hintmask 1111110100000000
          74 57 45 102 vhcurveto
          hintmask 1111101010000000
          26 2 -28 -24 hvcurveto
          -71 -89 -453 -70 vvcurveto
          hintmask 1111110100000000
          -85 callgsubr
          endchar
        </CharString>
        <CharString name="circumflex">
          -60 540 -21 183 -20 hstem
          356 568 rmoveto
          -56 callsubr
          -105 callgsubr
          endchar
        </CharString>
        <CharString name="colon">
          -190 -10 153 188 153 hstemhm
          29 138 -91 138 5 callgsubr
          136 331 rmoveto
          -93 callsubr
          -47 -341 rmoveto
          44 34 40 48 37 -25 28 -33 hvcurveto
          hintmask 11010000
          -42 -38 -42 -47 -39 27 -25 33 hvcurveto
          endchar
        </CharString>
        <CharString name="comma">
          -219 -154 53 221 -20 hstemhm
          25 133 -90 90 5 callgsubr
          98 120 rmoveto
          24 callsubr
          19 callsubr
          hintmask 11010000
          -21 callsubr
          endchar
        </CharString>
        <CharString name="copyright">
          415 -34 57 73 73 309 73 66 57 hstem
          123 72 65 115 368 72 vstem
          743 320 rmoveto
          -182 -125 -115 -148 -151 -124 115 182 181 124 116 151 148 125 -116 -181 vhcurveto
          72 hmoveto
          204 -154 150 -191 -195 -152 -150 -204 -202 152 -152 195 191 154 152 202 vhcurveto
          -195 -159 rmoveto
          17 -13 20 -28 17 vhcurveto
          -31 -23 -35 -15 -30 hhcurveto
          -54 -62 39 122 90 42 58 52 30 37 -18 -45 12 hvcurveto
          52 7 21 17 25 vvcurveto
          62 -92 25 -53 -98 -118 -67 -165 -169 121 -54 101 74 64 30 35 vhcurveto
          endchar
        </CharString>
        <CharString name="ct">
          358 -10 69 278 147 -82 70 22 -21 113 58 43 callsubr
          217 42 106 105 hintmask 00000000
          hintmask 10111111
          533 -44 callgsubr
          17 4 34 hhcurveto
          -92 callsubr
          47 25 151 11 71 hvcurveto
          -78 callsubr
          hintmask 11001111
          -3 -39 -29 -2 -82 hhcurveto
          4 26 8 32 21 vvcurveto
          51 -71 42 -69 -82 -90 -60 -89 -9 1 -10 1 -9 vhcurveto
          12 -27 -33 5 -26 hhcurveto
          -60 callgsubr
          hvcurveto
          -59 callsubr
          hvcurveto
          hintmask 10111111
          19 35 -7 -69 19 hvcurveto
          65 2 17 39 25 22 -12 6 34 vvcurveto
          68 63 53 46 15 29 -3 -22 5 vhcurveto
          -10 -88 rlineto
          endchar
        </CharString>
        <CharString name="d">
          63 -10 76 353 64 260 -20 hstemhm
          24 123 199 -4 callgsubr
          hintmask 00000000
          hintmask 11111000
          349 435 rmoveto
          34 -32 -36 14 -37 hhcurveto
          -116 -104 -147 -166 -121 56 -59 73 57 48 34 70 47 hvcurveto
          -1 -10 0 -2 -11 vvcurveto
          -38 24 -43 46 44 20 28 34 7 vhcurveto
          -30 13 -7 24 18 46 78 454 72 -38 callsubr
          -47 -29 -35 -32 -2 vhcurveto
          21 -9 6 -25 -16 vvcurveto
          -25 -15 -105 -9 -61 vhcurveto
          -34 -230 rmoveto
          hintmask 11110100
          -81 -30 -47 -58 -32 hhcurveto
          -37 -22 54 71 136 50 92 68 22 14 -8 -41 38 hvcurveto
          endchar
        </CharString>
        <CharString name="dagger">
          24 -90 -21 527 81 -69 69 -69 82 164 -64 callsubr
          hintmask 11001000
          65 458 rmoveto
          hintmask 10101000
          -1 -8 -1 -11 -23 vvcurveto
          57 4 36 6 55 2 rrcurveto
          -42 -273 -39 -155 -29 vvcurveto
          -37 51 -45 0 vhcurveto
          0 71 53 3 35 vhcurveto
          8 95 3 60 34 294 rrcurveto
          25 24 -4 30 hhcurveto
          59 20 19 48 8 callsubr
          54 12 53 rrcurveto
          6 -25 -15 3 -16 hhcurveto
          -16 -16 -3 -6 -27 hvcurveto
          hintmask 10011000
          -3 -58 0 -49 -7 -61 rrcurveto
          2 -49 -23 11 -24 hhcurveto
          -41 -15 -26 -26 -4 hvcurveto
          endchar
        </CharString>
        <CharString name="daggerdbl">
          26 -82 -21 164 88 -75 75 273 75 -75 88 164 -64 callsubr
          hintmask 11010100
          295 281 rmoveto
          2 19 1 21 22 vvcurveto
          24 1 31 3 29 vhcurveto
          -3 50 13 -2 17 hhcurveto
          hintmask 10101100
          53 25 17 50 8 callsubr
          49 12 58 rrcurveto
          6 -23 -17 3 -17 hhcurveto
          -13 -17 -3 -6 -28 hvcurveto
          -2 -50 -1 -57 -7 -61 rrcurveto
          -37 -36 13 -23 hhcurveto
          -41 -15 -26 -26 -4 hvcurveto
          -1 -8 -1 -11 -23 vvcurveto
          57 3 36 7 55 2 rrcurveto
          -12 -73 -25 -39 -85 -11 1 -14 -16 vvcurveto
          -13 -1 -16 -2 -17 vhcurveto
          -23 -31 5 -25 hhcurveto
          hintmask 11010100
          -53 -26 -18 -50 -8 2 -12 7 -16 hvcurveto
          62 19 37 8 40 2 -12 -63 -11 -47 -13 -58 rrcurveto
          -6 23 17 -3 17 hhcurveto
          13 17 3 6 28 hvcurveto
          2 53 1 52 7 63 rrcurveto
          -1 44 26 -12 26 hhcurveto
          41 15 25 27 4 hvcurveto
          1 8 1 10 24 vvcurveto
          -57 -5 -36 -5 -55 -3 7 44 18 54 7 41 rrcurveto
          endchar
        </CharString>
        <CharString name="degree">
          -75 387 64 196 64 hstem
          47 76 153 77 vstem
          215 647 rmoveto
          42 19 -32 -43 -62 -32 -59 -58 -43 -20 33 43 63 34 57 58 hvcurveto
          -168 -127 rmoveto
          -78 51 -55 79 107 69 94 98 77 -51 55 -78 -107 -70 -92 -99 vhcurveto
          endchar
        </CharString>
        <CharString name="dieresis">
          -138 531 139 hstem
          43 -46 callsubr
          vstem
          272 531 -105 callsubr
        </CharString>
        <CharString name="divide">
          22 128 69 71 69 127 hstem
          235 122 vstem
          498 260 rmoveto
          12 0 10 -6 17 vhcurveto
          -8 -65 -89 -1 -46 -80 -63 7 -21 -16 callgsubr
          -7 0 -7 5 -25 hvcurveto
          5 54 62 5 97 46 71 -8 35 hhcurveto
          31 21 23 26 hvcurveto
          -201 99 rmoveto
          33 27 25 38 36 -27 28 -33 -34 -28 -28 -36 -38 28 -25 34 hvcurveto
          -337 vmoveto
          33 27 26 38 35 -27 29 -33 -34 -28 -29 -35 -38 28 -26 34 hvcurveto
          endchar
        </CharString>
        <CharString name="dollar">
          -57 -21 817 -20 hstem
          110 96 157 97 vstem
          204 -10 rmoveto
          -7 -43 0 -1 -2 -31 callsubr
          10 2 vhcurveto
          14 3 24 3 31 vhcurveto
          136 16 65 109 122 vvcurveto
          104 -77 27 -68 25 vhcurveto
          28 201 34 -9 32 -34 8 -46 rlinecurve
          50 10 32 23 42 vvcurveto
          58 -84 30 -64 2 vhcurveto
          5 41 0 1 2 vvcurveto
          12 -7 10 -24 -5 -8 -1 -2 -10 vhcurveto
          -1 -25 -1 -24 -2 -22 rrcurveto
          -125 -23 -63 -83 -114 vvcurveto
          -104 68 -33 65 -22 vhcurveto
          -29 -211 -47 8 -45 33 -14 43 rlinecurve
          -33 -15 -35 -22 -38 vvcurveto
          -51 77 -40 87 -3 vhcurveto
          92 278 rmoveto
          36 -15 31 -19 -44 vvcurveto
          -61 -34 -53 -60 -7 vhcurveto
          -7 346 rmoveto
          -31 13 -25 19 36 vvcurveto
          55 32 46 50 10 vhcurveto
          endchar
        </CharString>
        <CharString name="dollaroldstyle">
          -44 -21 647 -20 92 -20 hstem
          117 97 159 88 vstem
          228 68 rmoveto
          -57 10 -22 29 -11 29 rrcurveto
          -34 -11 -43 -20 -35 vvcurveto
          -47 84 -26 72 -4 vhcurveto
          -4 -33 0 -1 -2 -31 callsubr
          10 2 vhcurveto
          4 56 rlineto
          114 12 74 85 108 vvcurveto
          86 -72 23 -70 24 vhcurveto
          23 174 45 -9 18 -26 8 -23 rlinecurve
          38 4 38 14 40 vvcurveto
          49 -73 28 -64 vhcurveto
          -4 hlineto
          5 47 0 1 2 vvcurveto
          12 -6 10 -24 -4 -7 -1 -2 -9 vhcurveto
          -1 -21 -2 -19 -4 -33 rrcurveto
          -105 -19 -74 -63 -105 vvcurveto
          -92 72 -22 65 -18 vhcurveto
          53 -10 rmoveto
          37 -14 29 -20 -44 vvcurveto
          -56 -38 -52 -53 -2 vhcurveto
          -17 291 rmoveto
          -31 15 -20 16 30 vvcurveto
          50 28 36 45 6 vhcurveto
          endchar
        </CharString>
        <CharString name="dotaccent">
          -68 531 139 hstem
          164 129 vstem
          220 -22 callsubr
          endchar
        </CharString>
        <CharString name="dotlessi">
          -202 11 -21 494 -20 hstemhm
          40 105 -58 113 5 callsubr
          87 366 -17 callsubr
          vhcurveto
          hintmask 11100000
          40 25 29 33 5 hvcurveto
          -45 callsubr
          vhcurveto
          hintmask 11010000
          1 callgsubr
          hvcurveto
          -30 callgsubr
        </CharString>
        <CharString name="e">
          14 33 callgsubr
          hstem
          27 -6 callsubr
          vstem
          151 179 -99 callgsubr
          145 179 -90 callgsubr
          endchar
        </CharString>
        <CharString name="eacute">
          14 33 callgsubr
          225 -20 hstem
          27 -6 callsubr
          vstem
          385 611 -74 callgsubr
          -107 callsubr
          -234 -432 -99 callgsubr
          145 179 -90 callgsubr
          endchar
        </CharString>
        <CharString name="ecircumflex">
          14 -10 66 0 121 242 65 15 callsubr
          27 -6 callsubr
          hintmask 00000000
          hintmask 01101110
          406 568 rmoveto
          -56 callsubr
          -105 callgsubr
          -255 -389 rmoveto
          -1 9 13 -1 11 hhcurveto
          30 52 3 20 47 hvcurveto
          67 28 40 71 64 vvcurveto
          64 -40 57 -95 -114 -144 -97 -204 -144 103 -49 95 vhcurveto
          hintmask 10011110
          -61 callgsubr
          145 179 -90 callgsubr
          endchar
        </CharString>
        <CharString name="edieresis">
          22 33 callgsubr
          47 21 callgsubr
          27 124 -25 -46 callsubr
          hintmask 00000000
          hintmask 11101100
          151 179 -99 callgsubr
          hintmask 11110100
          145 179 -90 callgsubr
          59 173 -105 callsubr
        </CharString>
        <CharString name="egrave">
          14 33 callgsubr
          246 -20 hstem
          27 -6 callsubr
          vstem
          131 633 rmoveto
          -70 callsubr
          -103 callgsubr
          20 -454 -99 callgsubr
          145 179 -90 callgsubr
          endchar
        </CharString>
        <CharString name="eight">
          -10 74 535 74 hstemhm
          57 108 -34 104 150 109 -83 102 -6 callgsubr
          235 513 rmoveto
          51 43 35 53 44 36 -26 -39 -53 -34 -40 -58 -29 vhcurveto
          -53 24 -31 34 43 vvcurveto
          150 -314 rmoveto
          hintmask 11010100
          -67 -45 -68 -79 -63 -33 48 52 77 48 48 67 32 vhcurveto
          68 -33 37 -32 -57 vvcurveto
          -328 -51 rmoveto
          -83 64 -75 129 160 84 109 109 84 -45 41 -57 37 27 callsubr
          78 44 43 64 62 vvcurveto
          71 -57 62 -114 -114 -97 -71 -104 -64 35 -43 42 -28 vhcurveto
          -87 -35 -64 -74 -106 vvcurveto
          endchar
        </CharString>
        <CharString name="eightoldstyle">
          45 -10 74 496 74 hstemhm
          15 102 -30 100 150 104 -78 101 -6 callgsubr
          187 479 rmoveto
          48 43 33 53 44 36 -25 -37 -50 -34 -38 -58 -27 vhcurveto
          -53 23 -31 32 41 vvcurveto
          150 -296 rmoveto
          hintmask 11010100
          -59 -45 -60 -79 -63 -33 42 46 69 48 42 67 28 vhcurveto
          68 -29 37 -29 -50 vvcurveto
          -322 -44 rmoveto
          -78 58 -71 129 160 79 103 104 79 -43 44 -55 30 27 callsubr
          78 37 43 64 58 vvcurveto
          67 -56 58 -114 -114 -93 -67 -97 -60 31 -41 42 -26 vhcurveto
          -87 -33 -58 -70 -101 vvcurveto
          endchar
        </CharString>
        <CharString name="ellipsis">
          376 -10 153 hstem
          29 138 165 138 164 138 vstem
          392 -10 rmoveto
          -93 callsubr
          302 hmoveto
          -93 callsubr
          -605 hmoveto
          -93 callsubr
          endchar
        </CharString>
        <CharString name="emdash">
          379 228 71 -61 -21 92 -64 callsubr
          hintmask 01100000
          780 309 rmoveto
          -8 -39 -37 -2 -32 hhcurveto
          -477 hlineto
          -43 -44 4 -23 41 callsubr
          -43 -12 -33 -34 hvcurveto
          hintmask 01100000
          -7 0 -6 1 -6 vhcurveto
          9 52 36 2 29 hhcurveto
          467 hlineto
          39 42 -5 31 41 callsubr
          40 16 29 33 8 -1 8 -2 8 hvcurveto
          endchar
        </CharString>
        <CharString name="endash">
          226 70 -59 -21 90 -64 callsubr
          hintmask 01100000
          510 267 rmoveto
          9 0 9 -7 21 vhcurveto
          -7 -40 -44 -3 -30 41 callsubr
          -175 hlineto
          hintmask 01100000
          -53 -22 4 -24 hhcurveto
          -39 -12 -25 -20 -7 0 -8 4 -24 hvcurveto
          9 59 37 1 27 41 callsubr
          173 hlineto
          37 25 -4 33 hhcurveto
          31 20 18 27 hvcurveto
          endchar
        </CharString>
        <CharString name="equal">
          121 71 -60 -21 206 71 9 -64 callsubr
          hintmask 10010000
          496 162 rmoveto
          12 0 9 -6 18 vhcurveto
          -8 -65 -89 -1 -47 -65 -63 7 -30 -18 callsubr
          hintmask 10100000
          8 callgsubr
          196 vmoveto
          12 0 9 -6 18 vhcurveto
          hintmask 01100000
          -8 -65 -89 -1 -47 hhcurveto
          hintmask 10100000
          -65 -63 7 -30 -18 callsubr
          8 callgsubr
          endchar
        </CharString>
        <CharString name="eth">
          119 -10 72 351 71 265 -20 hstem
          34 113 219 119 vstem
          277 413 rmoveto
          58 31 -62 -81 -105 -43 -103 -86 -60 -30 67 82 105 46 97 84 hvcurveto
          170 257 rmoveto
          13 10 6 11 11 vvcurveto
          17 -13 17 -18 13 vhcurveto
          -41 -32 -40 -29 -41 -27 rrcurveto
          23 -48 -58 14 -28 hhcurveto
          -24 -6 -15 -16 -8 1 -8 2 -6 hvcurveto
          32 -6 31 -9 28 -15 rrcurveto
          -22 -15 -19 -12 0 vvcurveto
          -12 -10 -7 -11 -16 vvcurveto
          -16 9 -13 27 -11 vhcurveto
          86 61 27 -28 21 -34 14 -66 rlinecurve
          35 -37 -24 5 -34 hhcurveto
          -113 -125 -107 -188 -123 72 -76 115 194 70 192 177 112 -29 79 -81 71 hvcurveto
          22 16 27 17 23 16 rrcurveto
          endchar
        </CharString>
        <CharString name="exclam">
          -172 -10 153 541 -20 hstemhm
          47 133 -100 100 5 callsubr
          107 -10 rmoveto
          -93 callsubr
          140 650 rmoveto
          hintmask 11100000
          32 -22 12 -35 -17 -28 -6 -7 -22 vhcurveto
          1 -13 0 -7 -7 vvcurveto
          -67 -18 -133 -13 -94 vhcurveto
          -7 -52 -6 -38 -14 vvcurveto
          -29 23 -12 27 16 19 6 8 19 vhcurveto
          -3 14 -1 13 16 vvcurveto
          61 33 168 17 59 vhcurveto
          11 41 6 31 18 vvcurveto
          endchar
        </CharString>
        <CharString name="exclamdown">
          -120 -189 -21 541 153 hstemhm
          124 100 -100 133 5 callgsubr
          197 -19 callgsubr
          -140 -650 rmoveto
          hintmask 11010000
          -32 22 -12 35 17 28 6 7 22 vhcurveto
          -1 13 0 7 7 vvcurveto
          67 18 133 13 94 vhcurveto
          7 52 6 38 14 vvcurveto
          29 -23 12 -27 -16 -19 -6 -8 -19 vhcurveto
          3 -14 1 -13 -16 vvcurveto
          -61 -33 -168 -17 -59 vhcurveto
          -11 -41 -6 -31 -18 vvcurveto
          endchar
        </CharString>
        <CharString name="f">
          -90 -110 -21 533 71 20 -21 170 72 hstemhm
          5 callsubr
          362 577 rmoveto
          -64 callgsubr
          hintmask 10110000
          -49 callsubr
          -13 hlineto
          -86 callsubr
          -91 callsubr
          37 37 -96 callgsubr
          84 -71 callgsubr
          endchar
        </CharString>
        <CharString name="f_alt">
          -97 -204 83 523 70 22 26 callgsubr
          -6 callgsubr
          199 402 rmoveto
          37 38 -96 callgsubr
          84 -71 callgsubr
          -51 callsubr
          -26 callgsubr
          hintmask 11110000
          -69 callsubr
          endchar
        </CharString>
        <CharString name="ff">
          245 -110 -21 532 72 20 -21 105 -37 callgsubr
          5 callsubr
          -80 callsubr
          37 -96 callgsubr
          84 -71 callgsubr
          hintmask 10101000
          -64 callgsubr
          hintmask 11010000
          -49 callsubr
          -228 hlineto
          83 -71 callgsubr
          hintmask 11001000
          -9 callsubr
          vhcurveto
          hintmask 11010000
          -42 callsubr
          hvcurveto
          -13 hlineto
          -86 callsubr
          -91 callsubr
          endchar
        </CharString>
        <CharString name="ff_alt">
          231 -204 83 -10 -20 553 71 20 -21 105 -37 callgsubr
          hintmask 00000000
          hintmask 10010100
          -3 callsubr
          hintmask 10101000
          -48 callgsubr
          -61 16 -50 vhcurveto
          hintmask 01101000
          -132 -50 -107 -134 -12 hvcurveto
          -33 hlineto
          -87 callgsubr
          41 2 24 1 rrcurveto
          -318 -26 11 -204 -128 hhcurveto
          hintmask 10010100
          -17 -35 8 22 -9 hvcurveto
          -36 -20 -5 -21 -15 vvcurveto
          -28 26 -29 70 151 47 127 125 20 vhcurveto
          15 97 12 133 11 124 rrcurveto
          221 hlineto
          -23 callsubr
          -265 -103 callsubr
          37 37 -96 callgsubr
          84 -71 callgsubr
          hintmask 10011000
          -9 callsubr
          -146 -56 -108 -134 -13 vhcurveto
          endchar
        </CharString>
        <CharString name="ff_alt_1">
          231 -204 83 523 71 20 -21 105 -37 callgsubr
          hintmask 00000000
          hintmask 10101000
          -3 callsubr
          hintmask 11010000
          -48 callgsubr
          -61 16 -50 vhcurveto
          hintmask 10101000
          -132 -50 -107 -134 -12 hvcurveto
          -33 hlineto
          -36 -22 -14 -40 -7 1 -7 1 -9 hvcurveto
          -69 callsubr
          221 hlineto
          -319 -101 callsubr
          11 124 rrcurveto
          37 38 -96 callgsubr
          84 -71 callgsubr
          hintmask 11010000
          -51 callsubr
          endchar
        </CharString>
        <CharString name="ffi">
          439 41 callgsubr
          431 71 -71 72 15 callgsubr
          704 105 -69 113 hintmask 00000000
          hintmask 11101001
          -80 callsubr
          123 0 2 26 hvcurveto
          8 -10 4 -13 -15 -73 -36 -79 callsubr
          vvcurveto
          hintmask 11101010
          -24 callsubr
          hintmask 11100101
          29 callsubr
          -48 -97 -1 -61 hhcurveto
          -25 callgsubr
          hintmask 11011001
          75 24 30 31 -26 callsubr
          hvcurveto
          -228 hlineto
          83 6 24 86 52 hhcurveto
          hintmask 11100110
          21 31 44 callgsubr
          -51 callsubr
          hintmask 11101010
          -13 hlineto
          -86 callsubr
          -91 callsubr
          endchar
        </CharString>
        <CharString name="ffl">
          478 41 callgsubr
          431 72 20 -21 105 137 -73 73 29 -64 callsubr
          hintmask 11101010
          -80 callsubr
          37 -96 callgsubr
          -73 callgsubr
          hintmask 11010110
          -83 callsubr
          -228 hlineto
          83 -71 callgsubr
          -9 callsubr
          vhcurveto
          hintmask 11101010
          -42 callsubr
          hvcurveto
          -13 hlineto
          -86 callsubr
          -91 callsubr
          endchar
        </CharString>
        <CharString name="fi">
          104 -110 -21 121 11 callgsubr
          369 105 -69 113 28 callgsubr
          hintmask 1110101010000000
          419 577 rmoveto
          75 24 30 31 hvcurveto
          hintmask 1110110100000000
          -26 callsubr
          vhcurveto
          -13 hlineto
          hintmask 1101010010000000
          -86 callsubr
          -23 callsubr
          -264 -68 -20 rrcurveto
          hintmask 1110101100000000
          -43 14 26 -20 27 hhcurveto
          76 20 114 74 10 hvcurveto
          14 98 13 134 11 113 rrcurveto
          36 126 0 2 25 hvcurveto
          7 -10 4 -13 -15 -87 callsubr
          -13 -13 -3 -6 -11 vhcurveto
          -2 -49 -97 -1 -60 hhcurveto
          -25 callgsubr
          endchar
        </CharString>
        <CharString name="fi_alt">
          96 -204 83 111 11 callgsubr
          361 105 -69 113 28 callgsubr
          hintmask 1110110010000000
          198 402 rmoveto
          36 127 0 2 25 hvcurveto
          hintmask 1110101010000000
          7 -10 4 -13 -15 -73 -36 -75 callsubr
          hintmask 1101010010000000
          -27 12 -10 21 23 -24 callsubr
          hintmask 1110110100000000
          29 callsubr
          -49 -97 -1 -60 hhcurveto
          hintmask 1110110010000000
          -25 callgsubr
          75 24 30 31 -26 callsubr
          hvcurveto
          -13 hlineto
          -36 -22 -14 -40 -7 1 -7 1 -9 hvcurveto
          17 2 21 -67 callgsubr
          endchar
        </CharString>
        <CharString name="five">
          -10 74 300 72 141 85 8 -20 hstemhm
          350 111 -6 callgsubr
          417 577 rmoveto
          49 29 14 38 4 hvcurveto
          9 -1 21 -4 11 vhcurveto
          -6 -32 -53 -2 -28 hhcurveto
          -53 -125 0 2 -29 hvcurveto
          -36 -206 -11 -46 -18 vvcurveto
          -17 3 -13 36 callgsubr
          48 -60 -70 -80 -62 -90 -102 -58 -14 16 25 -16 hvcurveto
          -32 -7 -22 -19 -30 vvcurveto
          -27 39 -32 103 164 111 129 144 vhcurveto
          hintmask 11011000
          100 -60 73 -133 27 callsubr
          -16 -22 -1 -3 -19 hvcurveto
          35 150 rlineto
          -2 42 88 -3 41 hhcurveto
          endchar
        </CharString>
        <CharString name="fiveoldstyle">
          1 -160 74 288 65 123 84 8 -20 hstemhm
          274 102 -6 callgsubr
          328 390 rmoveto
          55 27 18 38 9 -1 16 -4 11 hvcurveto
          -6 -32 -53 -2 -28 hhcurveto
          -53 -117 0 2 -29 hvcurveto
          -36 -198 -9 -30 -18 vvcurveto
          -16 3 -12 36 callgsubr
          51 -58 -67 -77 -65 -86 -102 -58 -17 14 25 -16 hvcurveto
          -22 -4 -29 -20 -30 vvcurveto
          -27 39 -32 103 164 105 124 138 vhcurveto
          hintmask 11011000
          96 -60 69 -133 27 callsubr
          -16 -11 0 -3 -19 hvcurveto
          29 131 rlineto
          -2 42 79 -3 41 hhcurveto
          endchar
        </CharString>
        <CharString name="fl">
          151 41 callgsubr
          432 71 20 -21 169 73 29 -64 callsubr
          hintmask 11011100
          213 472 rmoveto
          -73 callgsubr
          -83 callsubr
          hintmask 11101100
          -13 hlineto
          -86 callsubr
          -91 callsubr
          37 37 -96 callgsubr
          endchar
        </CharString>
        <CharString name="fl_alt">
          144 -204 83 111 -20 432 70 22 -21 168 73 29 -20 hstem
          199 402 rmoveto
          37 38 -96 callgsubr
          -73 callgsubr
          -83 callsubr
          -13 hlineto
          -36 -22 -14 -40 -7 1 -7 1 -9 hvcurveto
          17 2 21 -67 callgsubr
          endchar
        </CharString>
        <CharString name="florin">
          -120 69 416 61 179 70 hstem
          12 78 vstem
          335 368 rmoveto
          -2 22 19 -1 21 hhcurveto
          41 22 10 40 6 -2 8 -3 10 hvcurveto
          -33 -6 -37 -4 -38 -3 3 20 rcurveline
          79 13 13 80 55 hhcurveto
          15 11 -12 -37 5 hvcurveto
          33 5 49 20 41 vvcurveto
          28 -25 25 -62 -134 -52 -120 -135 -26 vhcurveto
          -18 hlineto
          -22 -1 -21 -6 -30 vvcurveto
          -5 1 -6 1 -8 vhcurveto
          15 3 19 1 15 1 -60 -290 rcurveline
          -83 -17 -9 -47 -36 hhcurveto
          -10 -13 12 37 hvcurveto
          -34 -7 -44 -20 -41 vvcurveto
          -27 19 -23 57 125 46 115 137 28 vhcurveto
          endchar
        </CharString>
        <CharString name="florinoldstyle">
          -118 70 594 70 hstem
          -14 89 vstem
          312 325 rmoveto
          -2 18 22 0 22 hhcurveto
          31 31 6 37 6 -1 8 -3 10 hvcurveto
          -32 -5 -39 -4 -37 -3 3 19 rcurveline
          72 11 13 77 55 hhcurveto
          15 10 -12 -37 6 hvcurveto
          33 7 50 18 41 vvcurveto
          28 -25 25 -62 -134 -50 -110 -124 -26 vhcurveto
          -18 hlineto
          -20 -1 -23 -6 -27 vvcurveto
          -4 1 -11 callgsubr
          vhcurveto
          15 2 19 2 16 1 -54 -256 rcurveline
          -82 -17 -9 -45 -37 hhcurveto
          -11 -11 10 39 hvcurveto
          -39 -7 -50 -19 -43 vvcurveto
          -27 20 -23 60 128 48 104 127 26 vhcurveto
          endchar
        </CharString>
        <CharString name="four">
          11 -21 210 77 397 -20 hstem
          281 109 vstem
          349 548 rmoveto
          -11 -83 -11 -97 -12 -88 rrcurveto
          -2 -36 -40 -1 -39 hhcurveto
          -22 -21 0 1 -21 hvcurveto
          67 95 85 107 61 68 rrcurveto
          7 113 rmoveto
          -64 -54 -185 -228 -63 -95 -21 callgsubr
          -66 -13 -82 -24 vvcurveto
          -26 11 -12 39 18 32 3 5 13 vhcurveto
          -3 19 -1 20 20 vvcurveto
          45 5 46 8 53 vhcurveto
          58 3 52 -8 38 callsubr
          -42 -6 -37 -3 20 171 24 113 18 104 rrcurveto
          2 -11 -29 1 -14 hhcurveto
          -23 -25 -3 -10 -16 hvcurveto
          endchar
        </CharString>
        <CharString name="fouroldstyle">
          60 -139 -21 200 74 370 -20 hstem
          244 106 vstem
          278 117 rmoveto
          -2 -36 -40 -1 -39 hhcurveto
          -22 -23 0 1 -21 hvcurveto
          65 85 87 98 59 60 rrcurveto
          11 113 rmoveto
          -64 -50 -185 -210 -63 -87 -21 callgsubr
          -63 -13 -78 -23 vvcurveto
          -25 11 -11 39 18 29 3 5 13 vhcurveto
          44 callsubr
          19 19 vvcurveto
          43 5 44 8 50 vhcurveto
          58 3 53 -11 38 callsubr
          -43 -6 -37 -3 19 158 21 107 17 96 rrcurveto
          2 -10 -23 1 -13 hhcurveto
          -23 -25 -3 -10 -16 hvcurveto
          endchar
        </CharString>
        <CharString name="fraction">
          -188 -86 -21 847 -20 hstem
          -144 -53 -93 callgsubr
          endchar
        </CharString>
        <CharString name="ft">
          253 17 callsubr
          69 343 70 -70 178 -86 26 callgsubr
          410 105 hintmask 00000000
          hintmask 11101011
          213 472 rmoveto
          84 6 19 86 52 hhcurveto
          hintmask 11101101
          21 26 44 callgsubr
          -48 callgsubr
          -63 16 -55 -146 -51 -107 -134 -13 vhcurveto
          -13 hlineto
          -86 callsubr
          -91 callsubr
          238 hlineto
          -92 callsubr
          47 25 151 11 71 hvcurveto
          -78 callsubr
          -29 callsubr
          hintmask 11010011
          -49 callgsubr
          endchar
        </CharString>
        <CharString name="ft_alt">
          246 -204 83 111 69 343 71 -71 178 -87 -21 105 -37 callgsubr
          hintmask 00000000
          hintmask 11100100
          438 402 rmoveto
          -92 callsubr
          hvcurveto
          hintmask 11100010
          47 25 151 11 71 vhcurveto
          -78 callsubr
          hintmask 11010010
          -29 callsubr
          hintmask 11001100
          -49 callgsubr
          -239 hlineto
          hintmask 11100100
          83 6 22 86 48 hhcurveto
          20 29 -10 -55 14 hvcurveto
          -48 callgsubr
          -66 16 -53 -142 -54 -107 -134 -13 vhcurveto
          -13 hlineto
          -86 callsubr
          rrcurveto
          -318 -101 callsubr
          12 124 rrcurveto
          endchar
        </CharString>
        <CharString name="g">
          50 -253 66 177 76 352 67 hstem
          150 146 vstem
          209 66 rmoveto
          -31 -28 46 79 118 41 109 74 24 33 -15 -27 24 hvcurveto
          -8 -47 -9 -56 -10 -67 rrcurveto
          -87 -34 -44 -53 -32 hhcurveto
          58 419 rmoveto
          -138 -102 -149 -166 -91 38 -89 91 39 58 21 69 43 hvcurveto
          -176 -9 -47 -91 -92 hhcurveto
          -42 -27 32 38 -12 hvcurveto
          -44 -17 -20 -25 -23 vvcurveto
          -37 56 -34 81 258 -12 249 166 25 vhcurveto
          13 86 16 97 20 83 rrcurveto
          43 -61 -73 14 -59 hhcurveto
          endchar
        </CharString>
        <CharString name="germandbls">
          78 -106 -21 117 71 541 71 hstemhm
          189 71 -35 95 34 106 -91 91 -91 105 hintmask 00000000
          hintmask 11110001
          260 127 rmoveto
          -39 -9 -32 -17 -39 vvcurveto
          hintmask 11101100
          -42 55 -30 59 91 80 72 79 vhcurveto
          118 -154 37 66 69 140 4 143 vvcurveto
          63 -60 32 -72 -89 -132 -72 -150 -15 vhcurveto
          -39 -409 -36 -108 -45 -13 rrcurveto
          -31 10 22 -17 27 hhcurveto
          52 28 57 39 10 hvcurveto
          11 45 30 193 28 276 rrcurveto
          92 9 68 27 38 hhcurveto
          hintmask 11110010
          29 20 -20 -37 hvcurveto
          -97 -129 -11 -89 -100 144 -16 -97 vvcurveto
          -41 -23 -33 -31 -26 -27 21 45 -2 vhcurveto
          endchar
        </CharString>
        <CharString name="grave">
          -225 545 -21 206 -20 hstem
          -28 633 rmoveto
          -70 callsubr
          -103 callgsubr
          endchar
        </CharString>
        <CharString name="greater">
          39 -21 460 -20 hstem
          109 60 rmoveto
          -29 13 24 -13 22 hhcurveto
          13 12 4 9 11 hvcurveto
          250 212 -188 222 rlineto
          9 -9 -12 4 -14 hhcurveto
          -26 -27 -17 -23 -15 hvcurveto
          33 -33 118 -124 34 -37 rrcurveto
          endchar
        </CharString>
        <CharString name="greaterequal">
          -24 -21 166 71 117 79 171 -20 hstem
          496 162 rmoveto
          13 0 11 -5 14 vhcurveto
          -6 -58 -82 -2 -75 hhcurveto
          26 45 17 33 25 45 rrcurveto
          -4 31 55 -2 15 hhcurveto
          29 22 22 27 13 -1 11 -5 15 hvcurveto
          -24 -3 -55 -4 -25 -1 rrcurveto
          56 104 15 18 17 vvcurveto
          17 -16 10 -30 4 vhcurveto
          -19 -47 -38 -61 -34 -63 rrcurveto
          -88 -60 7 -41 -16 callgsubr
          -9 1 -10 4 -20 hvcurveto
          5 48 84 5 64 hhcurveto
          -68 -122 rlineto
          -19 -38 4 -24 hhcurveto
          -32 -20 -21 -27 -9 1 -11 4 -20 hvcurveto
          21 2 31 2 33 2 -56 -102 rcurveline
          -5 -9 -6 -12 -8 vvcurveto
          -19 19 -8 27 -4 vhcurveto
          18 44 33 53 38 69 rrcurveto
          103 53 -8 60 hhcurveto
          17 26 23 26 hvcurveto
          endchar
        </CharString>
        <CharString name="guillemotleft">
          94 56 34 callgsubr
          513 400 rmoveto
          -80 callgsubr
          -220 hmoveto
          -80 callgsubr
          endchar
        </CharString>
        <CharString name="guillemotright">
          94 57 34 callgsubr
          15 72 rmoveto
          -82 callsubr
          220 hmoveto
          -82 callsubr
          endchar
        </CharString>
        <CharString name="guilsinglleft">
          -126 56 34 callgsubr
          293 400 rmoveto
          -80 callgsubr
          endchar
        </CharString>
        <CharString name="guilsinglright">
          -126 58 34 callgsubr
          15 73 rmoveto
          -82 callsubr
          endchar
        </CharString>
        <CharString name="h">
          51 11 -21 417 77 259 -20 hstemhm
          35 118 -60 -4 callgsubr
          63 25 callsubr
          hintmask 11110001
          173 -72 callsubr
          hintmask 11110010
          -63 36 -27 36 vhcurveto
          hintmask 11110001
          33 34 23 39 6 hvcurveto
          -66 callsubr
          -46 -57 -30 -59 -41 vhcurveto
          12 67 26 183 34 vvcurveto
          hintmask 11110010
          33 -17 31 -45 vhcurveto
          hintmask 11101001
          16 callsubr
          hvcurveto
          hintmask 11100110
          17 callgsubr
          -71 -85 -453 -70 vvcurveto
          hintmask 11110010
          -85 callgsubr
          endchar
        </CharString>
        <CharString name="hungarumlaut">
          -42 544 -21 204 -20 hstem
          395 672 rmoveto
          -50 callgsubr
          -176 hmoveto
          -50 callgsubr
          endchar
        </CharString>
        <CharString name="hyphen">
          -183 228 71 -61 -21 92 -64 callsubr
          hintmask 01100000
          243 309 rmoveto
          -8 -31 -28 -2 -25 -32 -29 4 -17 41 callsubr
          -42 -14 -33 -34 hvcurveto
          hintmask 01100000
          -6 0 -7 1 -6 vhcurveto
          9 40 30 2 21 31 18 -5 24 41 callsubr
          40 16 30 33 8 -1 7 -2 8 hvcurveto
          endchar
        </CharString>
        <CharString name="i">
          -202 11 -21 541 21 callgsubr
          40 105 -58 113 -113 136 5 callsubr
          150 -18 callgsubr
          hvcurveto
          hintmask 11100000
          -100 callsubr
          hvcurveto
          -63 -165 -17 callsubr
          vhcurveto
          hintmask 11010000
          40 25 29 33 5 hvcurveto
          -45 callsubr
          1 callgsubr
          vhcurveto
          hintmask 11001000
          -30 callgsubr
        </CharString>
        <CharString name="iacute">
          -200 11 -21 719 -20 hstem
          231 611 -74 callgsubr
          -107 callsubr
          -147 -245 rmoveto
          -87 callsubr
          1 callgsubr
          vhcurveto
          -30 callgsubr
        </CharString>
        <CharString name="icircumflex">
          -200 11 -21 494 18 callgsubr
          48 105 -69 113 -6 callgsubr
          274 568 rmoveto
          hintmask 11110000
          -56 callsubr
          -56 -36 -67 -62 -46 -47 rrcurveto
          -18 7 8 -8 15 hhcurveto
          27 50 38 37 48 hvcurveto
          hintmask 11101000
          0 57 -40 32 -47 vhcurveto
          21 9 22 17 23 vvcurveto
          -190 -202 rmoveto
          -87 callsubr
          1 callgsubr
          vhcurveto
          -30 callgsubr
        </CharString>
        <CharString name="idieresis">
          -202 11 -21 541 21 callgsubr
          -3 129 -86 105 -58 113 -30 30 -30 129 hintmask 00000000
          hintmask 11100010
          87 366 rmoveto
          -73 -47 -79 callsubr
          32 55 214 67 vvcurveto
          44 -30 19 -32 1 callgsubr
          vhcurveto
          18 -9 9 -19 -23 vvcurveto
          139 165 rmoveto
          -76 callgsubr
          hvcurveto
          hintmask 11001000
          -77 callsubr
          vhcurveto
          hintmask 11010100
          -100 callsubr
          hvcurveto
          -173 hmoveto
          -68 callsubr
          hvcurveto
          hintmask 11001000
          -100 callsubr
          hvcurveto
          endchar
        </CharString>
        <CharString name="igrave">
          -200 11 -21 740 -20 hstemhm
          48 105 -69 113 5 callsubr
          27 633 rmoveto
          hintmask 11100000
          -70 callsubr
          11 10 8 16 16 vvcurveto
          13 -6 12 -13 9 vhcurveto
          -25 18 -85 66 -36 46 rrcurveto
          hintmask 11010000
          -89 callgsubr
          57 -267 rmoveto
          -87 callsubr
          1 callgsubr
          vhcurveto
          -30 callgsubr
        </CharString>
        <CharString name="infinity">
          304 111 69 165 70 hstem
          32 74 526 74 vstem
          632 266 rmoveto
          -50 -36 -36 -50 -35 -45 30 55 -51 vhcurveto
          32 33 50 48 49 hhcurveto
          46 39 -28 -51 hvcurveto
          -440 -86 rmoveto
          -49 -37 37 42 47 33 39 47 62 59 -63 -24 20 hvcurveto
          -36 -37 -46 -42 -52 hhcurveto
          -2 235 rmoveto
          -90 -68 -65 -88 -86 67 -65 87 77 58 49 47 47 hvcurveto
          -66 66 49 -30 62 hhcurveto
          82 79 54 99 87 -63 64 -87 -80 -53 -50 -50 -52 hvcurveto
          53 -50 -55 47 -76 hhcurveto
          endchar
        </CharString>
        <CharString name="integral">
          -111 -174 68 778 67 hstem
          339 624 rmoveto
          40 3 50 25 35 vvcurveto
          30 -27 22 -45 -175 -44 -290 -177 -11 vhcurveto
          -158 -10 -15 -220 -51 hhcurveto
          -12 -6 19 28 -7 hvcurveto
          -40 -3 -49 -23 -37 vvcurveto
          -29 26 -23 45 107 82 108 239 27 vhcurveto
          14 121 14 129 15 121 rrcurveto
          61 8 15 67 23 hhcurveto
          12 8 -19 -29 6 hvcurveto
          endchar
        </CharString>
        <CharString name="j">
          -181 -253 65 719 21 callgsubr
          101 113 -113 136 5 callgsubr
          164 -22 callgsubr
          -47 7 callgsubr
          -50 -39 -240 -21 -125 vhcurveto
          -94 -16 -51 -45 -40 hhcurveto
          -29 -26 24 47 -9 hvcurveto
          -15 -6 -45 -21 -38 vvcurveto
          -39 57 -32 69 85 103 40 203 33 vhcurveto
          16 97 41 280 54 vvcurveto
          33 -19 30 -43 vhcurveto
          endchar
        </CharString>
        <CharString name="j_alt">
          -180 -217 75 673 21 callgsubr
          91 113 -113 136 5 callgsubr
          154 -22 callgsubr
          -48 7 callgsubr
          -32 -38 -271 -10 -70 vhcurveto
          -62 -8 -9 -72 -68 hhcurveto
          -12 -13 3 6 -13 hvcurveto
          -7 -17 -5 -15 -13 vvcurveto
          -24 17 -15 46 94 54 67 110 19 vhcurveto
          50 291 16 145 24 vvcurveto
          33 -19 30 -43 vhcurveto
          endchar
        </CharString>
        <CharString name="k">
          42 11 -21 418 76 259 -20 hstemhm
          35 118 -60 -4 callgsubr
          100 123 hintmask 00000000
          hintmask 11101010
          346 484 rmoveto
          -40 -61 -19 -77 -51 hvcurveto
          13 74 26 183 34 3 callgsubr
          -71 -85 -453 -70 vvcurveto
          -76 callsubr
          5 48 16 109 vhcurveto
          83 29 56 58 30 hhcurveto
          32 12 -31 -32 -55 -37 -48 -53 -12 -13 3 5 -13 hvcurveto
          -8 -12 -5 -12 -12 vvcurveto
          -14 6 -5 10 -6 vhcurveto
          -132 47 33 -67 77 hhcurveto
          hintmask 11100110
          40 33 15 37 hvcurveto
          hintmask 11110010
          9 -1 12 -3 11 vhcurveto
          -2 -10 -9 -1 -8 hhcurveto
          -22 -19 6 20 -17 hvcurveto
          -20 23 -18 34 -16 33 rrcurveto
          98 13 63 98 80 vvcurveto
          58 -33 48 -77 vhcurveto
          endchar
        </CharString>
        <CharString name="l">
          -205 11 -21 753 -20 hstem
          105 113 vstem
          156 743 rmoveto
          16 callsubr
          hvcurveto
          17 callgsubr
          vvcurveto
          -6 -104 -64 -352 -88 -1 callgsubr
          7 82 71 421 67 -38 callsubr
          vhcurveto
          endchar
        </CharString>
        <CharString name="less">
          39 -21 460 -20 hstem
          456 436 rmoveto
          29 -13 -24 13 -22 hhcurveto
          -13 -12 -4 -9 -11 hvcurveto
          -250 -212 188 -222 rlineto
          -9 9 12 -4 14 hhcurveto
          26 27 17 23 15 hvcurveto
          -33 33 -118 124 -34 37 rrcurveto
          endchar
        </CharString>
        <CharString name="lessequal">
          14 69 -57 -21 481 -64 callsubr
          hintmask 10100000
          448 58 rmoveto
          12 0 6 -5 15 vhcurveto
          -7 -58 -48 -1 -47 hhcurveto
          -13 -30 1 1 -23 hvcurveto
          1 -20 -20 1 -9 hhcurveto
          -32 -11 -28 -21 -10 0 -4 4 -19 hvcurveto
          5 49 56 4 51 hhcurveto
          26 24 -2 -1 17 hvcurveto
          -1 16 14 -1 16 hhcurveto
          26 17 22 27 hvcurveto
          -322 243 rmoveto
          212 -167 rlineto
          -6 8 17 -10 10 hhcurveto
          hintmask 01100000
          25 23 26 24 9 hvcurveto
          hintmask 10100000
          -16 12 -37 25 -34 22 -42 28 -44 31 -22 15 97 66 73 53 24 17 rrcurveto
          27 -9 -24 22 -23 hhcurveto
          -11 -12 -8 -7 -8 hvcurveto
          endchar
        </CharString>
        <CharString name="logicalnot">
          71 -21 216 66 hstem
          394 92 vstem
          485 332 rmoveto
          -359 hlineto
          -44 -14 -20 -24 -12 5 -14 7 -17 hvcurveto
          17 48 47 4 14 hhcurveto
          205 -27 hlineto
          -57 0 -64 -16 -54 vhcurveto
          -9 17 19 -5 14 hhcurveto
          49 10 18 40 hvcurveto
          endchar
        </CharString>
        <CharString name="lozenge">
          78 21 -21 686 -20 hstem
          409 342 rmoveto
          -175 -260 -103 261 175 262 rlineto
          -268 -262 rmoveto
          128 -321 rlineto
          -18 7 23 -4 26 hhcurveto
          22 25 6 16 14 hvcurveto
          219 321 -129 321 rlineto
          17 -7 -25 5 -24 hhcurveto
          -25 -23 -5 -15 -12 hvcurveto
          endchar
        </CharString>
        <CharString name="lslash">
          -208 11 -21 753 -20 hstem
          135 113 vstem
          -27 285 rmoveto
          23 callsubr
          34 26 27 22 39 28 rrcurveto
          -15 -87 -12 -79 -35 -1 callgsubr
          3 37 19 109 19 113 111 77 18 callsubr
          -25 -20 -29 -24 -33 -24 rrcurveto
          17 102 15 92 29 3 callgsubr
          vvcurveto
          -3 -48 -18 -106 -18 -99 rrcurveto
          endchar
        </CharString>
        <CharString name="m">
          304 25 callgsubr
          87 118 133 25 callsubr
          hintmask 11101010
          182 259 rmoveto
          75 22 52 73 37 hhcurveto
          26 11 -25 -34 hvcurveto
          -62 -42 -222 -33 vvcurveto
          hintmask 11101100
          -88 callgsubr
          46 8 78 14 86 vhcurveto
          69 24 49 69 36 hhcurveto
          23 15 -20 -45 hvcurveto
          -46 -36 -139 -77 vvcurveto
          -40 callsubr
          hintmask 11101010
          -34 16 -3 23 17 vvcurveto
          hintmask 11101100
          3 55 34 158 37 vvcurveto
          hintmask 11011010
          72 -35 54 -67 -50 -57 -35 -68 -36 vhcurveto
          hintmask 11101100
          60 -7 -35 43 -59 hhcurveto
          -48 -55 -33 -65 -37 hvcurveto
          2 12 1 12 12 vvcurveto
          -58 callgsubr
          -85 callgsubr
          endchar
        </CharString>
        <CharString name="macron">
          -45 557 66 -53 -21 82 -64 callsubr
          hintmask 01100000
          396 631 rmoveto
          -5 -43 -46 -3 -63 -27 -58 6 -14 41 callsubr
          -40 -13 -32 -33 hvcurveto
          hintmask 01100000
          -4 0 -5 1 -6 vhcurveto
          7 49 53 1 15 hhcurveto
          20 hlineto
          hintmask 10000000
          43 36 -6 33 hhcurveto
          49 5 43 37 hvcurveto
          endchar
        </CharString>
        <CharString name="minus">
          217 71 -61 -21 92 -64 callsubr
          hintmask 01100000
          495 258 rmoveto
          10 0 9 -7 21 vhcurveto
          -8 -41 -39 -2 -34 41 callsubr
          -128 hlineto
          hintmask 01100000
          -45 -47 4 -24 hhcurveto
          -39 -13 -24 -22 -7 0 -9 5 -24 hvcurveto
          9 55 38 2 30 41 callsubr
          117 hlineto
          42 45 -5 33 hhcurveto
          32 20 18 28 hvcurveto
          endchar
        </CharString>
        <CharString name="mu">
          69 33 callsubr
          77 417 -20 hstemhm
          9 107 -26 113 98 112 -63 -23 callgsubr
          hintmask 11101100
          203 -14 callsubr
          -33 -20 -99 -11 -68 vhcurveto
          -22 -130 -28 -149 -58 vvcurveto
          hintmask 11110100
          -42 12 -48 47 19 26 9 46 30 vhcurveto
          -20 14 -7 36 39 vvcurveto
          44 9 49 10 25 vhcurveto
          -13 15 16 -6 15 hhcurveto
          47 45 51 47 31 hvcurveto
          -89 callsubr
          hintmask 11101010
          -94 callgsubr
          endchar
        </CharString>
        <CharString name="multiply">
          58 -21 433 -20 hstem
          431 470 rmoveto
          -32 -40 -83 -87 -31 -31 -91 100 -19 20 -7 7 rrcurveto
          9 -9 -13 4 -13 hhcurveto
          -33 -21 -27 -19 -12 hvcurveto
          38 -34 74 -70 49 -47 -32 -29 -86 -77 -16 -18 rrcurveto
          -11 -11 -4 -9 -8 vvcurveto
          -27 28 -19 30 -20 vhcurveto
          37 45 61 67 49 48 26 -25 70 -79 23 -23 rrcurveto
          -7 7 13 -4 14 hhcurveto
          32 24 24 21 11 hvcurveto
          -40 32 -100 96 -22 22 31 28 74 71 28 25 rrcurveto
          11 11 4 8 10 vvcurveto
          21 -33 28 -26 14 vhcurveto
          endchar
        </CharString>
        <CharString name="n">
          70 25 callgsubr
          104 25 callsubr
          hintmask 11100100
          182 -72 callsubr
          hintmask 11101000
          -40 callsubr
          -66 callsubr
          -48 -61 -33 -65 -41 vhcurveto
          2 12 1 12 12 vvcurveto
          hintmask 11100100
          42 -30 20 -32 27 callsubr
          -35 -37 -23 -44 -6 hvcurveto
          hintmask 11010100
          17 -7 11 -24 -23 -51 -45 -250 -31 vvcurveto
          hintmask 11101000
          -85 callgsubr
          endchar
        </CharString>
        <CharString name="nine">
          -10 76 196 75 261 76 hstem
          89 110 206 108 vstem
          294 337 rmoveto
          -57 -38 40 67 75 41 79 75 71 19 -63 -77 -20 -2 -35 -5 -24 hvcurveto
          -29 -37 -35 -13 -32 hhcurveto
          41 337 rmoveto
          -143 -103 -129 -116 -103 75 -64 88 43 45 17 29 46 hvcurveto
          -128 -34 -84 -114 -130 hhcurveto
          -10 -10 2 2 -10 hvcurveto
          -8 -12 -6 -17 -15 vvcurveto
          -19 9 -17 27 233 150 261 215 112 -47 96 -131 vhcurveto
          endchar
        </CharString>
        <CharString name="nineoldstyle">
          15 -161 72 155 69 279 70 hstem
          26 105 191 102 vstem
          257 484 rmoveto
          -145 -86 -148 -121 -81 38 -68 104 39 45 9 29 16 -6 12 -6 10 hvcurveto
          -5 -11 -11 -2 -15 hhcurveto
          -42 -30 33 69 73 32 104 78 60 21 -56 -74 -154 -87 -219 -176 -10 -11 2 2 -9 hvcurveto
          -9 -13 -7 -17 -15 vvcurveto
          -17 9 -14 42 214 146 257 196 108 -45 84 -122 vhcurveto
          endchar
        </CharString>
        <CharString name="notequal">
          9 78 -61 -21 481 -64 callsubr
          hintmask 10100000
          126 58 rmoveto
          -27 17 -22 26 16 14 1 1 16 vhcurveto
          1 17 24 2 26 hhcurveto
          51 56 -4 -5 49 hvcurveto
          4 19 0 4 10 vvcurveto
          21 -11 28 -32 -9 -20 -1 -1 -20 vhcurveto
          -1 -23 -30 -1 -13 hhcurveto
          -47 -48 1 7 -58 hvcurveto
          -5 -15 0 -6 -12 vvcurveto
          106 413 rmoveto
          7 -8 -12 8 -11 hhcurveto
          -23 -24 -22 -27 -9 hvcurveto
          194 -136 rlineto
          hintmask 01100000
          -195 -133 rlineto
          -24 9 23 -26 25 hhcurveto
          hintmask 10100000
          10 13 9 6 8 hvcurveto
          67 55 82 61 67 53 rrcurveto
          endchar
        </CharString>
        <CharString name="ntilde">
          70 11 -21 417 77 46 -4 callsubr
          44 32 callgsubr
          104 108 -72 101 28 callgsubr
          hintmask 1110110010000000
          182 -72 callsubr
          -40 callsubr
          hintmask 1101010100000000
          -66 callsubr
          -48 -61 -33 -65 -41 vhcurveto
          2 12 1 12 12 vvcurveto
          hintmask 1110110010000000
          -58 callgsubr
          hintmask 1110101100000000
          -85 callgsubr
          260 361 rmoveto
          -84 callgsubr
          hintmask 1110110100000000
          -55 -59 -43 -38 -5 hvcurveto
          -20 14 -11 14 -7 vhcurveto
          36 34 12 10 12 21 34 -44 50 hhcurveto
          47 72 44 46 hvcurveto
          endchar
        </CharString>
        <CharString name="numbersign">
          49 -21 177 65 121 66 166 -20 hstem
          446 459 rmoveto
          17 54 22 65 -14 callgsubr
          -115 hlineto
          17 54 23 67 -14 callgsubr
          -61 -3 callgsubr
          -11 -38 -11 -39 -10 -39 rrcurveto
          -65 -3 callgsubr
          rrcurveto
          -17 -60 -21 -63 -20 callgsubr
          15 57 6 22 rrcurveto
          118 hlineto
          -17 -60 -21 -65 -20 callgsubr
          13 54 6 22 -13 callgsubr
          -50 -3 -46 -2 10 37 11 42 12 38 -13 callgsubr
          -47 -1 -46 -2 rrcurveto
          -236 -189 rmoveto
          10 40 15 45 11 36 rrcurveto
          118 hlineto
          -33 -121 rlineto
          endchar
        </CharString>
        <CharString name="o">
          67 -30 callsubr
          hstem
          -43 callsubr
          vstem
          213 -10 -98 callsubr
          -53 -29 64 81 106 42 111 77 hvcurveto
          endchar
        </CharString>
        <CharString name="oacute">
          67 -30 callsubr
          225 -20 hstem
          -43 callsubr
          vstem
          412 611 -74 callgsubr
          -107 callsubr
          -199 -621 -98 callsubr
          -53 -29 64 81 106 42 111 77 hvcurveto
          endchar
        </CharString>
        <CharString name="ocircumflex">
          67 -30 callsubr
          15 callsubr
          -43 callsubr
          hintmask 00000000
          hintmask 11011100
          434 568 rmoveto
          -56 callsubr
          -105 callgsubr
          -221 -578 -98 callsubr
          hvcurveto
          hintmask 10111100
          -68 callgsubr
          endchar
        </CharString>
        <CharString name="odieresis">
          67 -30 callsubr
          47 139 43 callsubr
          10 -46 callsubr
          -112 124 hintmask 00000000
          hintmask 11111100
          213 -10 -98 callsubr
          -53 -29 64 81 106 42 111 77 hvcurveto
          120 113 -62 callgsubr
        </CharString>
        <CharString name="oe">
          333 -30 callsubr
          hstem
          27 123 200 120 145 124 vstem
          615 358 -90 callgsubr
          -346 60 rmoveto
          -13 callsubr
          -56 -428 rmoveto
          66 59 24 55 45 hvcurveto
          -62 38 63 -17 60 hhcurveto
          -61 callgsubr
          -1 9 13 -1 11 hhcurveto
          30 52 3 20 47 hvcurveto
          67 28 40 71 64 vvcurveto
          64 -40 57 -95 -55 -57 -19 -60 -55 vhcurveto
          59 -32 -53 20 -69 hhcurveto
          -151 -105 -134 -165 -122 69 -73 117 hvcurveto
          endchar
        </CharString>
        <CharString name="ogonek">
          -49 -210 -21 55 -20 211 -20 hstem
          90 94 vstem
          257 15 rmoveto
          -76 -32 -91 -47 -88 vvcurveto
          -59 50 -20 51 37 66 14 44 10 -5 12 -23 16 vhcurveto
          -32 -25 -21 -9 -12 hhcurveto
          -14 -10 11 23 74 72 43 54 26 hvcurveto
          endchar
        </CharString>
        <CharString name="ograve">
          67 -30 callsubr
          246 -20 hstem
          -43 callsubr
          vstem
          159 633 rmoveto
          -70 callsubr
          -103 callgsubr
          54 -643 -98 callsubr
          -53 -29 64 81 106 42 111 77 hvcurveto
          endchar
        </CharString>
        <CharString name="one">
          0 71 -52 -21 675 -64 callsubr
          hintmask 10100000
          329 68 rmoveto
          2 54 7 60 17 137 rrcurveto
          20 162 31 140 22 vvcurveto
          hintmask 01100000
          23 -21 7 -17 vhcurveto
          hintmask 10100000
          -14 -80 -9 -7 -48 hvcurveto
          -39 -6 -9 -23 -51 vvcurveto
          hintmask 01100000
          29 6 55 5 30 2 -7 -69 -12 -89 -10 -79 -17 -127 -10 -89 -11 -66 rrcurveto
          -64 hlineto
          -41 -18 -17 -35 -6 1 -11 callgsubr
          hvcurveto
          1 31 50 0 27 75 67 -2 26 hhcurveto
          34 12 27 27 6 -1 8 -1 6 hvcurveto
          -3 -24 -40 -1 -31 hhcurveto
          endchar
        </CharString>
        <CharString name="onehalf">
          533 -86 -21 108 66 149 64 108 64 222 -20 86 -20 hstem
          66 179 568 92 vstem
          647 324 -34 callsubr
          -33 callsubr
          -54 callsubr
          -331 -63 rmoveto
          6 0 4 -3 11 vhcurveto
          -21 -2 -25 -3 -22 -1 rrcurveto
          -95 callgsubr
          -112 -314 -93 callgsubr
          endchar
        </CharString>
        <CharString name="oneoldstyle">
          -111 0 71 -52 -21 486 -64 callsubr
          hintmask 10100000
          206 68 rmoveto
          37 5 41 7 53 vhcurveto
          20 151 22 81 24 vvcurveto
          hintmask 01100000
          23 -29 6 -15 -15 -44 -6 -10 -49 vhcurveto
          -38 -8 -15 -18 -22 vvcurveto
          -10 0 -8 4 -10 vhcurveto
          29 6 33 4 30 4 -15 -122 -16 -106 -15 -107 rrcurveto
          -46 hlineto
          -40 -19 -16 -34 -7 1 -9 2 -6 hvcurveto
          1 31 38 0 28 74 40 -2 25 hhcurveto
          32 12 28 28 7 -1 6 -1 5 hvcurveto
          -2 -19 -26 -2 -30 hhcurveto
          endchar
        </CharString>
        <CharString name="onequarter">
          518 -86 -21 97 -20 156 65 25 64 394 -20 86 -20 hstem
          66 179 470 90 vstem
          316 261 rmoveto
          6 0 4 -3 11 vhcurveto
          -21 -2 -25 -3 -22 -1 rrcurveto
          -95 callgsubr
          -112 -314 -93 callgsubr
          210 -179 rmoveto
          -6 -48 -8 -45 -7 -65 rrcurveto
          -125 hlineto
          49 70 65 56 32 32 rrcurveto
          97 106 rmoveto
          1 -12 -9 1 -16 hhcurveto
          -22 -20 -3 -10 -12 hvcurveto
          -59 -48 -110 -117 -56 -81 rrcurveto
          -4 -13 -2 -13 -8 vvcurveto
          -16 9 -13 19 -2 vhcurveto
          -5 43 48 -2 46 hhcurveto
          -74 callsubr
        </CharString>
        <CharString name="onesuperior">
          -52 216 64 -46 -21 461 -20 hstemhm
          66 179 hintmask 00000000
          hintmask 10110000
          316 261 rmoveto
          6 0 4 -3 11 vhcurveto
          hintmask 01110000
          -21 -2 -25 -3 -22 -1 rrcurveto
          hintmask 10110000
          -95 callgsubr
          endchar
        </CharString>
        <CharString name="ordfeminine">
          -94 250 51 -41 -21 355 49 hstemhm
          48 77 86 58 -58 75 hintmask 00000000
          hintmask 10111000
          188 643 rmoveto
          -40 -73 -16 -41 -13 15 -13 39 -3 hvcurveto
          24 6 26 13 13 hhcurveto
          hintmask 01111000
          28 9 -10 -28 hvcurveto
          hintmask 10111000
          -8 -1 -9 -1 -12 vhcurveto
          -31 -37 -2 -6 -24 hvcurveto
          -45 -13 -24 -26 -47 vvcurveto
          -53 41 -14 36 24 25 6 20 24 vhcurveto
          -20 3 10 -2 19 hhcurveto
          16 19 5 3 7 hvcurveto
          -2 11 -1 11 12 56 17 69 33 vvcurveto
          56 -36 17 -62 vhcurveto
          82 -332 -67 callsubr
          -77 121 rmoveto
          hintmask 10110100
          -13 -15 -12 -5 -15 hhcurveto
          -14 -12 10 20 36 41 7 35 6 hvcurveto
          endchar
        </CharString>
        <CharString name="ordmasculine">
          -59 250 51 -41 -21 127 50 177 50 hstemhm
          44 75 119 74 hintmask 00000000
          hintmask 10111100
          270 311 -67 callsubr
          hintmask 01111100
          -105 105 rmoveto
          -32 -14 31 42 54 22 50 48 32 17 -31 -42 -49 -21 -55 -52 hvcurveto
          -6 -50 rmoveto
          95 58 72 91 71 -44 43 -73 -94 -57 -74 -88 hvcurveto
          hintmask 10111100
          -71 43 -44 72 vhcurveto
          endchar
        </CharString>
        <CharString name="oslash">
          80 -63 -21 74 66 362 66 80 -20 hstem
          -43 callsubr
          vstem
          350 269 rmoveto
          -105 -42 -108 -76 -13 -12 4 7 -10 vhcurveto
          151 233 rlineto
          1 -10 1 -10 -11 vvcurveto
          -81 149 rmoveto
          20 16 -10 -16 13 hvcurveto
          -44 -68 -51 -76 -68 -105 rrcurveto
          -3 17 -2 20 21 vvcurveto
          106 42 111 77 vhcurveto
          -56 -428 rmoveto
          150 111 132 165 57 -16 48 -29 33 hvcurveto
          54 85 4 7 9 vvcurveto
          22 -28 14 -35 2 vhcurveto
          -20 -33 -18 -32 -20 -30 rrcurveto
          9 -24 -28 6 -31 hhcurveto
          -151 -105 -134 -165 -67 20 -52 38 -34 hvcurveto
          -29 -44 -15 -21 -13 vvcurveto
          -21 25 -15 38 -2 vhcurveto
          18 35 15 23 15 24 rrcurveto
          -5 18 21 -3 22 hhcurveto
          endchar
        </CharString>
        <CharString name="otilde">
          67 -30 callsubr
          56 -4 callsubr
          -43 callsubr
          hintmask 00000000
          hintmask 11101110
          448 630 -98 callgsubr
          hintmask 11010110
          -235 -640 rmoveto
          150 111 132 165 122 -71 75 -120 -151 -105 -134 -165 -122 69 -73 117 hvcurveto
          56 428 rmoveto
          hintmask 11101110
          -13 callsubr
          endchar
        </CharString>
        <CharString name="p">
          71 33 callsubr
          65 352 77 hstem
          13 110 232 123 vstem
          188 278 -48 callsubr
          -44 206 rmoveto
          -34 -43 -23 -44 -4 hvcurveto
          20 -11 7 -17 -23 vvcurveto
          -6 -107 -71 -329 -93 -63 callsubr
          -51 -31 -60 -38 hvcurveto
          1 8 1 11 8 vvcurveto
          37 -21 27 -41 vhcurveto
          endchar
        </CharString>
        <CharString name="paragraph">
          60 -119 80 538 76 hstem
          252 234 rmoveto
          10 106 26 111 14 49 rrcurveto
          2 -1 52 0 0 vvcurveto
          -17 -92 -41 -171 -9 -64 rrcurveto
          -80 -12 1 -131 -93 hhcurveto
          -14 -14 4 8 -15 hvcurveto
          -11 -17 -5 -16 -15 vvcurveto
          -27 29 -17 38 123 43 120 114 13 vhcurveto
          13 110 31 173 21 100 28 1 rcurveline
          43 2 17 13 35 vvcurveto
          8 -1 6 -1 9 vhcurveto
          -1 -32 -31 0 -28 -50 -91 4 -20 hhcurveto
          -110 -104 -84 -129 -89 60 -55 88 13 32 0 16 2 hvcurveto
          endchar
        </CharString>
        <CharString name="parenleft">
          -81 -178 -21 929 -20 hstem
          78 102 vstem
          258 -166 rmoveto
          -47 65 -31 115 136 vvcurveto
          201 81 224 123 126 vhcurveto
          21 -12 -15 8 -19 hhcurveto
          -64 -196 -288 -280 -200 84 -161 48 17 15 8 17 15 hvcurveto
          endchar
        </CharString>
        <CharString name="parenright">
          -81 -178 -21 929 -20 hstem
          173 101 vstem
          93 697 rmoveto
          52 -70 28 -124 -125 vvcurveto
          -197 -80 -222 -124 -129 vhcurveto
          -20 12 14 -9 19 hhcurveto
          55 205 270 296 196 -84 167 -49 -16 -16 -7 -18 -15 hvcurveto
          endchar
        </CharString>
        <CharString name="partialdiff">
          88 -10 69 280 68 194 73 hstem
          29 99 263 98 vstem
          281 339 rmoveto
          30 36 -15 -27 32 hvcurveto
          -113 -24 -61 -125 -97 hhcurveto
          -50 -19 38 48 106 73 88 80 hvcurveto
          -67 335 rmoveto
          -51 -25 -16 -34 -8 1 -13 7 -23 hvcurveto
          13 34 45 8 23 hhcurveto
          94 49 -69 -121 -13 -1 -23 -1 -13 hvcurveto
          25 -24 -54 20 -42 hhcurveto
          -127 -113 -116 -140 -86 47 -75 114 207 92 239 176 164 -85 105 -190 hvcurveto
          endchar
        </CharString>
        <CharString name="percent">
          342 -36 callgsubr
          28 callgsubr
          hintmask 0101111111000000
          231 604 rmoveto
          28 12 -41 -44 -62 -17 callgsubr
          hvcurveto
          346 -336 rmoveto
          28 12 -42 -44 hvcurveto
          hintmask 0110111111000000
          -28 callsubr
          vhcurveto
          31 callsubr
          249 342 rcurveline
          -41 callgsubr
          hintmask 1010111111000000
          -22 31 -15 32 vhcurveto
          360 21 rmoveto
          103 67 92 112 hvcurveto
          hintmask 0110111111000000
          -41 callsubr
          -346 336 rmoveto
          103 67 93 111 hvcurveto
          hintmask 0101111111000000
          19 callgsubr
          vhcurveto
          endchar
        </CharString>
        <CharString name="percentoldstyle">
          385 -33 callgsubr
          28 callgsubr
          hintmask 1110111111000000
          567 -11 -61 callsubr
          -86 callgsubr
          hvcurveto
          hintmask 1101111111000000
          -72 41 -45 73 vhcurveto
          -31 callgsubr
        </CharString>
        <CharString name="period">
          -211 -10 153 hstem
          29 138 vstem
          89 -10 -19 callsubr
        </CharString>
        <CharString name="periodcentered">
          -239 184 153 hstem
          33 138 vstem
          93 184 -19 callsubr
        </CharString>
        <CharString name="perthousand">
          691 -36 callgsubr
          51 92 113 93 28 callgsubr
          hintmask 0101111111110000
          926 268 rmoveto
          28 12 -42 -44 -28 callsubr
          hvcurveto
          -37 -278 rmoveto
          103 67 92 112 hvcurveto
          hintmask 0110111111110000
          -41 callsubr
          -658 614 rmoveto
          28 12 -41 -44 -62 -25 callsubr
          hvcurveto
          hintmask 1010111111110000
          60 28 66 45 vhcurveto
          346 -336 rmoveto
          28 12 -42 -44 -28 callsubr
          hvcurveto
          31 callsubr
          rrcurveto
          hintmask 0110111111110000
          249 342 rlineto
          -41 callgsubr
          hintmask 0101111111110000
          -22 31 -15 32 vhcurveto
          360 21 rmoveto
          103 67 92 112 hvcurveto
          hintmask 0110111111110000
          -41 callsubr
          -346 336 rmoveto
          103 67 93 111 19 callgsubr
          hvcurveto
          endchar
        </CharString>
        <CharString name="perthousandoldstyle">
          714 -33 callgsubr
          61 89 90 89 28 callgsubr
          hintmask 1110111111110000
          896 -11 -61 callsubr
          -75 callgsubr
          -359 -234 -61 callsubr
          hintmask 1101111111110000
          -86 callgsubr
          -72 41 -45 73 hvcurveto
          -31 callgsubr
        </CharString>
        <CharString name="pi">
          57 18 -21 409 66 19 -21 24 -20 hstemhm
          264 105 -7 callsubr
          91 472 rmoveto
          -64 -8 -31 -24 hvcurveto
          hintmask 10101000
          -7 1 -14 12 -16 vhcurveto
          20 12 39 10 23 2 -7 -68 -7 -68 -11 -94 -6 -50 -6 -54 -31 -59 rrcurveto
          -9 18 18 -5 13 hhcurveto
          45 17 18 39 4 hvcurveto
          10 89 23 162 14 101 rrcurveto
          109 hlineto
          -19 -118 -34 -238 -13 vvcurveto
          -27 16 -13 42 15 21 5 8 18 vhcurveto
          -5 14 -2 19 21 vvcurveto
          71 42 225 9 44 vhcurveto
          35 hlineto
          50 23 17 38 7 -4 14 -5 14 hvcurveto
          -24 -60 -53 0 -31 hhcurveto
          -70 hlineto
          -91 -68 1 1 -33 hvcurveto
          endchar
        </CharString>
        <CharString name="plus">
          43 -21 197 78 189 -20 hstem
          241 89 vstem
          280 486 rmoveto
          -13 -13 0 -7 -21 hvcurveto
          6 -52 3 -106 -31 vvcurveto
          -56 -32 7 -46 -16 callgsubr
          -8 0 -10 4 -20 hvcurveto
          47 4 72 4 62 1 rrcurveto
          -60 -7 -43 -50 vvcurveto
          -31 31 -13 27 8 10 0 6 29 vhcurveto
          -6 59 -3 65 66 vvcurveto
          -1 35 65 -6 35 hhcurveto
          31 21 23 26 12 0 10 -6 17 hvcurveto
          -7 -53 -90 -3 -37 hhcurveto
          36 7 78 40 vvcurveto
          26 -26 17 -32 vhcurveto
          endchar
        </CharString>
        <CharString name="plusminus">
          14 71 -60 -21 254 78 150 -20 hstemhm
          241 89 hintmask 00000000
          hintmask 10111000
          488 55 rmoveto
          11 0 10 -6 18 vhcurveto
          -8 -65 -89 -1 -46 -76 -63 7 -25 -18 callsubr
          5 54 62 5 97 41 73 -8 38 hhcurveto
          31 21 22 27 hvcurveto
          -207 431 rmoveto
          -14 -13 0 -7 -20 hvcurveto
          hintmask 01111000
          7 -54 1 -77 -19 vvcurveto
          hintmask 10111000
          -58 -21 7 -45 -16 callgsubr
          -8 0 -10 4 -20 hvcurveto
          47 4 63 4 61 1 rrcurveto
          -61 -6 -6 -28 vvcurveto
          -30 30 -13 27 8 10 0 6 29 vhcurveto
          -5 35 -4 29 67 vvcurveto
          -1 38 51 -6 37 hhcurveto
          31 20 23 26 12 0 10 -5 17 hvcurveto
          -7 -53 -82 -3 -36 hhcurveto
          40 7 37 38 vvcurveto
          26 -26 17 -31 vhcurveto
          endchar
        </CharString>
        <CharString name="product">
          231 18 -21 587 79 2 -20 25 -20 hstemhm
          392 117 hintmask 00000000
          hintmask 11001000
          678 584 rmoveto
          54 7 38 32 hvcurveto
          16 vlineto
          -4 -65 -95 -3 -85 hhcurveto
          -186 hlineto
          -55 -96 2 -22 hhcurveto
          -59 -19 -16 -46 -8 3 -12 4 -10 hvcurveto
          37 7 37 6 48 2 -7 -57 -5 -86 -35 -238 -9 -63 -10 -69 -29 -64 rrcurveto
          -9 18 24 -5 15 hhcurveto
          46 15 21 41 6 hvcurveto
          7 48 9 74 7 51 16 119 17 120 17 118 rrcurveto
          1 48 45 0 90 hhcurveto
          -50 -356 rlineto
          -7 -47 -22 -130 -17 vvcurveto
          hintmask 10011000
          -29 15 -14 43 18 27 5 8 18 vhcurveto
          hintmask 11001000
          44 callsubr
          20 21 vvcurveto
          hintmask 10101000
          54 15 96 22 162 vhcurveto
          10 70 14 74 14 62 rrcurveto
          27 52 -3 15 hhcurveto
          endchar
        </CharString>
        <CharString name="q">
          60 33 callsubr
          76 352 66 hstem
          35 123 107 108 vstem
          327 207 rmoveto
          -82 -29 -48 -59 -31 hhcurveto
          -37 -24 54 71 136 51 91 65 25 27 -13 -29 28 hvcurveto
          -8 -46 -9 -56 -10 -67 rrcurveto
          143 220 rmoveto
          43 -64 -73 14 -59 hhcurveto
          -136 -103 -143 -170 -119 53 -62 75 49 46 25 58 42 hvcurveto
          -21 -115 -14 -76 -44 vvcurveto
          -32 12 -59 60 39 25 26 36 6 vhcurveto
          -19 8 -15 15 26 vvcurveto
          46 72 415 25 108 vhcurveto
          endchar
        </CharString>
        <CharString name="question">
          -52 -10 153 473 68 hstemhm
          76 138 -117 103 82 103 -7 callsubr
          136 -10 rmoveto
          -93 callsubr
          68 233 rmoveto
          -3 13 -1 11 11 vvcurveto
          65 41 34 41 36 27 callsubr
          52 46 51 61 61 vvcurveto
          88 -81 35 -81 -83 -83 -39 -60 -23 22 -14 45 -9 vhcurveto
          46 15 50 31 41 hhcurveto
          28 24 -15 -36 -60 -49 -48 -40 -39 hvcurveto
          -49 -47 -47 -48 -66 vvcurveto
          -28 13 -24 39 14 15 3 8 16 vhcurveto
          endchar
        </CharString>
        <CharString name="questiondown">
          -49 -218 68 481 153 hstemhm
          0 103 68 138 -124 103 -6 callgsubr
          249 -19 callgsubr
          -68 -241 rmoveto
          3 -13 1 -11 -11 vvcurveto
          -65 -41 -34 -41 -36 vhcurveto
          hintmask 11110000
          -52 -46 -51 -61 -61 vvcurveto
          -88 81 -35 81 83 83 39 60 23 -22 14 -45 9 vhcurveto
          -46 -15 -50 -31 -41 hhcurveto
          -28 -24 15 36 60 49 48 40 39 hvcurveto
          49 47 47 48 66 vvcurveto
          28 -13 24 -39 -14 -15 -3 -8 -16 vhcurveto
          endchar
        </CharString>
        <CharString name="quotedbl">
          -35 496 -21 260 -20 hstem
          310 706 rmoveto
          -79 callgsubr
          -197 hmoveto
          -79 callgsubr
          endchar
        </CharString>
        <CharString name="quotedblbase">
          34 -151 55 216 -20 hstemhm
          45 140 -97 97 81 140 -97 97 -6 callgsubr
          309 -16 rmoveto
          -38 -26 -42 -39 vhcurveto
          -100 callgsubr
          hintmask 11010100
          -221 -66 callgsubr
        </CharString>
        <CharString name="quotedblleft">
          35 488 -21 216 55 hstemhm
          76 97 -97 140 89 97 -97 140 -7 callsubr
          402 603 rmoveto
          38 26 42 39 vhcurveto
          -81 callsubr
          hintmask 11101000
          -229 hmoveto
          38 26 42 39 vhcurveto
          hintmask 11100100
          -81 callsubr
          endchar
        </CharString>
        <CharString name="quotedblright">
          29 469 55 216 -20 hstemhm
          111 140 -97 97 82 140 -97 97 -6 callgsubr
          376 604 rmoveto
          -38 -26 -42 -39 vhcurveto
          -100 callgsubr
          hintmask 11010100
          -222 -66 callgsubr
        </CharString>
        <CharString name="quoteleft">
          -194 489 -21 271 -20 hstemhm
          76 140 5 callgsubr
          173 604 rmoveto
          38 26 42 39 vhcurveto
          -81 callsubr
          endchar
        </CharString>
        <CharString name="quoteright">
          -193 490 -21 271 -20 hstemhm
          111 140 5 callgsubr
          154 604 rmoveto
          -38 -26 -42 -39 vhcurveto
          -100 callgsubr
          endchar
        </CharString>
        <CharString name="quotesinglbase">
          -187 -130 -21 55 -20 236 -20 hstemhm
          45 140 39 callsubr
          88 -16 rmoveto
          -38 -26 -42 -39 vhcurveto
          -100 callgsubr
          endchar
        </CharString>
        <CharString name="quotesingle">
          -232 496 -21 260 -20 hstem
          113 706 rmoveto
          -79 callgsubr
          endchar
        </CharString>
        <CharString name="r">
          -75 17 -21 390 98 hstemhm
          43 32 callgsubr
          5 callsubr
          301 386 rmoveto
          17 15 -6 -13 13 hvcurveto
          17 18 11 28 23 vvcurveto
          26 -13 22 -32 -54 -51 -53 -44 -27 vhcurveto
          hintmask 11100000
          2 12 1 11 12 vvcurveto
          -58 callgsubr
          -88 callgsubr
          46 12 101 14 95 vhcurveto
          42 27 41 43 46 hhcurveto
          endchar
        </CharString>
        <CharString name="radical">
          139 -10 -21 769 -20 hstem
          192 490 rmoveto
          -50 -12 -70 -31 -25 -15 rrcurveto
          -10 -6 -6 -7 -10 vvcurveto
          -10 7 -10 12 -9 vhcurveto
          17 10 25 13 19 9 144 -443 rcurveline
          19 hlineto
          33 19 7 32 11 hvcurveto
          209 619 29 69 17 vvcurveto
          19 -18 6 -25 -7 -7 0 -3 -20 vhcurveto
          -196 -586 rlineto
          endchar
        </CharString>
        <CharString name="registered">
          144 207 50 366 50 hstem
          80 59 73 73 59 72 62 59 vstem
          478 440 rmoveto
          -112 -77 -71 -92 -93 -77 71 112 112 77 71 93 92 77 -71 -112 vhcurveto
          59 hmoveto
          134 -103 99 -125 -129 -100 -99 -134 -133 100 -100 129 125 103 100 133 vhcurveto
          -232 11 rmoveto
          -3 -13 0 1 -4 hvcurveto
          77 13 vlineto
          24 22 -16 -25 -28 -19 -9 -20 hvcurveto
          115 -95 rmoveto
          -9 -5 0 4 -4 hvcurveto
          -8 9 -29 31 -9 18 rrcurveto
          38 12 22 22 36 vvcurveto
          62 -52 16 -60 -18 -54 -4 -2 -25 vhcurveto
          4 -27 1 -30 -29 vvcurveto
          -67 vlineto
          -17 -2 -24 -18 vvcurveto
          -20 11 -10 36 15 7 2 8 15 vhcurveto
          -9 26 0 21 21 vvcurveto
          23 vlineto
          19 -34 28 -32 18 -19 rrcurveto
          -13 11 15 -5 14 hhcurveto
          18 16 9 15 6 -1 4 -3 6 hvcurveto
          endchar
        </CharString>
        <CharString name="ring">
          -76 520 48 94 48 hstem
          149 57 75 58 vstem
          251 662 -83 callgsubr
          endchar
        </CharString>
        <CharString name="s">
          -49 -10 72 352 71 14 callsubr
          -7 callsubr
          287 345 rmoveto
          58 6 16 25 28 vvcurveto
          56 -74 25 -50 -96 -93 -48 -115 vhcurveto
          -160 199 56 -94 vvcurveto
          hintmask 11101000
          -81 callgsubr
          27 28 -19 -50 14 vhcurveto
          endchar
        </CharString>
        <CharString name="scaron">
          -10 -10 72 352 71 217 -20 14 callsubr
          hintmask 00000000
          hintmask 11101100
          238 615 rmoveto
          0 -57 40 -32 47 vhcurveto
          -91 callgsubr
          49 -270 rmoveto
          58 6 16 25 28 vvcurveto
          56 -74 25 -50 -96 -93 -48 -115 vhcurveto
          -160 199 56 -94 vvcurveto
          -81 callgsubr
          vhcurveto
          hintmask 11110100
          27 28 -19 -50 14 hvcurveto
          endchar
        </CharString>
        <CharString name="section">
          4 -78 69 613 69 hstemhm
          70 90 -44 88 71 89 -45 90 -6 callgsubr
          309 210 rmoveto
          -62 46 -87 13 70 vvcurveto
          19 3 15 6 12 vhcurveto
          47 -40 103 -16 -70 vvcurveto
          -22 -3 -13 -7 -14 vhcurveto
          -239 102 rmoveto
          -144 205 25 -116 vvcurveto
          -58 -36 -28 -43 -59 -33 28 41 -8 vhcurveto
          -41 -11 -35 -16 -31 vvcurveto
          hintmask 11010100
          -47 71 -33 78 97 98 56 123 21 -6 26 -12 20 vhcurveto
          44 29 19 42 46 144 -205 -19 116 vvcurveto
          53 34 25 38 35 41 -26 -43 9 vhcurveto
          64 11 13 22 27 vvcurveto
          hintmask 11100100
          54 -81 24 -52 -99 -90 -61 -108 -26 6 -30 11 -20 vhcurveto
          -46 -31 -17 -35 -50 vvcurveto
          endchar
        </CharString>
        <CharString name="semicolon">
          -203 -154 53 432 153 hstemhm
          25 133 -110 138 -118 90 5 callsubr
          98 120 rmoveto
          hintmask 11100000
          24 callsubr
          hintmask 11001000
          19 callsubr
          -21 callsubr
          10 211 -19 callsubr
        </CharString>
        <CharString name="seven">
          11 -21 584 88 8 -64 callsubr
          hintmask 11000000
          47 44 rmoveto
          -32 18 26 -22 32 hhcurveto
          hintmask 10100000
          18 19 6 63 40 hvcurveto
          87 137 205 314 -15 callgsubr
          -37 -10 callgsubr
          -22 49 47 144 2 2 61 vhcurveto
          -67 -135 -161 -275 -142 -124 rrcurveto
          endchar
        </CharString>
        <CharString name="sevenoldstyle">
          6 -139 -21 549 85 8 -64 callsubr
          hintmask 11000000
          -25 -106 rmoveto
          -32 18 29 -22 32 hhcurveto
          hintmask 10100000
          18 24 6 63 40 hvcurveto
          87 137 173 276 -15 callgsubr
          -33 -10 callgsubr
          -19 49 47 143 2 2 61 vhcurveto
          -67 -135 -140 -240 -142 -124 rrcurveto
          endchar
        </CharString>
        <CharString name="six">
          -10 75 262 74 197 75 hstem
          66 109 206 110 vstem
          286 327 rmoveto
          57 38 -40 -67 -75 -41 -80 -75 -71 -19 62 77 20 2 37 5 24 hvcurveto
          29 37 35 13 32 hhcurveto
          -41 -337 rmoveto
          143 103 129 116 103 -70 63 -88 -43 -49 -18 -35 -48 hvcurveto
          130 28 89 120 132 hhcurveto
          10 10 -2 -2 10 hvcurveto
          8 12 6 17 15 vvcurveto
          19 -9 16 -27 -233 -151 -260 -215 -112 48 -96 131 vhcurveto
          endchar
        </CharString>
        <CharString name="sixoldstyle">
          15 -10 70 279 69 155 72 hstem
          25 102 191 105 vstem
          192 -10 rmoveto
          145 86 148 121 81 -38 68 -104 -39 -45 -9 -29 -16 6 -12 6 -10 hvcurveto
          5 11 11 2 15 hhcurveto
          42 30 -33 -69 -73 -32 -104 -78 -60 -21 56 74 154 87 219 176 10 11 -2 -2 9 hvcurveto
          9 13 7 17 15 vvcurveto
          17 -9 14 -42 -214 -146 -257 -196 -108 45 -84 122 vhcurveto
          endchar
        </CharString>
        <CharString name="slash">
          -173 -101 -21 864 -20 hstem
          256 742 rmoveto
          0 -18 0 -13 -5 vhcurveto
          -15 -64 -23 -81 -25 -85 rrcurveto
          -145 -487 -32 -105 -14 vvcurveto
          -13 7 -10 31 10 11 2 3 13 vhcurveto
          13 64 64 222 27 85 rrcurveto
          1 3 136 440 24 vvcurveto
          16 -16 5 -26 vhcurveto
          endchar
        </CharString>
        <CharString name="space">
          -244 endchar
        </CharString>
        <CharString name="st">
          299 -10 72 340 70 -58 71 9 -21 113 58 14 callsubr
          -35 35 113 105 28 callgsubr
          hintmask 1101110011000000
          474 -44 callgsubr
          17 4 34 hhcurveto
          -92 callsubr
          hvcurveto
          hintmask 1010101101000000
          47 25 151 11 71 vhcurveto
          -78 callsubr
          -3 -39 -29 -2 -82 hhcurveto
          hintmask 1010110101000000
          4 26 8 31 22 vvcurveto
          51 -71 42 -69 -82 -90 -60 -89 -8 1 -9 1 -9 vhcurveto
          11 -24 -27 5 -22 hhcurveto
          -96 -93 -48 -115 hvcurveto
          -160 199 56 -94 vvcurveto
          -81 callgsubr
          27 28 -19 -50 14 vhcurveto
          58 6 16 25 28 17 -11 14 30 vvcurveto
          72 66 49 46 18 17 -8 -17 11 vhcurveto
          -3 -28 -4 -39 -3 -21 rrcurveto
          endchar
        </CharString>
        <CharString name="sterling">
          -3 65 -65 140 -112 37 -37 54 246 63 204 83 hstemhm
          183 103 131 72 hintmask 00000000
          hintmask 10001111
          230 307 rmoveto
          -77 -42 -56 -84 -89 vhcurveto
          -64 -10 -19 -27 -22 vvcurveto
          -16 12 -13 16 16 17 9 17 13 vhcurveto
          2 6 5 0 3 81 45 -28 110 hhcurveto
          100 44 48 40 28 -22 24 -40 hvcurveto
          -10 hlineto
          -61 -3 -63 -14 -37 hhcurveto
          -55 -30 14 3 -38 hvcurveto
          129 98 27 60 1 89 rrcurveto
          -1 26 21 0 9 hhcurveto
          39 callgsubr
          -37 -5 -46 -4 -46 -3 rrcurveto
          -18 49 -31 48 53 vvcurveto
          hintmask 00101111
          32 23 22 40 vhcurveto
          hintmask 01001111
          25 23 -13 -25 10 hvcurveto
          29 10 30 22 28 vvcurveto
          41 -45 20 -44 -112 -82 -95 -77 vhcurveto
          hintmask 10001111
          -40 18 -41 13 -40 vhcurveto
          hintmask 00011111
          -1 -39 -30 -1 -11 22 callsubr
          37 40 2 37 hhcurveto
          17 hlineto
          1 -8 1 -7 -7 vvcurveto
          endchar
        </CharString>
        <CharString name="sterlingoldstyle">
          -3 65 -65 130 -110 -21 28 53 200 52 171 80 hstemhm
          175 116 -74 122 hintmask 00000000
          hintmask 00111101
          200 329 rmoveto
          -1 -27 -21 0 -8 22 callsubr
          33 35 2 40 hhcurveto
          1 -8 1 -8 -8 vvcurveto
          hintmask 01001110
          -60 -25 -40 -55 -69 vhcurveto
          -55 -9 -28 -23 -27 vvcurveto
          -14 9 -15 19 23 16 16 10 7 vhcurveto
          1 7 8 1 8 55 84 -27 61 hhcurveto
          hintmask 00111110
          45 64 21 59 hvcurveto
          hintmask 01001110
          31 -19 19 -47 vhcurveto
          -8 hlineto
          hintmask 10001110
          -37 -32 -28 -30 vhcurveto
          hintmask 00111101
          -48 -34 13 2 -33 hvcurveto
          hintmask 10001110
          102 71 27 51 1 74 rrcurveto
          41 hlineto
          39 callgsubr
          -32 -5 -42 -3 -41 -3 rrcurveto
          -14 37 -20 37 27 vvcurveto
          40 23 22 24 22 20 -12 -21 9 vhcurveto
          26 9 27 21 26 vvcurveto
          38 -41 19 -40 -107 -79 -83 -68 -34 13 -32 12 -34 vhcurveto
          endchar
        </CharString>
        <CharString name="summation">
          183 -62 84 564 72 hstem
          490 586 rmoveto
          12 -22 8 -24 11 -37 rrcurveto
          -3 12 4 0 4 hhcurveto
          31 7 14 21 29 -4 58 -2 36 hvcurveto
          -454 hlineto
          -22 -17 -14 -20 -2 hvcurveto
          50 -111 50 -115 50 -110 -250 -324 rcurveline
          -11 2 -15 25 vhcurveto
          512 hlineto
          16 43 37 107 15 vvcurveto
          14 -14 6 -17 -5 -4 0 -4 -12 vhcurveto
          -24 -38 -21 -38 -20 -21 rrcurveto
          -325 hlineto
          48 65 48 60 48 64 rrcurveto
          62 81 1 1 21 vvcurveto
          -42 88 -45 96 -41 89 rrcurveto
          endchar
        </CharString>
        <CharString name="t">
          -90 -10 69 343 70 -70 178 -86 -21 hstemhm
          67 105 -7 callsubr
          75 -44 callgsubr
          27 4 34 hhcurveto
          -92 callsubr
          47 25 151 11 71 hvcurveto
          -78 callsubr
          hintmask 10101000
          -29 callsubr
          hintmask 11011000
          -49 callgsubr
          endchar
        </CharString>
        <CharString name="thorn">
          71 33 callsubr
          65 352 77 259 -20 hstemhm
          13 110 -15 -4 callgsubr
          107 123 hintmask 00000000
          hintmask 11110101
          205 394 rmoveto
          22 127 21 124 34 -38 callsubr
          vhcurveto
          hintmask 11111011
          16 callsubr
          hvcurveto
          17 callgsubr
          -73 -122 -613 -102 -63 callsubr
          -50 -30 -60 -38 hvcurveto
          -17 -116 -48 callsubr
          endchar
        </CharString>
        <CharString name="three">
          -11 75 256 60 141 152 -74 74 hstemhm
          341 112 -89 -23 callgsubr
          hintmask 11100100
          337 364 rmoveto
          97 50 41 57 70 vvcurveto
          70 -56 62 -105 -96 -96 -62 -47 -23 15 -20 31 vhcurveto
          53 32 47 25 40 hhcurveto
          hintmask 11010100
          50 27 -37 -44 -68 -62 -70 -129 hvcurveto
          -3 -12 -1 -7 -9 vvcurveto
          -22 9 -10 17 103 43 -54 -60 27 callsubr
          -68 -55 -74 -97 -55 -23 14 26 -17 vhcurveto
          -28 -4 -26 -21 -32 vvcurveto
          -27 39 -31 103 160 111 117 108 60 -35 58 -81 32 vhcurveto
          endchar
        </CharString>
        <CharString name="threeoldstyle">
          -44 -160 73 243 61 115 152 -71 71 hstemhm
          238 103 -75 75 -75 99 hintmask 00000000
          hintmask 11100010
          241 206 rmoveto
          82 32 42 60 64 vvcurveto
          65 -49 57 -97 -90 -94 -62 -46 -24 20 -20 40 vhcurveto
          55 28 43 26 36 hhcurveto
          hintmask 11010100
          41 23 -32 -41 -64 -58 -56 -126 -3 hvcurveto
          -2 -7 -2 -10 -10 vvcurveto
          -31 15 -3 13 83 49 -37 -66 27 callsubr
          -79 -61 -61 -92 -36 -20 11 19 -16 vhcurveto
          -26 -7 -22 -22 -27 vvcurveto
          -25 27 -22 67 164 118 102 130 61 -32 53 -68 20 vhcurveto
          endchar
        </CharString>
        <CharString name="threequarters">
          534 -86 -21 97 -20 156 65 13 64 157 50 135 64 66 -20 hstemhm
          280 91 -70 93 337 90 28 callgsubr
          hintmask 1111111101000000
          -53 callsubr
          37 callgsubr
          vhcurveto
          -55 callgsubr
          59 -528 -93 callgsubr
          210 -179 rmoveto
          -6 -48 -8 -45 -7 -65 rrcurveto
          -125 hlineto
          49 70 65 56 32 32 rrcurveto
          97 106 rmoveto
          1 -12 -9 1 -16 hhcurveto
          -22 -20 -3 -10 -12 hvcurveto
          -59 -48 -110 -117 -56 -81 rrcurveto
          -4 -13 -2 -13 -8 vvcurveto
          -16 9 -13 19 -2 vhcurveto
          -5 43 48 -2 46 hhcurveto
          hintmask 1111111011000000
          -74 callsubr
        </CharString>
        <CharString name="threesuperior">
          26 204 64 157 50 135 64 hstemhm
          280 91 -70 93 39 callsubr
          -53 callsubr
          27 callsubr
          37 callgsubr
          hvcurveto
          -55 callgsubr
          endchar
        </CharString>
        <CharString name="tilde">
          -72 530 73 -54 -21 46 73 1 -64 callsubr
          hintmask 10010000
          384 620 rmoveto
          hintmask 01100000
          -84 callgsubr
          -55 -59 -43 -38 -5 hvcurveto
          hintmask 10010000
          -20 14 -11 14 -7 vhcurveto
          36 34 12 10 12 21 34 -44 50 hhcurveto
          47 72 44 46 hvcurveto
          endchar
        </CharString>
        <CharString name="trademark">
          447 305 -21 22 -21 306 66 1 -20 hstemhm
          185 89 155 84 212 90 hintmask 00000000
          hintmask 10101110
          127 653 rmoveto
          -28 -2 -19 -5 -28 vvcurveto
          -4 3 -17 4 -10 vhcurveto
          3 26 39 1 33 hhcurveto
          -261 vlineto
          -30 8 -16 42 12 23 5 5 18 vhcurveto
          -14 43 0 39 35 vvcurveto
          180 60 vlineto
          32 13 16 20 7 -1 13 -3 11 hvcurveto
          -5 -46 -39 0 -41 hhcurveto
          566 -106 rmoveto
          hintmask 01101110
          32 1 27 9 37 vhcurveto
          11 -26 -20 3 -9 hhcurveto
          -30 -20 -14 -20 -11 hvcurveto
          -35 -64 -31 -76 -22 -70 -22 71 -26 70 -39 69 rrcurveto
          20 -11 -18 14 -30 hhcurveto
          -15 -15 -3 -7 -26 hvcurveto
          8 -38 2 -26 -32 -109 -1 -53 -59 vvcurveto
          -30 9 -16 42 17 15 35 callgsubr
          93 vlineto
          16 -44 28 -96 21 -45 rrcurveto
          hintmask 10101110
          -17 8 25 -7 16 hhcurveto
          12 13 3 5 12 hvcurveto
          10 36 29 92 23 69 rrcurveto
          -70 -1 22 -112 vvcurveto
          hintmask 10011110
          -30 9 -16 42 13 24 35 callgsubr
          endchar
        </CharString>
        <CharString name="two">
          -2 78 522 75 hstem
          384 107 vstem
          155 513 rmoveto
          50 38 57 35 48 hhcurveto
          48 38 -37 -63 -159 -177 -104 -183 -175 hvcurveto
          -2 -9 -1 -7 -7 vvcurveto
          -30 22 -7 17 vhcurveto
          60 75 -2 74 hhcurveto
          60 71 3 11 32 hvcurveto
          20 7 10 15 18 vvcurveto
          13 -2 19 -5 20 vhcurveto
          -25 -68 -48 -3 -126 hhcurveto
          -22 -26 0 1 -19 hvcurveto
          160 127 185 142 174 vvcurveto
          103 -83 50 -87 -97 -115 -63 -53 -23 16 -16 30 -5 vhcurveto
          endchar
        </CharString>
        <CharString name="twooldstyle">
          17 -2 78 336 72 hstem
          301 106 vstem
          407 372 rmoveto
          66 -56 46 -88 -92 -99 -66 -46 -20 19 -16 32 -5 vhcurveto
          47 29 49 34 35 hhcurveto
          40 25 -18 -42 -115 -196 -91 -112 -74 hvcurveto
          -2 -10 -1 -10 -9 vvcurveto
          -37 23 -6 15 vhcurveto
          -1 39 49 -1 54 hhcurveto
          54 58 1 2 53 hvcurveto
          47 2 29 16 41 vvcurveto
          11 -2 17 -4 9 vhcurveto
          -94 -20 -95 4 -91 -5 rrcurveto
          186 89 96 112 95 vvcurveto
          endchar
        </CharString>
        <CharString name="twosuperior">
          39 222 66 -47 -21 389 64 hstemhm
          319 92 hintmask 00000000
          hintmask 10110000
          153 545 -34 callsubr
          hintmask 01110000
          -33 callsubr
          hintmask 10110000
          -54 callsubr
          endchar
        </CharString>
        <CharString name="u">
          67 -10 77 417 -47 callsubr
          hintmask 11011000
          201 422 rmoveto
          -96 callsubr
          27 callsubr
          16 callgsubr
          hvcurveto
          -89 callsubr
          25 -24 10 -31 vhcurveto
          hintmask 11100100
          -15 -23 -2 -5 -18 hvcurveto
          -5 -94 -13 -70 -12 -95 rrcurveto
          -85 -31 -48 -63 -40 hhcurveto
          -24 -16 20 45 hvcurveto
          46 42 167 77 vvcurveto
          endchar
        </CharString>
        <CharString name="uacute">
          67 -10 77 642 -20 hstemhm
          50 32 callsubr
          147 111 -7 callsubr
          416 611 -74 callgsubr
          hintmask 11101000
          -107 callsubr
          -215 -189 rmoveto
          -96 callsubr
          16 callgsubr
          vhcurveto
          hintmask 11011000
          -89 callsubr
          -94 callgsubr
          endchar
        </CharString>
        <CharString name="ucircumflex">
          67 -10 77 417 47 171 -47 callsubr
          hintmask 11101100
          426 568 rmoveto
          -56 callsubr
          hintmask 11110100
          -105 callgsubr
          -225 -146 rmoveto
          -96 callsubr
          16 callgsubr
          vhcurveto
          hintmask 11110010
          -89 callsubr
          hintmask 11101100
          -94 callgsubr
          endchar
        </CharString>
        <CharString name="udieresis">
          67 -10 77 464 21 callgsubr
          50 32 callsubr
          -68 129 44 105 -105 129 -87 -23 callgsubr
          hintmask 11001010
          201 -14 callsubr
          hintmask 11010100
          -45 -38 -176 -37 vvcurveto
          -72 35 -54 67 16 callgsubr
          vhcurveto
          -2 -12 -1 -12 -12 vvcurveto
          hintmask 11100100
          -95 callsubr
          -94 callgsubr
          161 109 rmoveto
          hintmask 11100001
          -99 callsubr
          hintmask 11010100
          -173 hmoveto
          -99 callsubr
          endchar
        </CharString>
        <CharString name="ugrave">
          67 -10 77 663 -47 callsubr
          hintmask 11010100
          164 633 rmoveto
          -70 callsubr
          hintmask 11101000
          -103 callgsubr
          37 -211 rmoveto
          -96 callsubr
          16 callgsubr
          vhcurveto
          hintmask 11100100
          -89 callsubr
          hintmask 11010100
          -94 callgsubr
          endchar
        </CharString>
        <CharString name="underscore">
          101 -144 57 -44 -21 72 -64 callsubr
          hintmask 01100000
          535 -110 rmoveto
          hintmask 10000000
          11 0 10 -3 9 vhcurveto
          -6 -51 -86 -1 -50 hhcurveto
          hintmask 01100000
          -142 hlineto
          -74 -73 7 -20 hhcurveto
          -27 -9 -24 -18 hvcurveto
          hintmask 10000000
          -7 0 -8 3 -15 vhcurveto
          4 44 52 4 106 hhcurveto
          hintmask 01100000
          143 hlineto
          52 64 -8 35 hhcurveto
          22 14 19 23 hvcurveto
          endchar
        </CharString>
        <CharString name="v">
          -3 28 callsubr
          151 118 -7 callsubr
          3 callsubr
          hintmask 11101000
          -6 13 11 -2 14 hhcurveto
          179 122 306 122 32 -14 34 -45 20 callgsubr
          -57 -194 -80 -17 -2 callgsubr
          hintmask 11011000
          13 callgsubr
        </CharString>
        <CharString name="w">
          209 28 callsubr
          141 77 -77 118 104 118 hintmask 00000000
          hintmask 11011010
          3 callsubr
          hintmask 11101010
          -6 13 10 -2 14 hhcurveto
          59 52 33 48 44 hvcurveto
          3 -28 7 -25 20 -20 rrcurveto
          -6 13 10 -2 14 hhcurveto
          174 118 306 122 32 -14 34 -45 hvcurveto
          hintmask 11010110
          20 callgsubr
          -53 -194 -74 -17 vhcurveto
          -13 27 -5 44 48 vvcurveto
          16 1 17 1 16 vhcurveto
          25 62 14 59 40 vvcurveto
          31 -14 32 -45 -23 -27 -4 -14 -24 vhcurveto
          11 -22 4 -30 -31 vvcurveto
          -94 -53 -181 -74 -16 -2 callgsubr
          hintmask 11011010
          13 callgsubr
        </CharString>
        <CharString name="x">
          -10 -10 90 314 90 hstem
          268 241 rmoveto
          38 46 92 93 58 vvcurveto
          28 -19 18 -40 -10 -13 -1 -3 -13 vhcurveto
          -6 -46 -29 -62 -30 -53 rrcurveto
          75 -24 -49 90 -50 hhcurveto
          -42 -33 -27 -34 -10 2 -10 2 -9 hvcurveto
          61 22 -73 -90 37 hvcurveto
          -33 -32 -66 -65 -35 -51 rrcurveto
          -12 -18 -7 -18 -14 vvcurveto
          -26 23 -15 36 9 9 1 2 10 vhcurveto
          6 44 47 68 40 53 rrcurveto
          -79 31 46 -91 52 hhcurveto
          42 33 27 34 10 -2 10 -2 9 hvcurveto
          -65 -19 77 84 -39 hvcurveto
          endchar
        </CharString>
        <CharString name="y">
          -1 -230 66 648 -20 hstem
          304 114 vstem
          150 435 -102 callsubr
          endchar
        </CharString>
        <CharString name="y_alt">
          26 callsubr
          417 1 callsubr
          218 67 rmoveto
          -24 -16 20 45 hvcurveto
          46 42 167 77 vvcurveto
          -96 callsubr
          39 57 30 61 39 vhcurveto
          -137 -27 -23 -108 -110 hhcurveto
          -35 -31 21 33 -10 hvcurveto
          -19 -8 -41 -22 -31 vvcurveto
          -37 62 -22 73 vhcurveto
          hintmask 11101100
          215 32 166 159 24 hvcurveto
          16 107 14 89 8 48 rrcurveto
          9 58 8 36 14 vvcurveto
          24 -26 8 -34 vhcurveto
          hintmask 11110100
          -16 -19 -3 -4 -16 hvcurveto
          -5 -90 -12 -74 -16 -92 rrcurveto
          -79 -19 -58 -70 -32 hhcurveto
          endchar
        </CharString>
        <CharString name="y_altacute">
          26 callsubr
          642 1 callsubr
          430 611 -74 callgsubr
          24 -17 19 -16 8 vhcurveto
          -44 -40 -101 -57 -25 -12 rrcurveto
          hintmask 11101100
          -16 -8 -7 -11 -13 vvcurveto
          -18 14 -15 10 -10 vhcurveto
          29 22 89 33 53 31 rrcurveto
          -212 -544 rmoveto
          -24 -16 20 45 hvcurveto
          46 42 167 77 vvcurveto
          -96 callsubr
          39 57 30 61 39 vhcurveto
          -82 callgsubr
        </CharString>
        <CharString name="y_altdieresis">
          26 callsubr
          464 21 callgsubr
          69 109 -27 69 -69 -46 callsubr
          -93 -23 callgsubr
          hintmask 11110001
          380 0 callgsubr
          hvcurveto
          hintmask 11101001
          -77 callsubr
          -100 callsubr
          vhcurveto
          -173 hmoveto
          -68 callsubr
          hvcurveto
          hintmask 11110001
          -100 callsubr
          hvcurveto
          11 -464 rmoveto
          -24 -16 20 45 hvcurveto
          46 42 167 77 vvcurveto
          -96 callsubr
          vhcurveto
          hintmask 11100110
          39 57 30 61 39 hvcurveto
          -82 callgsubr
        </CharString>
        <CharString name="yacute">
          -1 -230 66 873 -20 hstem
          304 114 vstem
          366 611 -74 callgsubr
          -107 callsubr
          -216 -176 -102 callsubr
          endchar
        </CharString>
        <CharString name="ydieresis">
          -1 -230 66 695 21 callgsubr
          77 -46 callsubr
          -75 114 39 callsubr
          150 435 -102 callsubr
          hintmask 11101000
          156 96 -105 callsubr
        </CharString>
        <CharString name="yen">
          18 -21 195 53 54 54 316 -20 24 -20 hstemhm
          190 110 hintmask 00000000
          hintmask 11101100
          248 -3 rmoveto
          17 19 5 9 20 hvcurveto
          -3 17 -1 17 20 vvcurveto
          32 4 40 7 55 vhcurveto
          116 hlineto
          32 15 15 29 4 0 6 -1 5 hvcurveto
          -5 -50 -51 -1 -53 hhcurveto
          7 54 rlineto
          113 hlineto
          28 20 13 28 5 0 7 -2 8 hvcurveto
          -6 -53 -23 -1 -45 hhcurveto
          78 106 99 138 38 vvcurveto
          31 -27 7 -29 -7 -9 0 -4 -16 vhcurveto
          hintmask 11110100
          -8 -47 -80 -148 -61 -84 -32 95 -37 88 -28 58 rrcurveto
          25 -12 -13 13 -20 hhcurveto
          -33 -25 -23 -25 -19 hvcurveto
          58 -55 28 -91 50 -122 rrcurveto
          -89 hlineto
          -28 -20 -13 -27 -5 0 -8 3 -7 hvcurveto
          5 44 46 1 50 hhcurveto
          -7 -54 rlineto
          -109 hlineto
          -24 -18 -12 -28 -5 0 -8 3 -6 hvcurveto
          5 43 47 1 49 hhcurveto
          -7 -53 -14 -81 -18 vvcurveto
          -27 15 -16 43 vhcurveto
          endchar
        </CharString>
        <CharString name="yenoldstyle">
          11 -21 151 54 44 53 287 -20 24 -20 hstemhm
          -6 callgsubr
          327 239 rmoveto
          106 hlineto
          23 19 12 27 4 0 6 -2 10 hvcurveto
          -29 -3 -41 -2 -32 -1 rrcurveto
          72 94 93 126 32 vvcurveto
          29 -30 10 -28 -8 -7 0 -4 -15 vhcurveto
          -8 -43 -77 -138 -57 -80 -29 83 -38 84 -26 57 rrcurveto
          23 -11 -14 14 -18 hhcurveto
          -31 -31 -26 -22 -17 hvcurveto
          50 -51 48 -106 26 -82 rrcurveto
          -84 hlineto
          -24 -16 -12 -28 -5 0 -7 3 -7 hvcurveto
          5 45 32 1 57 hhcurveto
          -6 -44 rlineto
          -102 hlineto
          -28 -13 -16 -28 -5 1 -6 2 -5 hvcurveto
          5 43 32 1 56 hhcurveto
          -6 -38 -9 -36 -34 vvcurveto
          hintmask 11110000
          -26 15 -17 43 17 21 5 9 18 vhcurveto
          -3 16 -2 18 20 vvcurveto
          26 3 29 3 28 vhcurveto
          106 hlineto
          23 20 12 27 4 0 6 -2 10 hvcurveto
          -3 -42 -50 -2 -45 hhcurveto
          endchar
        </CharString>
        <CharString name="z">
          -11 31 callgsubr
          -35 callsubr
          hintmask 10001000
          108 484 -32 callgsubr
          hintmask 01010000
          9 callgsubr
          30 callgsubr
          hhcurveto
          hintmask 10010000
          9 callsubr
          23 callgsubr
          hintmask 00110000
          7 callsubr
          -9 callgsubr
        </CharString>
        <CharString name="zcaron">
          -8 31 callgsubr
          -57 76 218 -64 callsubr
          hintmask 10001010
          259 615 rmoveto
          0 -57 40 -32 47 vhcurveto
          hintmask 01010010
          -91 callgsubr
          -151 -131 -32 callgsubr
          9 callgsubr
          hintmask 10010010
          30 callgsubr
          9 callsubr
          hintmask 00110010
          23 callgsubr
          7 callsubr
          hintmask 10000110
          -9 callgsubr
        </CharString>
        <CharString name="zero">
          -10 74 535 74 hstem
          40 114 269 110 vstem
          241 -10 rmoveto
          178 114 209 218 159 -77 97 -121 -176 -119 -206 -221 -158 80 -98 121 hvcurveto
          -87 285 rmoveto
          177 73 147 99 69 28 -102 -107 -162 -66 -164 -107 -68 -28 100 111 vhcurveto
          endchar
        </CharString>
        <CharString name="zerooldstyle">
          50 -10 98 299 98 hstem
          25 84 266 84 vstem
          209 -10 rmoveto
          165 85 149 145 125 -69 76 -116 -167 -82 -158 -143 -119 68 -75 116 hvcurveto
          15 98 rmoveto
          -80 -35 64 63 83 59 89 93 82 32 -69 -63 -84 -57 -83 -94 hvcurveto
          endchar
        </CharString>
      <CharString index="0">
        rmoveto
        -1 -19 -20 0 -20 hhcurveto
        -32 -30 1 1 -27 hvcurveto
        41 84 34 83 28 71 9 -67 16 -86 20 -86 rrcurveto
        -84 -76 rmoveto
        28 32 1 1 41 hvcurveto
        13 -71 12 -51 11 -52 rrcurveto
        -28 6 19 -9 23 hhcurveto
        24 28 10 10 19 hvcurveto
        -23 67 -24 99 -24 104 -29 121 -20 130 -16 79 rrcurveto
        43 -8 -17 10 -35 hhcurveto
        -15 -18 -1 -6 -25 hvcurveto
        -45 -130 -41 -74 -35 -78 rrcurveto
        -88 -198 -72 -109 -38 vvcurveto
        -24 21 -13 66 -5 vhcurveto
        19 55 40 83 34 76 rrcurveto
        -1 38 31 -1 30 hhcurveto
        return
      </CharString>
      <CharString index="1">
        -2 callsubr
        21 callsubr
        47 13 85 13 106 vhcurveto
        92 16 0 1 22 hvcurveto
        33 2 9 21 31 vvcurveto
        9 -1 12 -1 7 vhcurveto
        -4 -30 -20 0 -109 hhcurveto
        14 98 7 66 1 24 rrcurveto
        2 32 25 -52 callsubr
      </CharString>
      <CharString index="2">
        -56 -36 -67 -62 -46 -47 rrcurveto
        -18 7 8 -8 15 hhcurveto
        27 50 38 37 48 hvcurveto
        0 57 -40 32 -47 vhcurveto
        21 9 22 17 23 vvcurveto
        return
      </CharString>
      <CharString index="3">
        rmoveto
        -1 -6 0 -7 -6 vvcurveto
        -47 26 -38 45 47 22 36 26 4 vhcurveto
        -35 16 -3 24 24 vvcurveto
        50 26 156 23 105 vhcurveto
        -97 callgsubr
        return
      </CharString>
      <CharString index="4">
        11 10 8 16 16 vvcurveto
        13 -6 12 -13 9 vhcurveto
        -25 18 -85 66 -36 46 rrcurveto
        -89 callgsubr
        return
      </CharString>
      <CharString index="5">
        -3 -65 -9 -81 -11 -86 rrcurveto
        -34 -271 -16 -94 -17 -97 callsubr
        return
      </CharString>
      <CharString index="6">
        207 130 190 222 169 -92 103 -156 -200 -133 -182 -229 -167 90 -106 154 hvcurveto
        75 606 rmoveto
        106 38 -106 -112 return
      </CharString>
      <CharString index="7">
        -16 hlineto
        -5 -10 -2 -11 -4 vvcurveto
        -16 10 -14 27 75 73 112 87 52 -30 20 -33 -42 -35 -28 -36 -7 3 -10 4 -12 vhcurveto
        25 -6 11 -16 -21 vvcurveto
        return
      </CharString>
      <CharString index="8">
        rmoveto
        -1 9 13 -1 11 hhcurveto
        30 52 3 20 47 hvcurveto
        67 28 40 71 64 vvcurveto
        64 -40 57 -95 -114 -144 -97 -204 -144 103 -49 95 81 74 36 41 23 -13 22 -35 14 vhcurveto
        -44 -23 -40 -26 -36 hhcurveto
        -42 -38 36 87 -2 hvcurveto
        return
      </CharString>
      <CharString index="9">
        rmoveto
        -84 callgsubr
        -55 -59 -43 -38 -5 hvcurveto
        -20 14 -11 14 -7 vhcurveto
        36 34 12 10 12 21 34 -44 50 hhcurveto
        47 72 44 46 hvcurveto
        return
      </CharString>
      <CharString index="10">
        43 -64 -71 14 -60 hhcurveto
        -136 -104 -144 -170 -121 55 -59 73 57 51 36 68 45 hvcurveto
        11 112 rmoveto
        -82 -31 -46 -58 -32 hhcurveto
        return
      </CharString>
      <CharString index="11">
        0 2 23 hvcurveto
        32 1 16 17 30 vvcurveto
        7 -1 9 -2 9 vhcurveto
        -3 -38 -27 -2 -71 hhcurveto
        return
      </CharString>
      <CharString index="12">
        8 169 42 165 30 vvcurveto
        26 -27 8 -19 -14 -36 -5 -9 -40 vhcurveto
        -38 -9 -11 -22 -19 vvcurveto
        -5 2 -14 6 -11 vhcurveto
        28 10 29 8 24 4 -11 -114 -17 -104 -15 -104 rrcurveto
        -23 hlineto
        -45 -22 -12 -30 -5 2 -13 2 -7 hvcurveto
        2 17 13 1 15 hhcurveto
        149 hlineto
        39 13 21 24 hvcurveto
        return
      </CharString>
      <CharString index="13">
        25 -24 10 -31 -15 -23 -2 -5 -18 vhcurveto
        -5 -94 -13 -70 -12 -95 rrcurveto
        -85 -31 -48 -63 -40 hhcurveto
        -24 -16 20 45 hvcurveto
        46 42 167 77 vvcurveto
        return
      </CharString>
      <CharString index="14">
        rmoveto
        -6 -9 -2 -7 -7 vvcurveto
        -22 25 -8 37 -1 vhcurveto
        31 61 44 73 47 78 349 580 rcurveline
        6 10 3 9 7 vvcurveto
        20 -23 9 -41 vhcurveto
        -31 -60 -43 -74 -47 -78 rrcurveto
        return
      </CharString>
      <CharString index="15">
        353 275 -107 callgsubr
        return
      </CharString>
      <CharString index="16">
        -21 -11 -22 -15 -23 vvcurveto
        -37 69 -59 49 -38 vhcurveto
        56 36 73 62 47 47 rrcurveto
        20 -12 -9 6 -16 hhcurveto
        -27 -50 -38 -37 -48 hvcurveto
        return
      </CharString>
      <CharString index="17">
        rmoveto
        -117 -99 -4 -45 -1 vhcurveto
        104 8 42 79 49 hhcurveto
        28 17 -28 -33 hvcurveto
        return
      </CharString>
      <CharString index="18">
        -25 -11 -16 -21 -22 vvcurveto
        -16 8 -15 19 -12 vhcurveto
        return
      </CharString>
      <CharString index="19">
        -27 26 -8 29 25 28 6 3 13 vhcurveto
        -2 17 6 callsubr
        return
      </CharString>
      <CharString index="20">
        -88 callsubr
        17 2 return
      </CharString>
      <CharString index="21">
        -75 callgsubr
        -401 -211 rmoveto
        -7 -9 -2 -8 -1 -7 rrcurveto
        -17 20 -9 19 -4 vhcurveto
        38 57 48 71 53 72 126 173 47 62 29 40 rrcurveto
        45 62 5 9 9 vvcurveto
        17 -20 12 -19 1 vhcurveto
        -36 -56 -50 -71 -53 -73 rrcurveto
        -240 -135 -65 callsubr
        return
      </CharString>
      <CharString index="22">
        -76 callsubr
        6 44 14 105 vhcurveto
        return
      </CharString>
      <CharString index="23">
        20 -30 8 0 vhcurveto
        -28 -24 -16 -17 -17 -26 -35 44 -43 hhcurveto
        return
      </CharString>
      <CharString index="24">
        rmoveto
        20 10 -17 -23 -29 -17 -25 -26 -21 -11 17 23 30 18 24 27 hvcurveto
        -20 -142 rmoveto
        65 43 55 57 48 -31 30 -50 -64 -45 -53 -58 -45 34 -34 48 hvcurveto
        return
      </CharString>
      <CharString index="25">
        -137 -27 -23 -108 -110 hhcurveto
        -35 -31 21 33 -10 hvcurveto
        -19 -8 -41 -22 -31 vvcurveto
        -37 62 -22 73 215 32 166 159 24 vhcurveto
        16 107 14 89 8 48 rrcurveto
        9 58 8 36 14 vvcurveto
        24 -26 8 -34 -16 -19 -3 -4 -16 vhcurveto
        -5 -90 -12 -74 -16 -92 rrcurveto
        -79 -19 -58 -70 -32 hhcurveto
        endchar
      </CharString>
      <CharString index="26">
        -32 -34 -30 -59 -38 -39 24 48 -12 vhcurveto
        -40 -8 -20 -22 -33 vvcurveto
        -52 68 -29 74 109 87 48 106 vhcurveto
        164 -198 -67 99 vvcurveto
        42 38 32 35 return
      </CharString>
      <CharString index="27">
        9 -6 12 -26 15 vhcurveto
        -69 -51 -90 -98 -45 -51 29 -50 64 -97 58 -54 rrcurveto
        29 17 11 13 13 vvcurveto
        22 -50 86 -32 49 vhcurveto
        50 52 77 91 22 vvcurveto
        return
      </CharString>
      <CharString index="28">
        -10 -54 1 -103 -24 -59 rrcurveto
        -8 16 14 -7 15 hhcurveto
        20 16 11 28 11 hvcurveto
        18 49 33 108 18 vvcurveto
        33 -29 13 -29 -25 -23 -9 -20 -4 vhcurveto
        return
      </CharString>
      <CharString index="29">
        rmoveto
        12 15 10 20 23 vvcurveto
        9 -1 10 -4 9 vhcurveto
        return
      </CharString>
      <CharString index="30">
        -126 -40 -88 -86 -62 hhcurveto
        -49 -17 52 50 27 16 122 14 100 hvcurveto
        return
      </CharString>
      <CharString index="31">
        32 41 32 43 return
      </CharString>
      <CharString index="32">
        24 11 -34 -36 -48 -21 -55 -33 -25 -11 36 36 47 21 54 34 hvcurveto
        return
      </CharString>
      <CharString index="33">
        rmoveto
        23 13 8 17 17 vvcurveto
        return
      </CharString>
      <CharString index="34">
        80 9 36 89 87 hhcurveto
        34 48 -7 -34 32 hvcurveto
        -15 -126 -64 -311 -82 -56 callgsubr
        return
      </CharString>
      <CharString index="35">
        136 51 91 65 25 28 -13 -29 27 return
      </CharString>
      <CharString index="36">
        6 24 86 52 hhcurveto
        21 31 44 callgsubr
        return
      </CharString>
      <CharString index="37">
        -78 callgsubr
        -46 callgsubr
        return
      </CharString>
      <CharString index="38">
        1 32 hhcurveto
        66 52 -6 -15 30 hvcurveto
        return
      </CharString>
      <CharString index="39">
        -53 -29 64 81 106 42 111 77 hvcurveto
        return
      </CharString>
      <CharString index="40">
        2 24 1 rrcurveto
        -318 -101 callsubr
        11 124 rrcurveto
        return
      </CharString>
      <CharString index="41">
        hmoveto
        -38 -26 -42 -39 27 callsubr
        -100 callgsubr
        endchar
      </CharString>
      <CharString index="42">
        -3 20 -1 20 21 vvcurveto
        46 6 47 6 44 vhcurveto
        14 106 rlineto
        117 151 99 123 37 vvcurveto
        return
      </CharString>
      <CharString index="43">
        68 2 14 42 23 vvcurveto
        return
      </CharString>
      <CharString index="44">
        53 28 -66 -83 -105 -42 -108 -76 return
      </CharString>
      <CharString index="45">
        rmoveto
        -68 callsubr
        hvcurveto
        hintmask 11111010
        -100 callsubr
        hvcurveto
        -173 hmoveto
        -99 callsubr
        endchar
      </CharString>
      <CharString index="46">
        81 74 36 41 23 -13 22 -35 14 hvcurveto
        -44 -23 -40 -26 -36 hhcurveto
        -42 -38 36 87 -2 hvcurveto
        return
      </CharString>
      <CharString index="47">
        -118 -138 -98 -206 -118 78 -72 120 76 79 34 43 23 -13 22 -35 14 return
      </CharString>
      <CharString index="48">
        35 callsubr
        365 596 -43 callgsubr
        return
      </CharString>
      <CharString index="49">
        42 -30 20 -32 -35 -37 -23 -44 -6 vhcurveto
        17 -7 11 -24 -23 -51 -45 -250 -31 vvcurveto
        return
      </CharString>
      <CharString index="50">
        -60 callsubr
        -84 callsubr
        return
      </CharString>
      <CharString index="51">
        vvcurveto
        -42 18 -49 53 42 22 27 35 7 vhcurveto
        return
      </CharString>
      <CharString index="52">
        62 25 25 44 55 vvcurveto
        54 -36 40 -93 -59 -93 -35 -47 -15 19 -13 32 -8 vhcurveto
        36 34 24 18 30 hhcurveto
        36 13 -18 -27 -65 -48 -25 -71 hvcurveto
        -21 hlineto
        return
      </CharString>
      <CharString index="53">
        hstem
        46 116 347 118 vstem
        return
      </CharString>
      <CharString index="54">
        423 150 rmoveto
        -57 -32 -41 -26 -49 hhcurveto
        -95 -44 98 125 154 77 152 119 45 48 -29 -69 13 hvcurveto
        49 6 37 27 43 vvcurveto
        return
      </CharString>
      <CharString index="55">
        -20 hstemhm
        75 107 -52 113 -7 callgsubr
        return
      </CharString>
      <CharString index="56">
        rmoveto
        -50 -20 -25 -32 -15 4 -13 8 -17 hvcurveto
        11 23 32 8 31 hhcurveto
        79 78 -19 -5 75 hvcurveto
        -122 -141 -177 -213 -47 -87 rrcurveto
        return
      </CharString>
      <CharString index="57">
        19 -15 16 -30 20 vhcurveto
        -114 -121 -59 8 -51 vvcurveto
        -15 9 -13 12 -12 vhcurveto
        45 39 76 35 41 28 rrcurveto
        18 12 17 16 19 vvcurveto
        return
      </CharString>
      <CharString index="58">
        25 -26 9 -29 -17 -24 -2 -5 -15 vhcurveto
        -2 -24 -7 -56 -2 -20 rrcurveto
        return
      </CharString>
      <CharString index="59">
        -64 callgsubr
        54 return
      </CharString>
      <CharString index="60">
        73 29 198 20 158 vhcurveto
        71 -175 56 -154 59 -135 rrcurveto
        -22 9 23 -5 29 hhcurveto
        13 17 1 3 15 hvcurveto
        return
      </CharString>
      <CharString index="61">
        15 -16 -81 0 -55 hhcurveto
        return
      </CharString>
      <CharString index="62">
        rmoveto
        -45 45 70 -18 76 hhcurveto
        219 122 204 210 205 -136 64 -167 -53 -77 -8 -4 -19 hvcurveto
        return
      </CharString>
      <CharString index="63">
        473 rmoveto
        -42 -16 -19 -37 -7 1 -11 callgsubr
        hvcurveto
        2 22 return
      </CharString>
      <CharString index="64">
        rmoveto
        106 38 -106 -112 -57 callgsubr
        hvcurveto
        return
      </CharString>
      <CharString index="65">
        211 -10 76 530 78 return
      </CharString>
      <CharString index="66">
        68 94 28 31 18 vvcurveto
        23 -32 14 -31 vhcurveto
        -36 -54 -51 -75 -51 -71 rrcurveto
        -342 -468 -5 1 -20 vvcurveto
        return
      </CharString>
      <CharString index="67">
        3 5 15 vhcurveto
        -2 17 -2 19 18 vvcurveto
        return
      </CharString>
      <CharString index="68">
        -3 -62 -8 -78 -31 -233 rrcurveto
        return
      </CharString>
      <CharString index="69">
        107 8 -21 214 73 return
      </CharString>
      <CharString index="70">
        137 -72 72 hstemhm
        return
      </CharString>
      <CharString index="71">
        -10 -21 21 63 215 61 -3 63 215 62 27 -20 hstemhm
        66 92 113 93 48 92 113 93 return
      </CharString>
      <CharString index="72">
        -32 callsubr
        endchar
      </CharString>
      <CharString index="73">
        -55 callsubr
        -145 -67 -378 -74 vvcurveto
        -23 10 -10 28 -2 vhcurveto
        -1 14 return
      </CharString>
      <CharString index="74">
        -21 -21 31 61 158 61 -46 59 160 59 42 -20 hstemhm
        84 89 90 89 101 89 90 89 return
      </CharString>
      <CharString index="75">
        rmoveto
        -38 -14 -21 -26 -14 3 -14 5 -15 hvcurveto
        8 17 24 6 23 hhcurveto
        55 49 -10 -3 51 hvcurveto
        return
      </CharString>
      <CharString index="76">
        30 234 rmoveto
        -75 callgsubr
        endchar
      </CharString>
      <CharString index="77">
        18 -9 9 -19 -23 vvcurveto
        endchar
      </CharString>
      <CharString index="78">
        -19 -37 56 -9 -35 vvcurveto
        -26 -24 -10 -17 -14 -15 5 9 -8 vhcurveto
        -15 -13 -16 -15 -19 vvcurveto
        return
      </CharString>
      <CharString index="79">
        13 vvcurveto
        -73 callsubr
        return
      </CharString>
      <CharString index="80">
        56 -68 43 -92 -203 -141 -168 -241 return
      </CharString>
      <CharString index="81">
        -33 hlineto
        -88 callsubr
        return
      </CharString>
      <CharString index="82">
        84 9 33 86 72 hhcurveto
        29 43 -10 -55 20 hvcurveto
        return
      </CharString>
      <CharString index="83">
        82 -10 76 352 66 return
      </CharString>
      <CharString index="84">
        111 hintmask 00000000
        return
      </CharString>
      <CharString index="85">
        -22 callsubr
        -12 return
      </CharString>
      <CharString index="86">
        rrcurveto
        -4 -12 -3 -17 -16 vvcurveto
        -16 4 -14 13 -2 vhcurveto
        -7 52 97 0 101 hhcurveto
        -10 return
      </CharString>
      <CharString index="87">
        -22 vvcurveto
        -21 13 -9 18 12 13 4 7 14 vhcurveto
        1 21 2 22 3 22 3 22 return
      </CharString>
      <CharString index="88">
        484 rmoveto
        -44 -34 -40 -48 -37 25 -28 33 42 38 42 47 39 -27 25 -33 hvcurveto
        return
      </CharString>
      <CharString index="89">
        531 rmoveto
        -68 callsubr
        return
      </CharString>
      <CharString index="90">
        -25 callsubr
        60 28 66 45 return
      </CharString>
      <CharString index="91">
        hhcurveto
        -39 -13 -28 -21 return
      </CharString>
      <CharString index="92">
        33 79 rrcurveto
        hintmask 11000000
        8 15 3 17 16 vvcurveto
        9 -1 9 -2 9 vhcurveto
        -2 -50 return
      </CharString>
      <CharString index="93">
        16 vvcurveto
        22 -14 7 -21 -9 -11 -1 -3 -11 vhcurveto
        -7 -36 -21 -83 -10 -43 rrcurveto
        return
      </CharString>
      <CharString index="94">
        rrcurveto
        -2 22 53 -3 18 hhcurveto
        45 16 33 36 4 0 1 -1 8 hvcurveto
        -37 -3 return
      </CharString>
      <CharString index="95">
        -45 vhcurveto
        -24 31 -7 57 49 123 45 159 106 vvcurveto
        64 -21 31 -43 vhcurveto
        return
      </CharString>
      <CharString index="96">
        -7 1 -7 return
      </CharString>
      <CharString index="97">
        0 -222 hhcurveto
        -24 -44 1 7 -42 hvcurveto
        -6 -11 -7 -20 -17 vvcurveto
        -26 15 return
      </CharString>
      <CharString index="98">
        18 -5 17 -12 12 vhcurveto
        -7 -15 -22 -2 -26 -74 -102 19 -54 hhcurveto
        endchar
      </CharString>
      <CharString index="99">
        26 -28 7 -30 -11 -24 0 -3 -22 vhcurveto
        return
      </CharString>
      <CharString index="100">
        164 6 callgsubr
        return
      </CharString>
      <CharString index="101">
        hintmask 00000000
        hintmask 11101000
        return
      </CharString>
      <CharString index="102">
        175 -10 88 588 return
      </CharString>
      <CharString index="103">
        140 -113 113 return
      </CharString>
      <CharString index="104">
        hlineto
        -60 -27 -17 -42 -9 1 -10 3 -12 hvcurveto
        50 14 40 5 36 2 return
      </CharString>
      <CharString index="105">
        vhcurveto
        -10 20 -4 24 37 86 32 111 74 vvcurveto
        44 -19 22 -45 vhcurveto
        return
      </CharString>
      <CharString index="106">
        -56 callgsubr
        -5 callsubr
        return
      </CharString>
      <CharString index="107">
        531 rmoveto
        -76 callgsubr
        return
      </CharString>
      <CharString index="108">
        -37 -37 -25 -42 -4 return
      </CharString>
      <CharString index="109">
        68 35 18 43 14 -3 8 -8 17 hvcurveto
        -14 -28 -32 -2 -32 hhcurveto
        return
      </CharString>
      <CharString index="110">
        -38 callsubr
        16 callsubr
        vhcurveto
        17 callgsubr
        return
      </CharString>
      <CharString index="111">
        -20 11 -17 16 -21 vhcurveto
        10 28 22 2 33 88 97 -25 62 hhcurveto
        return
      </CharString>
      <CharString index="112">
        hintmask 00000000
        hintmask 11100000
        return
      </CharString>
      <CharString index="113">
        115 hintmask 00000000
        return
      </CharString>
      <CharString index="114">
        rmoveto
        -37 -38 -27 -40 -3 hvcurveto
        14 -8 13 -13 -30 vvcurveto
        hintmask 11010000
        return
      </CharString>
      <CharString index="115">
        5 54 57 5 96 47 49 -8 57 hhcurveto
        31 21 22 27 hvcurveto
        return
      </CharString>
      <CharString index="116">
        -90 -99 -133 -151 -36 -63 rrcurveto
        -9 -16 -4 -13 -12 vvcurveto
        return
      </CharString>
      <CharString index="117">
        99 rmoveto
        21 callsubr
        return
      </CharString>
      <CharString index="118">
        -20 432 70 -70 82 10 26 callgsubr
        return
      </CharString>
      <CharString index="119">
        -21 -28 -8 -16 -30 hvcurveto
        16 -33 11 -49 -47 vvcurveto
        endchar
      </CharString>
      <CharString index="120">
        -22 -30 -6 -14 -27 hvcurveto
        11 -23 8 -33 -34 vvcurveto
        endchar
      </CharString>
      <CharString index="121">
        12 -31 5 -36 -39 vvcurveto
        -178 return
      </CharString>
      <CharString index="122">
        104 -37 callgsubr
        return
      </CharString>
      <CharString index="123">
        48 61 33 65 41 return
      </CharString>
      <CharString index="124">
        18 -9 9 -18 -24 return
      </CharString>
      <CharString index="125">
        47 43 callgsubr
        return
      </CharString>
      <CharString index="126">
        85 -47 51 -80 -103 -68 -91 -112 -84 47 -53 81 return
      </CharString>
      <CharString index="127">
        -23 -27 -4 -14 -24 hvcurveto
        11 -23 4 -33 -33 vvcurveto
        -100 return
      </CharString>
      <CharString index="128">
        139 hstemhm
        return
      </CharString>
      <CharString index="129">
        95 -10 84 -59 59 -59 84 461 80 -56 56 return
      </CharString>
      <CharString index="130">
        -10 -21 -24 -2 -23 hhcurveto
        -47 -57 14 3 -50 hvcurveto
        return
      </CharString>
      <CharString index="131">
        -71 -95 24 1 -75 hvcurveto
        24 35 27 34 31 38 return
      </CharString>
      <CharString index="132">
        11 -21 417 77 hstemhm
        44 32 callgsubr
        return
      </CharString>
      <CharString index="133">
        -21 15 callgsubr
        return
      </CharString>
      <CharString index="134">
        -5 callgsubr
        -20 return
      </CharString>
      <CharString index="135">
        hintmask 0000000000000000
        return
      </CharString>
      <CharString index="136">
        1 16 hhcurveto
        61 45 -21 -88 -97 -39 -78 -83 return
      </CharString>
      <CharString index="137">
        -15 8 -12 11 -15 vhcurveto
        7 23 25 2 26 return
      </CharString>
      <CharString index="138">
        -10 76 -58 58 -58 75 312 70 -57 57 return
      </CharString>
      <CharString index="139">
        118 -73 112 return
      </CharString>
      <CharString index="140">
        -10 66 363 65 return
      </CharString>
      <CharString index="141">
        -21 401 -20 hstem
        return
      </CharString>
      <CharString index="142">
        5 5 15 vhcurveto
        -13 44 0 28 35 vvcurveto
        return
      </CharString>
      <CharString index="143">
        3 -5 vhcurveto
        3 21 27 2 27 hhcurveto
        94 return
      </CharString>
      <CharString index="144">
        127 63 81 77 38 -14 34 -50 22 return
      </CharString>
      <CharString index="145">
        77 hstem
        57 116 216 115 vstem
        return
      </CharString>
      <CharString index="146">
        44 18 12 38 7 -1 9 -1 9 hvcurveto
        return
      </CharString>
      <CharString index="147">
        -10 77 529 77 hstem
        return
      </CharString>
      <CharString index="148">
        17 callsubr
        -20 return
      </CharString>
      <CharString index="149">
        -37 -23 54 71 return
      </CharString>
      <CharString index="150">
        171 -20 hstemhm
        return
      </CharString>
      <CharString index="151">
        -10 -55 15 hvcurveto
        return
      </CharString>
</ttFont>
